<?xml version="1.0" encoding="UTF-8" standalone="no"?>
<!-- Created with Inkscape (http://www.inkscape.org/) -->

<svg
   width="54"
   height="21"
   viewBox="0 0 54 21"
   version="1.1"
   id="svg1"
   sodipodi:docname="Broken lines.svg"
   inkscape:version="1.3 (0e150ed, 2023-07-21)"
   xml:space="preserve"
   inkscape:export-filename="../../../../../../Work/Pixel-Art-Academy/public/pixelartacademy/tutorials/drawing/elementsofart/line/brokenlines.svg"
   inkscape:export-xdpi="96"
   inkscape:export-ydpi="96"
   xmlns:inkscape="http://www.inkscape.org/namespaces/inkscape"
   xmlns:sodipodi="http://sodipodi.sourceforge.net/DTD/sodipodi-0.dtd"
   xmlns="http://www.w3.org/2000/svg"
   xmlns:svg="http://www.w3.org/2000/svg"><sodipodi:namedview
     id="namedview1"
     pagecolor="#505050"
     bordercolor="#eeeeee"
     borderopacity="1"
     inkscape:showpageshadow="0"
     inkscape:pageopacity="0"
     inkscape:pagecheckerboard="0"
     inkscape:deskcolor="#d1d1d1"
     inkscape:document-units="px"
     inkscape:zoom="22.430998"
     inkscape:cx="27.016185"
     inkscape:cy="10.521154"
     inkscape:window-width="2240"
     inkscape:window-height="1207"
     inkscape:window-x="0"
     inkscape:window-y="25"
     inkscape:window-maximized="1"
     inkscape:current-layer="layer2"
     showgrid="true"><inkscape:grid
       id="grid1"
       units="px"
       originx="0"
       originy="0"
       spacingx="0.5"
       spacingy="0.5"
       empcolor="#0099e5"
       empopacity="0.30196078"
       color="#0099e5"
       opacity="0.14901961"
       empspacing="2"
       dotted="false"
       gridanglex="30"
       gridanglez="30"
       visible="true" /></sodipodi:namedview><defs
     id="defs1" /><path
     style="fill:none;stroke:#000000;stroke-width:0.1;stroke-linecap:square;stroke-linejoin:miter;stroke-dasharray:none;stroke-opacity:1"
     d="m 3.5,6.5 3,-3 v 14"
     id="path1" /><path
     style="fill:none;stroke:#000000;stroke-width:0.1;stroke-linecap:butt;stroke-linejoin:miter;stroke-dasharray:none;stroke-opacity:1"
     d="m 37.5,3.5 -5,11 h 7"
     id="path2" /><path
     style="fill:none;stroke:#000000;stroke-width:0.1;stroke-linecap:butt;stroke-linejoin:miter;stroke-dasharray:none;stroke-opacity:1"
     d="m 37.5,3.5 v 14"
     id="path3" /><path
     style="opacity:1;fill:none;stroke:#000000;stroke-width:0.1;stroke-linecap:square;stroke-linejoin:bevel;stroke-dasharray:none"
     d="M 43.5,3.5 V 10 C 44.279335,9.1532399 45,8.5 47,8.5 c 2,0 3.5,1 3.5,4.5 0,3.5 -1.484238,4.5 -3.5,4.5 -2.015762,0 -3.5,-1 -3.5,-3"
     id="path4"
     sodipodi:nodetypes="ccsssc" /><path
     style="opacity:1;fill:none;stroke:#000000;stroke-width:0.1;stroke-linecap:square;stroke-linejoin:miter;stroke-dasharray:none"
     d="m 43.5,3.5 h 7"
     id="path5" /><path
     style="opacity:1;fill:none;stroke:#000000;stroke-width:0.1;stroke-linecap:square;stroke-linejoin:bevel;stroke-dasharray:none"
     d="m 10.5,6.5 c 0,-1.5 1.5,-3 3.5,-3 2,0 3.5,1.5 3.5,3.5 0,2 -1.5,3 -2.5,4 -2,2 -4.5,3 -4.5,6.5 h 7"
     id="path6"
     sodipodi:nodetypes="cssscc" /><path
     style="opacity:1;fill:none;stroke:#000000;stroke-width:0.1;stroke-linecap:square;stroke-linejoin:bevel;stroke-dasharray:none"
     d="m 21.5,6.5 c 0,-1.5 1.5,-3 3.5,-3 2,0 3.5,1.5 3.5,3.5 0,2 -1.5,3.5 -3,3.5 1.5,0 3,1.5 3,3.5 0,2 -1.5,3.5 -3.5,3.5 -2,0 -3.5,-1.5 -3.5,-3"
     id="path7"
     sodipodi:nodetypes="csscssc" /></svg>
