<?xml version="1.0" encoding="UTF-8" standalone="no"?>
<!-- Created with Inkscape (http://www.inkscape.org/) -->

<svg
   width="65"
   height="27"
   viewBox="0 0 65 27"
   version="1.1"
   id="svg1"
   xml:space="preserve"
   xmlns="http://www.w3.org/2000/svg"
   xmlns:svg="http://www.w3.org/2000/svg"><defs
     id="defs1" /><g
     id="layer2"><path
       style="fill:none;stroke:#000000;stroke-width:0.1;stroke-linecap:square;stroke-linejoin:bevel"
       d="m 3.5,11.5 v -8 h 8"
       id="path1" /><path
       style="fill:none;stroke:#000000;stroke-width:0.1;stroke-linecap:square;stroke-linejoin:bevel"
       d="m 9.5,11.5 h 8 l 8,-8"
       id="path2" /><path
       style="fill:none;stroke:#000000;stroke-width:0.1;stroke-linecap:square;stroke-linejoin:bevel"
       d="m 3.5,15.5 8,8 v -8"
       id="path3" /><path
       style="fill:none;stroke:#000000;stroke-width:0.1;stroke-linecap:square;stroke-linejoin:bevel"
       d="m 15.48,18.72 12.7,-6.28 3.64,11.04"
       id="path4" /><path
       style="fill:none;stroke:#000000;stroke-width:0.1;stroke-linecap:square;stroke-linejoin:bevel"
       d="m 33.5,13.5 h 7 c 0,0 0.0545,3.946951 2,6 0.723608,0.763608 2.187237,2.374889 5,3 4.491589,0.998214 8.201169,1.015993 14,1"
       id="path5" /><path
       style="fill:none;stroke:#000000;stroke-width:0.1;stroke-linecap:square;stroke-linejoin:bevel"
       d="m 28.5,6.5 c 4,4.05215 7,4 11,0 4,4 7,4 11,0 4,4 7,4 11,0"
       id="path6" /><path
       style="fill:none;stroke:#000000;stroke-width:0.1;stroke-linecap:square;stroke-linejoin:bevel"
       d="m 45.5,13.5 4,4 v -4 l 4,4 v -4 l 4,4 v -4 l 4,4"
       id="path7" /></g></svg>
