<?xml version="1.0" encoding="UTF-8" standalone="no"?>
<!-- Created with Inkscape (http://www.inkscape.org/) -->

<svg
   width="54"
   height="21"
   viewBox="0 0 54 21"
   version="1.1"
   id="svg1"
   xml:space="preserve"
   xmlns="http://www.w3.org/2000/svg"
   xmlns:svg="http://www.w3.org/2000/svg"><defs
     id="defs1" /><g
     id="layer2"><path
       style="fill:none;stroke:#000000;stroke-width:0.1;stroke-linecap:square;stroke-linejoin:miter;stroke-dasharray:none;stroke-opacity:1"
       d="m 3.5,6.5 3,-3 v 14"
       id="path1" /><path
       style="opacity:1;fill:none;stroke:#000000;stroke-width:0.1;stroke-linecap:square;stroke-linejoin:bevel;stroke-dasharray:none"
       d="m 10.5,6.5 c 0,-1.5 1.5,-3 3.5,-3 2,0 3.5,1.5 3.5,3.5 0,2 -1,2.5 -2,3.5 -2,2 -5,3.5 -5,7 h 7"
       id="path6" /><path
       style="opacity:1;fill:none;stroke:#000000;stroke-width:0.1;stroke-linecap:square;stroke-linejoin:bevel;stroke-dasharray:none"
       d="m 21.5,6.5 c 0,-1.5 1.5,-3 3.5,-3 2,0 3.5,1.5 3.5,3.5 0,2 -1.5,3.5 -3,3.5 1.5,0 3,1.5 3,3.5 0,2 -1.5,3.5 -3.5,3.5 -2,0 -3.5,-1.5 -3.5,-3"
       id="path7" /><path
       style="fill:none;stroke:#000000;stroke-width:0.1;stroke-linecap:butt;stroke-linejoin:miter;stroke-dasharray:none;stroke-opacity:1"
       d="m 37.5,3.5 -5,11 h 7"
       id="path2" /><path
       style="fill:none;stroke:#000000;stroke-width:0.1;stroke-linecap:butt;stroke-linejoin:miter;stroke-dasharray:none;stroke-opacity:1"
       d="m 37.5,3.5 v 14"
       id="path3" /><path
       style="opacity:1;fill:none;stroke:#000000;stroke-width:0.1;stroke-linecap:square;stroke-linejoin:bevel;stroke-dasharray:none"
       d="M 43.5,3.5 V 9.877918 C 44.279335,9.0311579 45,8.5 47,8.5 c 2,0 3.5,1 3.5,4.5 0,3.5 -1.484238,4.5 -3.5,4.5 -2.015762,0 -3.5,-1 -3.5,-3"
       id="path4" /><path
       style="opacity:1;fill:none;stroke:#000000;stroke-width:0.1;stroke-linecap:square;stroke-linejoin:miter;stroke-dasharray:none"
       d="m 43.5,3.5 h 7"
       id="path5" /></g></svg>
