<?xml version="1.0" encoding="UTF-8" standalone="no"?>
<!-- Created with Inkscape (http://www.inkscape.org/) -->

<svg
   width="38"
   height="35"
   viewBox="0 0 38 35"
   version="1.1"
   id="svg1"
   xml:space="preserve"
   xmlns="http://www.w3.org/2000/svg"
   xmlns:svg="http://www.w3.org/2000/svg"><defs
     id="defs1" /><g
     id="layer2"><path
       style="fill:none;stroke:#000000;stroke-width:0.1;stroke-linecap:square;stroke-linejoin:bevel"
       d="m 3.5,7.5 c 7,-6.5 16,-3.5 19,-2"
       id="path1" /><path
       style="fill:none;stroke:#000000;stroke-width:0.1;stroke-linecap:square;stroke-linejoin:bevel"
       d="m 13.5,10.5 c 0.545045,9.18018 12.545045,9.18018 13,0 0.135917,-2.7425692 0.474272,-4.5915506 2,-6 1.883573,-1.7387879 5.790313,-1.1878436 6,2"
       id="path2" /><path
       style="fill:none;stroke:#000000;stroke-width:0.1;stroke-linecap:square;stroke-linejoin:bevel"
       d="m 10.5,18.5 c -4.7027027,-0.03378 -7,2.236486 -7,5.5 0,3.585695 4,6.5 5,7.5"
       id="path3" /><path
       style="fill:none;stroke:#000000;stroke-width:0.1;stroke-linecap:square;stroke-linejoin:bevel"
       d="m 16.5,26.5 c 4.080596,5.070711 10,5 11,5 4,0 7,-2 7,-4 0,-1.5 -1,-2 -2,-2 -1,0 -2,0.5 -2,2"
       id="path4" /></g></svg>
