<?xml version="1.0" encoding="UTF-8" standalone="no"?>
<!-- Created with Inkscape (http://www.inkscape.org/) -->

<svg
   width="33"
   height="33"
   viewBox="0 0 33 33"
   version="1.1"
   id="svg1"
   xml:space="preserve"
   xmlns="http://www.w3.org/2000/svg"
   xmlns:svg="http://www.w3.org/2000/svg"><defs
     id="defs1" /><g
     id="layer2"><path
       id="path53"
       style="fill:none;stroke:#000000;stroke-width:0.1;stroke-linecap:square;stroke-linejoin:bevel"
       d="M 16.599364,8.5418925 C 17.936918,5.1705916 19.60844,4.8441957 19.685625,4.4638966 19.715748,4.4731013 18.860888,7.6822748 18.75,10.5 m -0.386359,3.147274 C 18.25,12 18.195871,11.732966 18.642217,10.717135 19.617579,8.4973225 22.807923,7.0088691 22.75,7.25 c -0.305084,1.3285509 -2,3.25 -2.033456,5.446095 M 12.872728,11.975454 C 12.724082,8.5848378 10.501548,8.1479444 10.5,4.5 c 1.633407,1.5649853 3.25,3.75 4,5.25 m 1.225454,2.82818 C 12.632049,7.575432 15.621988,3.5533383 15.75,3.5 c -0.0029,0.048631 0.642788,2.4492555 0.75,3.75 0.279298,3.388567 0.604151,4.970922 1.75,6 m -2.672022,1.077978 C 13.024326,14.349438 7.7354181,12.938382 7.5,11.5 c 0.5098314,-0.03591 9.938494,0.571297 9.25,2 m 2,2 c 1.559969,0.005 7.129729,-1.508704 7,-4.25 -3.723974,0.783049 -7.630391,2.500531 -7.629963,2.5 m 0.629963,2 C 18.5,14.5 18.5,13.5 17,13.5 c -1.5,0 -2.75,3.25 -2.75,3.25 1.18465,-0.666612 2.608569,-1.170553 4.5,-1 z M 22.5,28 l 1,-9.25 m -13,9.25 -1,-9.25 m 1,9.25 c 0.25,1.25 2.25,2.5 6,2.55296 C 20.25,30.60592 22.25,29.25 22.5,28 m 2,-12.5 -0.25,2 m -15.75,-2 0.25,2 m 15.5,0 C 24,19.25 20.918278,20.518919 16.5,20.518919 12.081722,20.518919 9,19.25 8.75,17.5 M 23.57957,14.101623 C 24.167283,14.519177 24.5,14.995018 24.5,15.5 c 0,1.656854 -3.581722,3 -8,3 -4.418278,0 -8,-1.343146 -8,-3 0,-0.77905 0.7918692,-1.488744 2.090236,-2.022065" /></g></svg>
