<?xml version="1.0" encoding="UTF-8" standalone="no"?>
<!-- Created with Inkscape (http://www.inkscape.org/) -->

<svg
   width="29"
   height="39"
   viewBox="0 0 29 39"
   version="1.1"
   id="svg1"
   xml:space="preserve"
   xmlns="http://www.w3.org/2000/svg"
   xmlns:svg="http://www.w3.org/2000/svg"><defs
     id="defs1" /><g
     id="layer2"><path
       id="path37"
       style="fill:none;stroke:#000000;stroke-width:0.1;stroke-linecap:square;stroke-linejoin:bevel"
       d="m 16.5,30.25 c 1.891544,1.026218 2.217281,0.990753 2.25,1 m -2.25,-5 c 0.52349,1.380687 3,2 3.25,2 M 18.5,24.5 c 0.282349,0.477318 1.164997,0.995877 2,1 m -2.25,-4 c 0.540694,0.375512 0.939854,0.696883 1.5,0.75 M 17.489645,17.57889 C 18.032185,18.170892 18.995817,18.356379 19.75,18.5 m -3.25,-4 c 0.75,0.75 1,1 2,1 m -1.272688,-2.962892 c 0.205087,0 0.592437,-0.202587 0.592437,-0.202587 M 16.25,10.25 c 0.567082,-0.08354 1.28227,-0.5 1.28227,-0.5 M 15.25,8.25 c 1,-0.25 1.5,-0.75 1.5,-0.75 m -3.5,-3 C 13.724213,4.2567303 13.951406,4.2647803 14.5,3.1934983 15.153255,3.9166757 15.492805,5.47521 15.5,5.5 m -2.75,0.75 c -0.097,0.1529994 -0.259418,0.2405823 -0.5,0.25 m 0.5,1.75 c -0.912809,1.1234023 -1.25354,0.9287604 -1.5,1 m 0.5,2.25 c -0.181401,0.410663 -1.054683,0.691403 -1.5,0.75 m 1.32,1.930304 C 11,15 10.679289,15.381528 10.25,15.498721 M 11.5,17.25 c -0.174818,0.988689 -2.2254412,1.749517 -3.25,2 m 1.5,2 c -0.5,0.5 -0.75,1 -1.5,1 m 3.25,2 c -0.467,1.254453 -2.4911671,1.75017 -3.25,2 m 3,1 c -0.2069,1.558963 -1.9847556,2.049273 -2,2 m 6.5,0.25 c 0.08314,2.463629 0.358027,4.394468 0.75,6 h -3.25 c 0.25,-2 0.25,-3.903908 0.25,-6 -1,1 -1.5,2 -3,2" /></g></svg>
