<?xml version="1.0" encoding="UTF-8" standalone="no"?>
<!-- Created with Inkscape (http://www.inkscape.org/) -->

<svg
   width="29"
   height="39"
   viewBox="0 0 29 39"
   version="1.1"
   id="svg1"
   xml:space="preserve"
   xmlns="http://www.w3.org/2000/svg"
   xmlns:svg="http://www.w3.org/2000/svg"><defs
     id="defs1" /><g
     id="layer2"><path
       id="path18"
       style="fill:none;stroke:#000000;stroke-width:0.1;stroke-linecap:square;stroke-linejoin:bevel"
       d="m 15.5,14.5 c 1.603943,0.98963 3.175605,3.401378 2.982609,3.875 M 16.5,14.5 c 2.469795,-0.05 5.636502,1 6.884915,3 m -7.071669,-3.889248 c 2.176064,-2.852263 5.400399,-2.718247 7.163017,-0.178847 M 15.5,13.5 c 1.820285,-4.7577648 6.825274,-6.2438738 10,-3 m -10,2 c -0.06456,-3.7821722 2,-6 4.75,-6 m -5.75,5 C 14.5,9 14.384164,5.0706003 16.567082,3.4103002 M 14.55,13.367159 C 13.490322,8.818951 11.254737,6.16628 7.5,5.5 m 6,7 c -2.419233,-2.7789225 -5.0674977,-4.011895 -9,-1 m 8.25,2 C 10.145594,11.241706 4.8253608,13.379273 4.4455698,16.475 M 13.75,13.75 C 9.3022347,14.364429 7.5922085,15.241883 7.4600316,17.5 M 14.5,14.45 c -1.813246,0 -4,0.3 -4,4.05 m 5,2 v -5 m 0,8 c 0.05,-0.898753 0.2712,-1.618684 1,-2 m -6,14 h 3 c -0.135563,-1.327586 0.81645,-2.743579 1,-4.989993 0.107782,-1.319113 0.398382,-2.086041 1,-4.010007 0.316682,-1.012745 0.345355,-1.611276 1,-2 m -3,-8 v -1 m -1,2 c 0.623107,0.284655 0.792784,1.270185 1,2 m -0.25,2.25 c -0.159065,-0.417303 -0.429468,-1.2 -0.75,-1.5 m -2,15.25 c 0.113747,-1.523942 1.699211,-2.720275 2,-6.011354 0.174492,-1.909204 0.846255,-3.804891 0.813246,-5.055728 C 13.283926,23.321729 13,22.984716 12.5,22.5" /></g></svg>
