<?xml version="1.0" encoding="UTF-8" standalone="no"?>
<!-- Created with Inkscape (http://www.inkscape.org/) -->

<svg
   width="29"
   height="29"
   viewBox="0 0 29 29"
   version="1.1"
   id="svg1"
   xml:space="preserve"
   xmlns="http://www.w3.org/2000/svg"
   xmlns:svg="http://www.w3.org/2000/svg"><defs
     id="defs1" /><g
     id="layer2"><path
       id="path84"
       style="fill:none;stroke:#000000;stroke-width:0.1;stroke-linecap:square;stroke-linejoin:bevel"
       d="m 19.5,23.5 6,-6 m -6,4 6,-6 m -6,4 6,-6 m -6,4 6,-6 m -6,4 6,-6 m -6,4 6,-6 m -6,4 6,-6 m -22,18 h 16 m -16,-2 h 16 m -16,-2 h 16 m -16,-2 h 16 m -16,-2 h 16 m -16,-2 h 16 m -16,-2 h 16 m 6,-8 v 16 l -6,6 m -16,-16 6,-6 h 16 l -6,6 m -16,0 h 16 v 16 h -16 z" /></g></svg>
