<?xml version="1.0" encoding="UTF-8" standalone="no"?>
<!-- Created with Inkscape (http://www.inkscape.org/) -->

<svg
   width="29"
   height="29"
   viewBox="0 0 29 29"
   version="1.1"
   id="svg1"
   sodipodi:docname="Patterns.svg"
   inkscape:version="1.3 (0e150ed, 2023-07-21)"
   xml:space="preserve"
   inkscape:export-filename="../../../../../../../Work/Pixel-Art-Academy/public/pixelartacademy/tutorials/drawing/elementsofart/line/outlines-pottedplant.svg"
   inkscape:export-xdpi="96"
   inkscape:export-ydpi="96"
   xmlns:inkscape="http://www.inkscape.org/namespaces/inkscape"
   xmlns:sodipodi="http://sodipodi.sourceforge.net/DTD/sodipodi-0.dtd"
   xmlns="http://www.w3.org/2000/svg"
   xmlns:svg="http://www.w3.org/2000/svg"><sodipodi:namedview
     id="namedview1"
     pagecolor="#505050"
     bordercolor="#eeeeee"
     borderopacity="1"
     inkscape:showpageshadow="0"
     inkscape:pageopacity="0"
     inkscape:pagecheckerboard="0"
     inkscape:deskcolor="#d1d1d1"
     inkscape:document-units="px"
     inkscape:zoom="23.225722"
     inkscape:cx="7.8791954"
     inkscape:cy="13.734772"
     inkscape:window-width="2240"
     inkscape:window-height="1207"
     inkscape:window-x="0"
     inkscape:window-y="25"
     inkscape:window-maximized="0"
     inkscape:current-layer="layer2"
     showgrid="true"
     showguides="false"><inkscape:grid
       id="grid1"
       units="px"
       originx="0"
       originy="0"
       spacingx="0.5"
       spacingy="0.5"
       empcolor="#0099e5"
       empopacity="0.30196078"
       color="#0099e5"
       opacity="0.14901961"
       empspacing="2"
       dotted="false"
       gridanglex="30"
       gridanglez="30"
       visible="true" /></sodipodi:namedview><defs
     id="defs1" /><g
     inkscape:groupmode="layer"
     id="layer2"
     inkscape:label="Lines"><path
       id="path67"
       style="fill:none;stroke:#000000;stroke-width:0.1;stroke-linecap:square;stroke-linejoin:bevel"
       d="m 15.5,26.5 h 2 m -6,0 h 2 m 4,-2 h 2 m -6,0 h 2 m -6,0 h 2 m 5,-2 h 2 m -8,0 h 4 m 4,-2 h 1 m -7,0 h 4 m -7,0 h 1 m 4,-2 h 4 m -8,0 h 2 m -1,-2 h 6 m -17,-2 h 28 m -11,-8 a 3,3 0 0 1 -3,3 3,3 0 0 1 -3,-3 3,3 0 0 1 3,-3 3,3 0 0 1 3,3 z"
       inkscape:label="Sunset" /></g></svg>
