<?xml version="1.0" encoding="UTF-8" standalone="no"?>
<!-- Created with Inkscape (http://www.inkscape.org/) -->

<svg
   width="80"
   height="70"
   viewBox="0 0 80 70"
   version="1.1"
   id="svg1"
   xml:space="preserve"
   xmlns="http://www.w3.org/2000/svg"
   xmlns:svg="http://www.w3.org/2000/svg"><defs
     id="defs1" /><g
     id="layer2"
     style="display:inline"><path
       style="fill:#000000;stroke:#000000;stroke-width:0.1;stroke-linecap:round;stroke-linejoin:round;stroke-dasharray:none"
       d="m 26.964919,26.94759 c -0.489894,0.01249 -0.969781,0.240041 -1.278112,0.623164 -0.37708,0.461552 -0.587445,1.032507 -0.75975,1.596023 -0.04459,0.182566 -0.130518,0.361347 -0.09975,0.553073 0.03909,1.301618 0.239862,2.594998 0.562073,3.855826 0.280337,1.095939 0.533954,1.947272 1.087747,2.939524 0.149088,0.272357 0.328031,0.540503 0.596401,0.708618 0.268245,0.190443 0.619633,0.270638 0.937961,0.17071 0.535086,-0.146917 0.959821,-0.562546 1.205723,-1.049686 0.654008,-1.0886 0.719762,-2.313466 0.749369,-3.548539 0.0044,-0.650532 -0.0041,-1.30322 -0.09991,-1.947984 -0.129904,-0.965899 -0.366681,-1.95775 -0.960575,-2.751473 -0.410303,-0.547065 -0.992384,-1.011723 -1.680263,-1.13076 -0.08623,-0.01358 -0.17362,-0.02014 -0.260915,-0.0185 z m 0.0141,0.702818 c 1.312111,-0.01372 1.685626,1.3444 1.97711,2.525297 0.421233,1.836057 0.103383,3.638881 -1.341583,3.869522 -0.737797,0.05047 -1.795273,-1.208828 -2.043359,-3.121462 -0.0722,-0.568392 0.05298,-3.273357 1.407835,-3.273357 z"
       id="path8" /><path
       style="fill:#000000;stroke:#000000;stroke-width:0.1;stroke-linecap:round;stroke-linejoin:round;stroke-dasharray:none"
       d="m 19.98388,27.265793 c -0.531463,0.0096 -1.038804,0.282049 -1.367521,0.695542 -0.392078,0.470466 -0.666402,1.028104 -0.882632,1.597788 -0.339174,0.953458 -0.463515,1.9722 -0.444219,2.98087 -0.0062,0.899916 0.07965,1.80792 0.33111,2.674438 0.159239,0.498513 0.369198,1.013975 0.771639,1.366777 0.236308,0.20539 0.554009,0.292938 0.86041,0.301315 0.240991,-0.0034 0.491907,-0.02875 0.695675,-0.170342 0.225443,-0.134731 0.411567,-0.343193 0.476571,-0.60219 0.468407,-1.426586 0.676443,-2.921211 0.863648,-4.405966 0.113832,-0.986854 0.214291,-1.976496 0.259966,-2.96902 -0.03634,-0.23685 -0.171539,-0.446328 -0.283981,-0.654212 -0.251075,-0.4604 -0.735947,-0.838639 -1.280666,-0.815 z m 0.14718,0.637302 c 0.990799,-0.04233 0.853868,1.503833 0.818355,2.255935 -0.313488,4.309306 -2.677152,4.056532 -2.718191,1.064502 0.01299,-2.258621 1.043144,-3.308287 1.899836,-3.320437 z"
       id="path5" /><path
       style="fill:none;stroke:#000000;stroke-width:0.1;stroke-linecap:round;stroke-linejoin:round;stroke-dasharray:none"
       d="m 21.548527,28.735005 c 0.08373,-1.315457 0.139452,-2.346017 0.102513,-3.102163 -0.138628,-2.83774 -1.539739,-4.778159 -3.085895,-4.778161 -3.485497,-3e-6 -6.004222,4.877539 -5.9727,9.307459 0.03239,4.551439 0.863052,8.622413 4.37998,8.759961 1.804902,0.07059 2.505536,-0.532679 3.452488,-2.81211"
       id="path1" /><path
       style="fill:none;stroke:#000000;stroke-width:0.1;stroke-linecap:round;stroke-linejoin:round;stroke-dasharray:none"
       d="m 26.629032,36.76873 c 1.079336,1.731178 2.783159,2.925086 5.518674,2.85014 4.526099,-0.124003 6.149864,-4.424723 6.459871,-6.191761 0.310007,-1.767039 -0.228734,-5.991507 -1.716767,-8.378559 -1.488033,-2.387052 -4.653233,-5.625047 -7.440163,-4.99111 -3.596953,0.818191 -4.799411,5.466606 -4.62334,9.66241"
       id="path2" /><path
       style="fill:none;stroke:#000000;stroke-width:0.1;stroke-linecap:round;stroke-linejoin:round;stroke-dasharray:none"
       d="m 44.591215,30.364255 c -2.212789,0.174822 -3.287088,0.479208 -4.528249,1.743771 -2.057336,2.09613 -1.910954,4.761756 -0.671914,6.169109 1.294404,1.470237 2.882387,1.76768 4.848259,1.739333 4.022595,-0.058 6.736441,-2.563869 6.334265,-4.976923 -0.402175,-2.413053 -3.276109,-4.889098 -5.982361,-4.67529 z"
       id="path9" /><path
       style="fill:none;stroke:#000000;stroke-width:0.1;stroke-linecap:round;stroke-linejoin:round;stroke-dasharray:none"
       d="m 46.259042,52.229337 c 1.2459,2.320198 4.170345,2.784128 5.454873,2.620056 2.045513,-0.261272 2.405299,-1.932829 1.846926,-2.834816 -0.558373,-0.901986 -2.19054,-1.632166 -3.951562,-1.632166 -1.761022,0 -3.741099,1.119036 -3.350237,1.846926 z"
       id="path10" /><path
       style="fill:none;stroke:#000000;stroke-width:0.1;stroke-linecap:round;stroke-linejoin:round;stroke-dasharray:none"
       d="m 53.648358,52.180906 c 0.96168,1.369636 2.575492,1.465838 3.649286,1.294031 1.073793,-0.171807 1.97578,-0.98789 2.104636,-2.491202 0.128855,-1.503311 -1.245601,-1.803974 -2.147588,-1.71807 -0.901987,0.0859 -4.723751,1.323803 -3.606334,2.915241 z"
       id="path11" /><path
       style="fill:none;stroke:#000000;stroke-width:0.1;stroke-linecap:round;stroke-linejoin:round;stroke-dasharray:none"
       d="m 59.118488,49.869961 c 1.093382,1.965444 3.301142,1.148174 2.860897,-0.990862 -0.149471,-0.726239 -0.644276,-1.288553 -1.116746,-1.245601 -0.472469,0.04295 -2.556293,0.776571 -1.744151,2.236463 z"
       id="path12" /><path
       style="fill:none;stroke:#000000;stroke-width:0.1;stroke-linecap:round;stroke-linejoin:round;stroke-dasharray:none"
       d="m 46.259042,52.229337 c -6.829329,-4.509935 -3.125058,-9.805652 -0.171807,-10.694988 3.181635,-0.958111 6.994584,-1.294671 12.198299,1.675118 2.559078,1.46048 3.657044,3.261648 3.181502,4.680399"
       id="path13" /><path
       style="fill:none;stroke:#000000;stroke-width:0.1;stroke-linecap:round;stroke-linejoin:round;stroke-dasharray:none"
       d="m 27.703232,56.0711 c -0.731392,-1.432756 -0.211698,-2.876328 1.631379,-3.202337 2.082424,-0.368345 5.86088,1.178218 6.193198,2.779387 0.332318,1.601168 0.483781,2.326453 -2.839808,2.296014 -3.323179,-0.03044 -4.344253,-0.61833 -4.984769,-1.873064 z"
       id="path14" /><path
       style="fill:none;stroke:#000000;stroke-width:0.1;stroke-linecap:round;stroke-linejoin:round;stroke-dasharray:none"
       d="m 27.392866,54.66153 c -2.499231,-0.977077 -2.801338,-0.735392 -3.043024,-0.25202 -0.241686,0.483372 0.392739,4.16908 1.661589,4.561819 1.268851,0.392739 2.356259,-1.066077 2.492296,-1.892521"
       id="path15" /><path
       style="fill:none;stroke:#000000;stroke-width:0.1;stroke-linecap:round;stroke-linejoin:round;stroke-dasharray:none"
       d="m 35.514528,55.591161 c -0.832619,-2.299448 0.647706,-2.541133 1.765502,-2.450501 1.117797,0.09063 5.126118,2.356767 5.166034,3.383601 0.0203,0.522107 -1.83233,1.305463 -4.078447,0.87611 -1.233562,-0.2358 -2.510327,-0.862603 -2.853089,-1.80921 z"
       id="path16" /><path
       style="fill:none;stroke:#000000;stroke-width:0.1;stroke-linecap:round;stroke-linejoin:round;stroke-dasharray:none"
       d="m 39.092674,59.907861 c -7.650578,-2.008202 -8.579845,0.664636 -8.700688,1.148008 -0.120843,0.483371 -0.302107,2.749175 5.226455,3.474233 5.528562,0.725057 7.673523,-0.362529 7.794366,-1.329272 0.120843,-0.966743 -1.490622,-2.55025 -4.320133,-3.292969 z"
       id="path17" /><path
       style="fill:none;stroke:#000000;stroke-width:0.1;stroke-linecap:round;stroke-linejoin:round;stroke-dasharray:none"
       d="m 26.067513,58.987522 c 2.373217,3.622421 5.114883,4.050027 5.142394,4.029394"
       id="path18" /><path
       style="fill:none;stroke:#000000;stroke-width:0.1;stroke-linecap:round;stroke-linejoin:round;stroke-dasharray:none"
       d="m 41.296994,64.555157 c 7.221425,-0.206319 7.492033,-6.434928 1.148426,-8.003286"
       id="path19" /><path
       style="fill:none;stroke:#000000;stroke-width:0.1;stroke-linecap:round;stroke-linejoin:round;stroke-dasharray:none"
       d="m 44.000505,64.118256 c 6.662875,-1.853958 7.569197,-5.086506 7.810883,-5.962617"
       id="path20" /><path
       style="fill:none;stroke:#000000;stroke-width:0.1;stroke-linecap:round;stroke-linejoin:round;stroke-dasharray:none"
       d="m 47.232072,62.927089 c 7.086806,-2.656699 9.231767,1.603013 15.545807,0.455005 9.919655,-1.803575 10.938506,-9.270044 11.177968,-11.057124 0.132418,-0.988224 0.180526,-2.918685 -1.178217,-2.960651 -1.221565,-0.03773 -1.442318,1.961955 -2.87002,3.715919 -1.968979,2.418934 -7.85139,1.865595 -9.631957,-2.161387"
       id="path21" /><path
       style="fill:none;stroke:#000000;stroke-width:0.1;stroke-linecap:round;stroke-linejoin:round;stroke-dasharray:none"
       d="m 61.229284,52.392442 c 3.119553,-2.363487 5.282725,0.09856 6.028888,2.054766"
       id="path22" /><path
       style="fill:none;stroke:#000000;stroke-width:0.1;stroke-linecap:round;stroke-linejoin:round;stroke-dasharray:none"
       d="m 67.258172,54.447208 c -1.821749,-4.267199 2.06142,-3.255418 3.261751,-2.235667"
       id="path23" /><path
       style="fill:none;stroke:#000000;stroke-width:0.1;stroke-linecap:round;stroke-linejoin:round;stroke-dasharray:none"
       d="m 70.519923,52.211541 c -2.787485,-2.998275 0.511673,-2.704222 1.324268,-2.337666"
       id="path24" /><path
       style="fill:none;stroke:#000000;stroke-width:0.1;stroke-linecap:round;stroke-linejoin:round;stroke-dasharray:none"
       d="m 32.224831,53.19639 c 1.018103,-4.671321 7.233983,-4.259219 8.916735,-3.36633"
       id="path25" /><path
       style="fill:none;stroke:#000000;stroke-width:0.1;stroke-linecap:round;stroke-linejoin:round;stroke-dasharray:none"
       d="m 6.9792076,35.675939 c 0.7555213,-3.401122 2.2244148,-3.841022 2.8769104,-3.669313 0.918575,0.24173 2.403931,0.927232 2.300906,3.983658 -0.103026,3.056427 -1.991829,3.949316 -3.2281367,3.983658 -1.2363074,0.03434 -2.4491376,-2.049598 -1.9496797,-4.298003 z"
       id="path26" /><path
       style="fill:none;stroke:#000000;stroke-width:0.1;stroke-linecap:round;stroke-linejoin:round;stroke-dasharray:none"
       d="m 7.847334,39.464775 c 3.428364,5.053185 8.378096,1.13646 15.608166,1.264688 7.211968,0.127907 13.805434,2.026171 14.973057,2.026171 1.167624,0 1.373675,-0.789863 1.373675,-0.789863"
       id="path27" /><path
       style="fill:none;stroke:#000000;stroke-width:0.1;stroke-linecap:round;stroke-linejoin:round;stroke-dasharray:none"
       d="m 8.5901589,32.383474 c 1.196881,-2.307055 0.7164891,-4.738265 2.3648991,-8.035085 1.64841,-3.29682 7.215225,-11.981721 22.219193,-12.363075 12.166161,-0.309226 21.644697,11.122145 22.173331,22.26889 0.263708,5.560531 1.402392,8.153545 1.402392,8.153545"
       id="path28" /><path
       style="fill:none;stroke:#000000;stroke-width:0.1;stroke-linecap:round;stroke-linejoin:round;stroke-dasharray:none"
       d="m 55.33993,34.104211 c 8.685473,1.402356 8.865118,3.422088 8.93239,4.241894 0.0468,0.570292 -1.795344,3.119177 -6.046874,4.829181"
       id="path29" /><path
       style="fill:none;stroke:#000000;stroke-width:0.1;stroke-linecap:round;stroke-linejoin:round;stroke-dasharray:none"
       d="m 58.225446,43.175286 c 7.496249,1.618058 6.52596,6.005382 3.003838,9.217156"
       id="path30" /><path
       style="fill:none;stroke:#000000;stroke-width:0.1;stroke-linecap:round;stroke-linejoin:round;stroke-dasharray:none"
       d="m 27.811548,12.52085 c -0.152506,-1.972619 2.664936,-4.6526257 5.10443,-5.6833975 2.439493,-1.0307717 3.944565,-1.7298414 5.944117,-1.3743623 1.186414,0.2109199 5.235527,2.9705147 5.641361,9.8688678 5.662769,-2.997056 9.373547,-2.000643 9.888933,-1.828848 0.515386,0.171795 1.761346,0.65361 2.233339,1.408721 0.479493,0.767109 1.050863,7.802784 -3.669016,10.214663"
       id="path31" /><path
       style="fill:none;stroke:#000000;stroke-width:0.1;stroke-linecap:round;stroke-linejoin:round;stroke-dasharray:none"
       d="m 52.954712,25.126494 c 5.661841,-2.65567 10.403391,1.36434 10.403391,2.979215 0,1.614876 -3.106336,5.650863 -8.018173,5.998502"
       id="path32" /><path
       style="fill:none;stroke:#000000;stroke-width:0.1;stroke-linecap:round;stroke-linejoin:round;stroke-dasharray:none"
       d="m 37.770251,42.677971 c -8.06946,3.930876 -17.225369,2.05393 -20.283265,1.097785 -2.226913,-0.696312 -3.817992,-0.903494 -4.604906,0.46632 -0.786914,1.369814 0.903494,2.564758 2.185873,3.001932 1.282379,0.437175 8.597769,2.564759 19.32312,0.64119"
       id="path33" /><path
       style="fill:none;stroke:#000000;stroke-width:0.1;stroke-linecap:round;stroke-linejoin:round;stroke-dasharray:none"
       d="m 20.000423,40.94336 c 0.371916,2.366077 2.295485,3.823325 3.519574,2.336932 1.007799,1.207219 2.994578,0.289367 3.651986,-2.3395"
       id="path34" /><path
       style="fill:none;stroke:#000000;stroke-width:0.1;stroke-linecap:round;stroke-linejoin:round;stroke-dasharray:none"
       d="m 18.072068,43.948121 c 0.930457,-1.134149 2.660577,-1.118253 2.660577,-1.118253"
       id="path35" /><path
       style="fill:none;stroke:#000000;stroke-width:0.1;stroke-linecap:round;stroke-linejoin:round;stroke-dasharray:none"
       d="m 26.251594,42.873342 c 4.190065,-0.09545 5.897224,1.670866 5.897224,1.670866"
       id="path36" /><path
       style="fill:none;stroke:#000000;stroke-width:0.1;stroke-linecap:round;stroke-linejoin:round;stroke-dasharray:none"
       d="m 33.380968,48.056177 c 2.059325,0.674225 2.293643,1.559713 2.293643,1.559713"
       id="path37" /><path
       style="fill:none;stroke:#000000;stroke-width:0.1;stroke-linecap:round;stroke-linejoin:round;stroke-dasharray:none"
       d="m 20.060311,48.316326 c -8.256595,3.474299 -7.573712,9.213131 -7.323956,10.235934 0.61205,2.506468 3.147709,4.010528 4.284312,4.575761 1.133007,0.563444 2.885353,0.932639 4.371746,0.87435 1.486394,-0.05829 4.692342,-0.87435 6.49933,-0.612045 1.806989,0.262305 3.256889,0.682997 4.29521,0.239491"
       id="path38" /><path
       style="fill:none;stroke:#000000;stroke-width:0.1;stroke-linecap:round;stroke-linejoin:round;stroke-dasharray:none"
       d="m 12.611209,57.500767 c -0.720058,-0.842931 -2.177307,-0.609771 -2.7893516,0.701753 -0.6120445,1.311524 0.3497396,1.894424 1.1075096,1.894424 0.757769,0 1.587816,-0.08693 2.017997,-0.888672"
       id="path39" /><path
       style="fill:none;stroke:#000000;stroke-width:0.1;stroke-linecap:round;stroke-linejoin:round;stroke-dasharray:none"
       d="M 10.086976,57.762451 C 9.9092923,56.832706 9.2972478,56.657836 8.4228985,56.890996 c -0.8743493,0.23316 -1.8361336,1.165799 -1.8361336,2.389888 0,1.224089 0.8743493,1.428104 1.5155388,1.107509 0.6411895,-0.320594 1.5332896,-1.277564 1.5332896,-1.277564"
       id="path40" /><path
       style="fill:none;stroke:#000000;stroke-width:0.1;stroke-linecap:round;stroke-linejoin:round;stroke-dasharray:none"
       d="m 8.739995,56.823077 c 2.713981,-2.525984 4.330922,-2.115363 4.330922,-2.115363"
       id="path41" /><path
       style="fill:none;stroke:#000000;stroke-width:0.1;stroke-linecap:round;stroke-linejoin:round;stroke-dasharray:none"
       d="m 14.695247,61.580063 c -0.927705,-0.759995 -3.153836,-0.521335 -3.70759,0.03242 -0.553755,0.553755 0.291449,1.224089 1.253234,1.428104 0.961784,0.204015 3.491514,0.438546 4.470812,-0.07218"
       id="path42" /><path
       style="fill:none;stroke:#000000;stroke-width:0.1;stroke-linecap:round;stroke-linejoin:round;stroke-dasharray:none"
       d="m 8.2592507,60.300763 c 0.1636478,1.399154 1.6565366,1.984582 2.9793853,2.318485"
       id="path43" /><path
       style="fill:none;stroke:#000000;stroke-width:0.1;stroke-linecap:round;stroke-linejoin:round;stroke-dasharray:none"
       d="m 14.980835,47.213365 c -3.886073,1.533005 -3.346774,5.093473 -1.090876,5.838786"
       id="path44" /><path
       style="fill:none;stroke:#000000;stroke-width:0.1;stroke-linecap:round;stroke-linejoin:round;stroke-dasharray:none"
       d="m 12.130296,50.710521 c -0.770847,0.991511 -0.837019,2.292885 -0.28559,2.469342 0.55143,0.176458 1.224586,-0.577728 1.224586,-0.577728"
       id="path45" /></g></svg>
