<?xml version="1.0" encoding="UTF-8" standalone="no"?>
<!-- Created with Inkscape (http://www.inkscape.org/) -->

<svg
   width="60"
   height="100"
   viewBox="0 0 60 100"
   version="1.1"
   id="svg1"
   xml:space="preserve"
   xmlns="http://www.w3.org/2000/svg"
   xmlns:svg="http://www.w3.org/2000/svg"><defs
     id="defs1" /><g
     id="layer3"><path
       style="fill:none;stroke:#000000;stroke-width:0.1;stroke-linecap:round;stroke-linejoin:round;stroke-dasharray:none"
       d="m 16.589743,54.864145 c -4.740673,16.186012 -2.096828,23.966475 2.711569,25.456401 4.808396,1.489925 8.289944,-2.800005 10.903547,-7.246458 2.442507,-4.155372 7.8767,-11.876335 12.884422,-12.503705 4.581841,-0.574015 5.604203,1.600157 6.213718,3.428703 0.609515,1.828545 -0.474067,5.824255 -4.198881,8.126868 -3.724815,2.302612 -6.751638,1.114957 -8.241564,0.776337"
       id="path1" /><path
       style="fill:none;stroke:#000000;stroke-width:0.1;stroke-linecap:round;stroke-linejoin:round;stroke-dasharray:none"
       d="m 16.338164,78.201056 c -2.898967,11.54582 3.688739,15.702104 5.875275,16.070613 3.400044,0.573028 6.664217,-10.334879 9.752242,-15.237878 4.61154,-7.321954 11.648511,-11.851682 12.528921,-12.190302 0.880411,-0.338619 1.286755,0.406344 0.135448,1.286755 -1.151306,0.88041 -3.007193,0.588634 -3.007193,0.588634"
       id="path2" /><path
       style="fill:none;stroke:#000000;stroke-width:0.1;stroke-linecap:round;stroke-linejoin:round;stroke-dasharray:none"
       d="M 42.668249,60.639422 C 39.76137,31.182023 29.684935,17.562601 27.497002,14.605934 c -2.187934,-2.956667 -4.839898,-3.715611 -5.735934,-2.897533 -2.274772,2.076861 0.295667,6.977734 0.650467,14.665067 0.3548,7.687334 -3.429734,17.799135 -3.961934,17.976535 -0.5322,0.1774 -5.1446,1.005267 -8.456067,5.262867 -3.3114669,4.2576 -3.9168667,8.718345 -2.7792669,9.9344 1.7148668,1.833134 9.3754759,-4.683125 9.3754759,-4.683125"
       id="path3" /><path
       style="fill:none;stroke:#000000;stroke-width:0.1;stroke-linecap:round;stroke-linejoin:round;stroke-dasharray:none"
       d="m 20.677803,29.652062 c 0.231295,-1.434031 3.099358,-4.579648 4.625907,-4.163316 1.526549,0.416332 2.683026,5.319793 5.088497,5.412311 2.405472,0.09252 5.319793,-3.376912 5.689866,-5.088497"
       id="path4" /><path
       style="fill:none;stroke:#000000;stroke-width:0.1;stroke-linecap:round;stroke-linejoin:round;stroke-dasharray:none"
       d="m 29.017868,30.284393 c -3.436604,0.755441 -3.575381,3.392208 -3.436604,4.918757 0.138777,1.526549 1.063959,3.654467 3.932021,3.793244 2.868062,0.138777 4.117057,-2.081658 4.163316,-4.070798 0.04626,-1.98914 -0.590237,-3.343488 -2.21487,-4.192863"
       id="path5" /><path
       style="fill:none;stroke:#000000;stroke-width:0.1;stroke-linecap:round;stroke-linejoin:round;stroke-dasharray:none"
       d="m 29.74458,32.612642 c 1.944217,0.05804 2.081658,1.572809 2.081658,2.220436 0,0.647627 -0.420675,2.172457 -2.544249,1.942881 -1.711585,-0.185037 -1.619067,-1.942881 -1.48029,-2.636767 0.138778,-0.693886 0.78692,-1.561057 1.942881,-1.52655 z"
       id="path6" /><path
       style="fill:none;stroke:#000000;stroke-width:0.1;stroke-linecap:round;stroke-linejoin:round;stroke-dasharray:none"
       d="m 24.841119,47.60058 c 0.09698,4.63067 4.830947,3.752557 6.383751,3.515689 2.729286,-0.416331 4.089261,-2.800042 3.97828,-5.319793 -0.06786,-1.540822 -0.74271,-2.904304 -1.361866,-3.49433 -0.835768,-0.796447 -1.910263,-1.271854 -3.032745,-1.270353 -1.708331,0.0023 -6.055565,2.359881 -5.96742,6.568787 z"
       id="path7" /><path
       style="fill:none;stroke:#000000;stroke-width:0.1;stroke-linecap:round;stroke-linejoin:round;stroke-dasharray:none"
       d="m 31.039834,43.899855 c -2.080991,-0.05268 -3.006839,1.665326 -2.96058,2.868062 0.04626,1.202736 1.248995,2.035399 2.359212,1.98914 1.110218,-0.04626 2.729285,-1.387772 2.775544,-2.544249 0.04626,-1.156476 -0.599154,-2.273079 -2.174176,-2.312953 z"
       id="path8" /><path
       style="fill:none;stroke:#000000;stroke-width:0.1;stroke-linecap:round;stroke-linejoin:round;stroke-dasharray:none"
       d="m 31.687461,54.215627 c -5.82815,-0.140262 -7.352213,5.831186 -7.262673,6.985119 0.08661,1.11613 0.246926,4.084813 5.366051,4.533389 4.989567,0.437223 6.522529,-3.284394 6.615047,-5.643607 0.123382,-3.146257 -1.475946,-5.796867 -4.718425,-5.874901 z"
       id="path9" /><path
       style="fill:none;stroke:#000000;stroke-width:0.1;stroke-linecap:round;stroke-linejoin:round;stroke-dasharray:none"
       d="m 27.570404,60.414342 c 1e-6,1.573488 1.896622,2.127917 3.006839,2.081658 1.110218,-0.04626 2.868063,-1.341513 2.729285,-3.006839 -0.138777,-1.665327 -2.021371,-1.965013 -3.330652,-1.619068 -1.439866,0.380448 -2.405472,1.433068 -2.405472,2.544249 z"
       id="path10" /><path
       style="fill:none;stroke:#000000;stroke-width:0.1;stroke-linecap:round;stroke-linejoin:round;stroke-dasharray:none"
       d="m 44.882172,24.788834 c -3.130331,0.71913 -3.468745,-2.030485 -3.214934,-3.088029 0.253811,-1.057544 1.184449,-3.468745 2.538106,-3.172632 1.353656,0.296112 2.326597,0.97294 2.538106,4.780099 0.211508,3.807159 -2.113756,14.117757 -7.254087,18.564958"
       id="path11" /><path
       style="fill:none;stroke:#000000;stroke-width:0.1;stroke-linecap:round;stroke-linejoin:round;stroke-dasharray:none"
       d="m 41.87187,21.012421 c -0.715862,-1.127458 -2.261878,-0.541039 -2.315188,1.16491 -0.05331,1.705948 0.852974,2.39899 0.852974,2.39899 -0.812842,3.014755 -3.653101,4.228756 -4.206813,6.608904"
       id="path12" /><path
       style="fill:none;stroke:#000000;stroke-width:0.1;stroke-linecap:round;stroke-linejoin:round;stroke-dasharray:none"
       d="M 50.80528,6.6638614 C 52.564539,4.8512911 53.097877,5.3848018 53.311121,5.7046672 53.524365,6.0245325 52.937715,7.4635248 52.297985,8.1032555 51.018523,8.2098773 50.698658,7.5168357 50.80528,6.6638614 Z"
       id="path13" /><path
       style="fill:none;stroke:#000000;stroke-width:0.1;stroke-linecap:round;stroke-linejoin:round;stroke-dasharray:none"
       d="M 52.297985,8.1032555 C 53.552812,9.7720346 53.39811,10.133006 52.98557,10.390844 52.57303,10.648681 51.598576,10.538363 50.097792,9.153225 48.394893,7.5815465 48.344499,6.1880958 49.014876,5.8529073 49.685253,5.5177188 50.80528,6.6638614 50.80528,6.6638614"
       id="path14" /><path
       style="fill:none;stroke:#000000;stroke-width:0.1;stroke-linecap:round;stroke-linejoin:round;stroke-dasharray:none"
       d="m 51.461167,10.168577 c 0.905593,2.001345 0.87981,2.413884 0.441486,2.671722 -0.438323,0.257837 -1.52124,0.593026 -3.609722,-1.572808 -2.088483,-2.1658335 -1.675943,-3.66129 -1.082917,-3.8675598 0.593026,-0.2062699 1.725065,0.3187181 1.725065,0.3187181"
       id="path15" /><path
       style="fill:none;stroke:#000000;stroke-width:0.1;stroke-linecap:round;stroke-linejoin:round;stroke-dasharray:none"
       d="m 50.322609,12.823671 c 0.832316,2.079326 0.213506,2.672352 -0.534222,2.698136 -0.747728,0.02578 -2.088482,-0.283621 -3.86756,-2.243185 -1.779077,-1.959564 -1.392321,-3.9191272 -0.953998,-4.125397 0.438324,-0.2062699 1.06602,-0.4557226 2.002683,0.2362459"
       id="path16" /><path
       style="fill:none;stroke:#000000;stroke-width:0.1;stroke-linecap:round;stroke-linejoin:round;stroke-dasharray:none"
       d="m 47.563412,14.747302 c 0.05914,2.450447 -1.212308,3.890641 -1.814202,4.640217"
       id="path17" /><path
       style="fill:none;stroke:#000000;stroke-width:0.1;stroke-linecap:round;stroke-linejoin:round;stroke-dasharray:none"
       d="M 44.909846,11.721125 C 39.191273,14.103702 39.764233,18.394333 40.41886,20.5549"
       id="path18" /><path
       style="fill:none;stroke:#000000;stroke-width:0.1;stroke-linecap:round;stroke-linejoin:round;stroke-dasharray:none"
       d="m 40.148077,16.724317 c -3.560961,2.793968 -3.921933,4.753532 -3.586745,4.985586 0.335189,0.232053 3.466914,-0.850875 3.466914,-0.850875"
       id="path19" /><path
       style="fill:none;stroke:#000000;stroke-width:0.1;stroke-linecap:round;stroke-linejoin:round;stroke-dasharray:none"
       d="m 49.428996,8.4476421 c -2.035257,0.3794331 0.631778,3.4896289 1.586923,1.4473429"
       id="path20" /><path
       style="fill:none;stroke:#000000;stroke-width:0.1;stroke-linecap:round;stroke-linejoin:round;stroke-dasharray:none"
       d="m 47.728617,10.625269 c -2.163955,1.056717 0.794021,4.043469 1.816184,1.747128"
       id="path21" /></g></svg>
