<?xml version="1.0" encoding="UTF-8" standalone="no"?>
<!-- Created with Inkscape (http://www.inkscape.org/) -->

<svg
   width="200"
   height="200"
   viewBox="0 0 200 200.00001"
   version="1.1"
   id="svg1"
   xml:space="preserve"
   xmlns="http://www.w3.org/2000/svg"
   xmlns:svg="http://www.w3.org/2000/svg"><defs
     id="defs1" /><g
     id="g258"
     style="display:inline"><path
       style="fill:#000000;stroke:#000000;stroke-width:0.1;stroke-linecap:round;stroke-linejoin:round;stroke-opacity:1"
       d="m 70.449502,79.345956 0.06995,5.575477 2.936886,-1.852746 -0.134015,-3.441695 -2.872821,-0.281036"
       id="path83" /><path
       id="path261"
       style="fill:#000000;fill-opacity:1;stroke:#000000;stroke-width:0.1;stroke-linecap:round;stroke-linejoin:round;stroke-dasharray:none;stroke-opacity:1"
       d="m 113.92188,20.94336 c -0.0435,1.01925 -0.0874,2.038035 -0.11719,3.058594 -0.18401,5.853772 -0.51616,11.708395 -1.22656,17.521485 -0.33871,2.675236 -1.43164,8.023437 -1.43164,8.023437 -2.50245,-0.279286 -4.91574,-0.340409 -7.31446,-0.361328 0,0 -0.0809,-0.327711 -0.19336,-0.615234 -0.51495,-1.463975 -1.07906,-2.954612 -1.64843,-4.398438 -0.43939,-0.02421 -0.85937,-0.04773 -1.28516,-0.177734 -2.39291,-0.495406 -4.554281,-1.69748 -6.677734,-2.855469 -1.937407,-1.06753 -3.780059,-2.29349 -5.685547,-3.41211 -0.06502,-0.02788 -0.341797,-0.238281 -0.341797,-0.238281 0,0 0.173922,0.6208 0.169922,0.824219 1.502667,6.094276 3.422111,12.119238 6.185547,17.767579 0.66423,1.387694 1.463441,2.702488 2.220703,4.039062 -0.214099,0.561469 -0.58444,0.960931 -0.886719,1.470703 -0.240272,5.330987 -0.431263,10.746714 -0.761718,16.066407 -0.03546,1.218783 -0.222347,2.36847 -0.330078,3.59375 -0.106035,1.006027 -0.144122,2.025119 -0.292969,3.023438 -0.195305,0.801827 -0.448967,1.728661 -0.605469,2.300781 -1.133636,0.267739 -2.37518,0.604241 -3.505859,0.886719 -6.582597,1.694533 -13.201052,3.25878 -19.875001,4.548828 -2.5577,0.506083 -7.142578,1.199219 -7.142578,1.199219 0,0 0.307034,0.198597 0.433593,0.224609 0.635515,0.266214 1.260926,0.559648 1.902344,0.808594 0.998247,0.24593 1.99682,0.489189 2.994141,0.738281 0.02944,1.204885 -0.01164,2.411837 -0.01367,3.617188 -0.01145,1.207237 0.01811,2.488101 0.0039,3.695311 0,0 0.248389,-0.0362 0.388672,-0.0312 3.299989,-0.57407 6.655768,-1.17988 9.955079,-1.75781 0.0041,-0.25271 0.0077,-0.26886 0.03711,-0.41992 0.04515,-2.196978 0.06794,-4.40427 0.125,-6.595706 0.918193,-0.244629 1.886718,-0.425474 2.794922,-0.705079 0.0816,-0.207363 0.101991,-0.322756 0.175781,-0.480468 0.135446,-0.375537 0.321999,-0.796948 0.71875,-0.955078 0.318458,-0.112886 0.563629,0.19723 0.664063,0.453125 0.101101,0.173719 0.153976,0.333245 0.208984,0.542968 0.34301,-0.02447 0.729073,-0.13094 1.070313,-0.189453 0.353556,-0.08956 0.71923,-0.138593 1.058593,-0.261719 0.150562,-0.348919 0.312194,-0.719183 0.623047,-0.966796 0.196761,-0.181506 0.562017,-0.321954 0.765625,-0.07617 0.189348,0.19674 0.29139,0.492592 0.400391,0.732422 0.219284,-0.03443 0.310463,-0.04727 0.472656,-0.03906 0.813086,-0.136615 1.635353,-0.240383 2.44336,-0.394531 0.78238,-0.371087 1.58073,-0.718389 2.353515,-1.103516 -0.103661,0.40484 -0.07843,5.069356 -0.30664,8.978516 -0.05756,0.756982 -0.170999,1.907025 -0.226563,2.664055 0.168202,-0.29295 0.326026,-0.58776 0.421875,-0.71289 1.543313,-2.656717 3.059942,-5.338507 4.607422,-7.988275 1.904194,1.275171 3.504264,2.964143 4.843754,4.814454 1.01163,1.391779 1.77722,2.954401 2.21289,4.621091 0.93688,3.42628 1.30939,7.20302 1.48047,10.73633 -0.15436,0.1362 -0.28574,0.18172 -0.43945,0.36328 -0.26086,0.25382 -0.58338,0.46136 -0.80079,0.74804 -0.17283,6.62987 -0.2847,13.26209 -0.42968,19.89258 -0.12829,6.29015 -0.25692,12.5809 -0.37891,18.8711 -4.54286,-2.11921 -9.048679,-4.31749 -13.572268,-6.47852 -1.325663,-1.59632 -2.652946,-3.19266 -3.978516,-4.78906 0.1112,-3.35611 0.222883,-6.71224 0.333984,-10.06836 -0.365533,-0.41334 -0.868107,-0.7233 -1.285156,-1.09766 -13.405989,-10.93507 -16.077393,-13.12737 -16.132813,-13.16992 -0.240418,-0.0177 -0.490719,0.0566 -0.734375,0.0742 -0.431702,0.0492 -0.866189,0.1255 -1.294922,0.15234 -3.070326,-1.46424 -6.118517,-2.9809 -9.175781,-4.47461 -1.36195,-0.66589 -2.720799,-1.33682 -4.085938,-1.99609 -0.05445,-0.011 -0.1875,-0.0625 -0.1875,-0.0625 0,0 0.1869,0.43759 0.234375,0.60547 2.270871,5.15447 4.57491,10.29533 6.833985,15.45508 -0.74461,0.33655 -1.536961,0.5845 -2.230469,1.03125 -0.104438,0.0301 -0.244141,0.17187 -0.244141,0.17187 0,0 1.546375,0.53127 2.234375,0.76758 -0.06226,1.74925 -0.182544,3.49841 -0.277343,5.24805 -0.0049,0.57053 -0.03817,0.75094 -0.03516,1.29687 0.149912,6.6491 0.369158,13.54799 0.513672,20.19727 -0.841055,0.70577 -1.702854,1.38742 -2.554687,2.08008 -1.691289,-0.0154 -4.326576,0.13977 -6.391945,0.28574 -1.87882,0.48944 -3.162541,0.891 -3.162541,0.891 l 0.01933,1.48147 -10.933594,8.56445 c -0.305092,0.14169 -0.654284,0.15873 -0.96875,0.2793 -0.540991,0.17734 -1.090236,0.39526 -1.509766,0.79297 -0.231348,0.10622 -0.491865,0.14781 -0.716796,0.27539 -0.856988,0.39159 -1.488186,1.12547 -2.058594,1.85156 -0.404713,0.52501 -0.729172,1.11285 -0.996094,1.71485 -0.441423,0.25498 -0.910524,0.46498 -1.337891,0.7461 -2.495118,1.46558 -3.916079,3.71897 -5.77539,5.78319 -1.524763,1.59696 -3.122248,1.15212 -4.953126,2.40236 -0.851267,0.59184 -1.816058,0.98285 -2.824218,1.19726 -0.442342,0.11133 -0.894421,0.19903 -1.345497,0.29214 -0.863503,0.17824 -1.723326,0.37628 -2.504113,0.79771 -0.510526,0.25039 -0.893392,0.69379 -1.320312,1.04296 -0.625021,0.3555 -1.316002,0.5679 -1.9941414,0.79883 -2.7709881,0.7874 -7.7438765,2.99845 -9.2265629,3.27735 -6.96e-5,2.96831 0,9.51953 0,9.51953 54.2097743,0.0321 166.5039093,0 166.5039093,0 0,0 -0.0804,-0.30158 -0.10157,-0.44922 -0.75017,-2.23874 -1.90847,-4.31154 -3.09375,-6.34375 -0.55166,-0.91616 -1.10489,-1.83946 -1.71289,-2.71484 -0.014,-0.003 -0.0288,-0.003 -0.043,-0.006 0.0276,-0.10331 -0.13467,-0.25532 -0.17968,-0.35157 -1.20013,-1.84714 -2.51627,-3.61688 -3.91211,-5.32031 -1.14238,-1.52685 -1.76376,-3.22751 -2.30664,-5.03906 0.13229,-0.17148 0.23995,-0.29301 0.30859,-0.37891 0.4602,-0.70537 0.81562,-1.48354 0.96484,-2.3164 0.24379,-1.12904 1.1121,-1.96877 1.88477,-2.76563 0.52864,-0.56123 1.16931,-1.1272 1.2793,-1.93555 0.0954,-0.57568 0.10916,-1.19202 -0.14844,-1.73047 -0.17685,-0.52077 -0.46974,-1.01898 -0.50977,-1.57617 0.0117,-0.44413 0.47768,-0.63234 0.81836,-0.78711 0.60338,-0.22184 1.20117,-0.50593 1.68164,-0.94726 0.52518,-0.47732 1.05641,-0.97036 1.44532,-1.56836 0.3652,-0.83608 0.44995,-1.75912 0.57226,-2.6543 0.11352,-1.07751 0.21522,-2.16184 0.18555,-3.24609 -0.0234,-0.42357 -0.35698,-0.77653 -0.76758,-0.85742 -0.58524,-0.14646 -1.21694,0.1739 -1.56445,0.64257 -0.22648,0.29571 -0.28412,0.74416 -0.0195,1.03711 0.19676,0.29431 0.54928,0.49145 0.65625,0.83985 0.0259,0.39607 -0.34557,0.65406 -0.61328,0.88476 -0.42941,0.31506 -0.87479,0.64661 -1.40235,0.76758 -0.32006,0.003 -0.51692,-0.29502 -0.74023,-0.48047 -0.53619,-0.56075 -1.07448,-1.13053 -1.51367,-1.77148 -0.17544,-0.56469 -0.0964,-1.17421 -0.0567,-1.75391 0.0778,-0.56736 0.12856,-1.17702 0.41797,-1.67578 0.58867,-0.79904 1.61699,-1.11451 2.21485,-1.90625 0.56122,-0.52125 1.28095,-0.82871 1.94531,-1.19336 0.73706,-0.40877 1.53062,-0.74082 2.18359,-1.2832 0.71548,-0.69426 1.23797,-1.56003 1.72266,-2.42383 0.18961,-0.38893 0.43135,-0.77426 0.50391,-1.20508 -0.003,-0.0656 -0.0642,-0.11614 -0.12891,-0.10742 -0.46405,0.16413 -0.85836,0.485 -1.24805,0.7793 -0.4947,0.37132 -0.91684,0.8236 -1.36328,1.24804 -0.34235,0.32326 -0.79254,0.50258 -1.25781,0.54493 -0.58804,0.18057 -1.10235,0.54152 -1.66602,0.7832 -0.39904,0.20734 -0.82647,0.29917 -1.25781,0.40039 -0.61229,0.17863 -0.88902,0.81614 -1.11914,1.35156 -0.15987,0.45138 -0.60902,0.69509 -0.94922,0.99024 -0.41788,0.35434 -0.92015,0.60316 -1.31445,0.98437 -0.37167,0.57268 -0.45402,1.27424 -0.58008,1.93164 -0.0875,0.669 -0.23325,1.34009 -0.20508,2.01758 0.12714,0.85561 0.68798,1.56091 1.18555,2.23828 0.30079,0.39231 0.64864,0.78258 0.72266,1.29102 0.0913,0.48879 0.18178,1.03444 -0.0352,1.50976 -0.17538,0.22125 -0.36421,0.4466 -0.41211,0.73633 -0.15583,0.5936 -0.0838,1.21493 -0.22461,1.80664 -0.22256,0.49629 -0.67689,0.84602 -0.92187,1.33203 -0.2479,0.37094 -0.0501,0.81986 0.0469,1.20508 0.14372,0.55288 0.40372,1.07529 0.47461,1.64258 0.0391,0.15266 -0.0749,0.26708 -0.2207,0.28125 -0.80251,0.18199 -1.45533,0.72068 -1.99805,1.31445 -0.17467,0.20027 -0.37868,0.39126 -0.52149,0.61524 -0.0513,-0.47016 -0.07,-0.9451 -0.0644,-1.41993 -0.0178,-0.7242 0.0562,-1.45378 -0.0137,-2.17578 -0.0937,-0.5747 -0.60289,-0.99434 -1.1543,-1.11133 -0.66146,-0.19079 -1.38364,-0.11391 -2.00976,-0.43359 -2.46614,-1.06171 -4.85991,-2.28307 -7.27539,-3.45312 -0.55254,-0.28197 -1.17029,-0.50188 -1.70313,-0.81641 0.82195,-8.0698 0.26248,-2.03047 1.77149,-16.56445 0.87195,0.0359 1.93028,0.0727 2.86718,-0.1211 1.8093,-0.33669 3.6092,-1.16665 5.01758,-2.35937 -0.16968,-0.15749 -0.23149,-0.19911 -0.31055,-0.32813 -1.63278,-1.73195 -2.71073,-3.9021 -3.62695,-6.07422 -0.66668,-1.60663 -1.22604,-3.25926 -1.70117,-4.92968 0.5913,-4.00685 1.17286,-8.01679 1.77539,-12.02149 2.27554,-0.24768 4.45107,-1.24547 6.17969,-2.73633 0.43373,-0.41427 0.939,-0.90642 1.3164,-1.37304 -0.14883,-0.18724 -0.23624,-0.29854 -0.33203,-0.47657 -1.45112,-1.93269 -4.69418,-7.15149 -6.93359,-11.03906 0.44557,-3.20315 1.04386,-6.36123 1.5332,-9.564458 0.65235,-4.117023 1.25131,-8.281077 1.9375,-12.384766 0.63014,-0.277039 1.45184,-0.430111 1.75,-1.132812 0.39101,-1.009607 0.0599,-2.115123 -0.13672,-3.130859 -0.91426,-3.715038 -2.1575,-7.339101 -3.3164,-10.982423 -0.72629,-2.235252 -1.70713,-5.17821 -2.44336,-7.410156 0.0485,0.610451 0.12205,1.197349 0.0898,1.390625 0.0596,2.020812 0.0684,4.050958 -0.0566,6.066406 -0.33931,3.55957 -1.07808,7.185222 -3.00391,10.253907 -0.36894,0.540448 -0.741,1.113583 -1.24609,1.53125 -0.94921,-0.328148 -1.8824,-0.7031 -2.82226,-1.056641 -2.70062,-7.005128 -5.48655,-14.183715 -8.18555,-21.189453 -0.1554,0.279263 -0.30658,0.681015 -0.50586,0.867187 -3.56614,6.172306 -7.72842,11.996322 -12.29102,17.472657 -0.34776,0.411434 -0.70153,0.838589 -1.04492,1.240234 0.53924,-7.344732 1.08191,-14.689829 1.61914,-22.035157 0.63608,-1.424947 1.2906,-2.905674 1.89844,-4.310547 0,0 -0.024,-0.299201 -0.0684,-0.404296 -2.3486,-9.882573 -4.62003,-19.783435 -6.91016,-29.679689 -0.0941,-0.325064 -0.11884,-0.68142 -0.25781,-0.986328 -0.0482,-0.195269 -0.12695,-0.535156 -0.12695,-0.535156 z m 2.08789,32.748048 c 0.0824,-6.21e-4 0.16544,0.0205 0.25195,0.06641 1.38421,0.734478 0.22656,5.623047 0.22656,5.623047 l -2.48632,-0.763672 c 0,0 0.77105,-4.916471 2.00781,-4.925781 z m -8.78711,13.173828 c 1.80795,0.08475 0.70703,6.244141 0.70703,6.244141 l -2.48633,-0.197266 c 0,0 -0.0286,-6.131623 1.7793,-6.046875 z m 22.75586,5.074219 c 0.0408,-0.0016 0.0839,0.0019 0.12695,0.01172 1.65813,0.377138 0.86255,5.924796 0.81836,6.101562 l -2.42969,-0.677734 c 0.006,-0.03424 0.21842,-5.38599 1.48438,-5.435548 z m 3.76367,1.160156 c 0.0478,-0.0025 0.0971,7.25e-4 0.14844,0.0098 1.3088,0.230436 0.53051,6.011084 0.62109,6.328125 l -2.0625,-0.820313 c 0,0 -0.18902,-5.440523 1.29297,-5.517578 z M 131.125,116.22852 c 0.0549,-0.001 0.11079,0.006 0.16797,0.0195 0.47631,0.11 0.6605,0.78513 0.70899,1.66406 0.0159,0.0372 0.0319,0.075 0.0605,0.0957 -0.0486,0.0447 -0.0495,0.11394 -0.0527,0.18164 0.0446,2.21288 -0.70795,5.52745 -0.64063,5.66211 l -2.53515,-0.8711 c 0,0 0.25382,-2.80186 0.89062,-4.79687 0.0109,-0.0549 0.0263,-0.11179 0,-0.1543 0.0926,-0.088 0.13753,-0.21713 0.1836,-0.3457 0.32149,-0.82686 0.71608,-1.44463 1.21679,-1.45508 z m 3.92774,0.8125 c 0.10202,-0.004 0.21091,0.02 0.32617,0.0762 0.22056,0.10745 0.36873,0.38071 0.4707,0.74609 0.0201,0.0486 0.0398,0.10175 0.0625,0.14649 -0.0182,0.0279 0.003,0.0741 0.004,0.11133 0.4312,2.24387 -0.57617,7.28125 -0.57617,7.28125 l -2.26953,-0.98438 c 0.3146,-2.29904 0.57391,-4.90919 1.10156,-6.32422 -0.0197,-0.0524 -0.0702,-0.0643 -0.11719,-0.0801 0.0494,-0.009 0.10063,-0.0125 0.14844,-0.0273 0.006,-0.0135 0.0176,-0.0291 0.0234,-0.043 0.22223,-0.53914 0.48692,-0.88971 0.82617,-0.90234 z m 0.89453,29.53516 c 0.11184,5.1e-4 0.23163,0.0259 0.35937,0.0781 1.43907,0.58857 0.38659,5.98878 0.48633,6.33789 l -2.47265,-0.97461 c 0,0 -0.0507,-5.44914 1.62695,-5.4414 z" /><path
       style="fill:#000000;fill-opacity:1;stroke:#000000;stroke-width:0.1;stroke-linecap:round;stroke-linejoin:round;stroke-dasharray:none;stroke-opacity:1"
       d="m 86.794414,41.425642 c -1.481193,5.283487 -3.759282,10.356349 -6.838213,14.905538 -1.674595,2.492228 -3.589238,4.822239 -5.712671,6.942884 -0.69682,0.720314 -2.187805,2.214988 -2.187805,2.214988 0.884388,0.792363 2.731711,2.02953 5.801294,2.246665 0.06323,2.172505 -0.04758,4.400956 0.05275,6.567425 0,0 0.234773,-0.368156 0.252332,-0.445486 2.339271,-4.739047 7.020418,-14.316308 7.020418,-14.316308 l -0.618604,0.0082 c 0.0015,-0.915542 -0.08912,-2.494285 0.212229,-4.113169 0.10556,-0.401965 0.311659,-0.881095 0.758744,-0.987534 0.339998,-0.08138 0.622887,0.210095 0.732707,0.502792 0.226374,0.488067 0.237577,1.03504 0.324937,1.554982 0.03023,0.1316 0.03851,0.293653 0.03851,0.293653 0,0 0.21303,-0.380862 0.245325,-0.447116 0.373514,-0.736414 0.813038,-1.448937 1.340133,-2.07978 0.625894,-0.76124 2.261823,-1.966606 2.261823,-1.966606 0,0 -0.130803,-0.313907 -0.172976,-0.483032 -1.490444,-3.453114 -2.635759,-7.074269 -3.147172,-10.80753 -0.0053,-0.08385 -0.0913,-0.453723 -0.0913,-0.453723 0,0 -0.183532,0.659634 -0.272458,0.863109 z"
       id="path283" /><path
       id="path280"
       style="fill:#000000;fill-opacity:1;stroke:#000000;stroke-width:0.1;stroke-linecap:round;stroke-linejoin:round;stroke-dasharray:none;stroke-opacity:1"
       d="m 45.711572,129.44408 c 0,0 0.227939,0.11055 0.34116,0.19067 0.81513,0.35412 2.445313,1.06055 2.445313,1.06055 0.12806,2.50611 0.257747,5.03191 0.406727,7.54373 1.706465,-2.89294 5.742233,-9.83849 5.742233,-9.83849 0.544392,-0.8446 0.617427,-0.96568 2.010706,-3.44505 0,0 -0.117228,-0.25368 -0.161643,-0.40875 -1.239543,-2.78245 -3.855324,-8.42858 -3.855324,-8.42858 z" /><path
       style="fill:none;stroke:#000000;stroke-width:0.1;stroke-linecap:round;stroke-linejoin:round"
       d="m 53.622101,111.12267 -1.549069,-0.062 -9.451203,17.32642 1.300946,0.65047 1.7888,0.40654 m 3.193197,8.79493 -0.361606,20.91431"
       id="path131" /><path
       style="fill:none;stroke:#000000;stroke-width:0.1;stroke-linecap:round;stroke-linejoin:round"
       d="m 38.548286,168.51838 0.03082,-9.24719"
       id="path132" /><path
       style="fill:none;stroke:#000000;stroke-width:0.1;stroke-linecap:round;stroke-linejoin:round"
       d="m 38.57352,160.94723 10.095974,-9.10035"
       id="path133" /><path
       style="fill:none;stroke:#000000;stroke-width:0.1;stroke-linecap:round;stroke-linejoin:round"
       d="m 40.493629,159.22253 0.04131,7.72072"
       id="path134" /><path
       style="fill:none;stroke:#000000;stroke-width:0.1;stroke-linecap:round;stroke-linejoin:round"
       d="m 42.474456,157.44328 -0.06052,8.01019"
       id="path135" /><path
       style="fill:none;stroke:#000000;stroke-width:0.1;stroke-linecap:round;stroke-linejoin:round"
       d="m 44.477685,155.64392 -0.03391,8.20018"
       id="path136" /><path
       style="fill:none;stroke:#000000;stroke-width:0.1;stroke-linecap:round;stroke-linejoin:round"
       d="m 46.460455,153.86293 0.07977,8.31899"
       id="path137" /><path
       style="fill:none;stroke:#000000;stroke-width:0.0999998;stroke-linecap:round;stroke-linejoin:round"
       d="m 38.579106,159.27119 c -1.604464,-0.89235 -1.431558,-2.05095 -0.395854,-2.40032 -0.204445,-0.57245 0.22489,-1.16534 0.776893,-1.12445 0.552002,0.0409 0.981337,0.53155 0.511113,1.04267 1.12445,0.16355 0.934819,1.85663 -0.892152,2.4821"
       id="path138" /><path
       style="fill:none;stroke:#000000;stroke-width:0.1;stroke-linecap:round;stroke-linejoin:round"
       d="m 105.78513,113.15898 c 0,0 -3.47735,-4.34669 -10.214731,-4.12935 -6.737379,0.21733 -9.253033,2.93522 -9.253033,2.93522 l 5.889093,-10.25699"
       id="path139" /><path
       style="fill:none;stroke:#000000;stroke-width:0.1;stroke-linecap:round;stroke-linejoin:round"
       d="m 104.55357,114.24566 c 0,-0.0887 -4.45436,-3.90996 -8.983171,-3.62225 -6.95182,0.44164 -8.481196,3.28749 -8.481196,3.28749 l -0.771837,-1.94605"
       id="path140" /><path
       style="fill:none;stroke:#000000;stroke-width:0.1;stroke-linecap:round;stroke-linejoin:round"
       d="m 87.089203,113.9109 -0.592491,17.74974 m 3.659433,14.91287 1.185617,-35.25869"
       id="path141" /><path
       style="fill:none;stroke:#000000;stroke-width:0.1;stroke-linecap:round;stroke-linejoin:round"
       d="m 88.001185,124.8547 c 0.05882,-4.91183 0.230535,-5.74458 0.794129,-6.26479 1.363721,-1.25873 1.018637,5.41389 0.970602,5.47066 z"
       id="path143" /><path
       style="fill:none;stroke:#000000;stroke-width:0.1;stroke-linecap:round;stroke-linejoin:round"
       d="m 86.529762,130.67053 4.241939,-2.40285 13.491639,0.13063"
       id="path144" /><path
       style="fill:none;stroke:#000000;stroke-width:0.1;stroke-linecap:round;stroke-linejoin:round"
       d="m 92.525086,122.6284 c 0.123742,-5.66739 0.328168,-6.50348 1.138427,-6.85531 1.131127,-0.49116 0.821134,6.52331 0.79195,6.55833 z"
       id="path145" /><path
       style="fill:none;stroke:#000000;stroke-width:0.1;stroke-linecap:round;stroke-linejoin:round"
       d="m 96.336342,122.00969 c -0.09899,-5.69213 0.470934,-6.22758 1.163176,-6.55833 1.166102,-0.55717 0.992612,6.28065 0.915692,6.33559 z"
       id="path146" /><path
       style="fill:none;stroke:#000000;stroke-width:0.1;stroke-linecap:round;stroke-linejoin:round"
       d="m 43.922775,129.03756 8.779932,-15.5838 6.506087,14.37535"
       id="path147" /><path
       style="fill:none;stroke:#000000;stroke-width:0.1;stroke-linecap:round;stroke-linejoin:round"
       d="m 56.659491,124.9594 1.557899,3.42738"
       id="path148" /><path
       style="fill:none;stroke:#000000;stroke-width:0.1;stroke-linecap:round;stroke-linejoin:round"
       d="m 48.904772,138.23903 11.233463,-2.54065"
       id="path149" /><path
       style="fill:none;stroke:#000000;stroke-width:0.1;stroke-linecap:round;stroke-linejoin:round"
       d="m 51.903881,137.56072 -0.198174,20.70162"
       id="path150" /><path
       style="fill:none;stroke:#000000;stroke-width:0.1;stroke-linecap:round;stroke-linejoin:round"
       d="M 58.093465,158.00496 58.078599,136.1642"
       id="path151" /><path
       style="fill:none;stroke:#000000;stroke-width:0.1;stroke-linecap:round;stroke-linejoin:round"
       d="m 51.86883,141.27242 6.212025,-1.7938"
       id="path152" /><path
       style="fill:none;stroke:#000000;stroke-width:0.1;stroke-linecap:round;stroke-linejoin:round"
       d="m 54.647005,128.40054 3.05898,-1.13885"
       id="path153" /><path
       style="fill:none;stroke:#000000;stroke-width:0.1;stroke-linecap:round;stroke-linejoin:round"
       d="m 70.657065,118.73325 16.338161,-2.00702"
       id="path157" /><path
       style="fill:none;stroke:#000000;stroke-width:0.1;stroke-linecap:round;stroke-linejoin:round"
       d="m 72.805922,120.48632 14.122187,-1.74941"
       id="path158" /><path
       style="fill:none;stroke:#000000;stroke-width:0.1;stroke-linecap:round;stroke-linejoin:round"
       d="m 84.016504,119.09759 -0.03667,10.50457"
       id="path159" /><path
       style="fill:none;stroke:#000000;stroke-width:0.1;stroke-linecap:round;stroke-linejoin:round"
       d="m 80.016003,119.59316 -0.02798,6.75242"
       id="path160" /><path
       style="fill:none;stroke:#000000;stroke-width:0.1;stroke-linecap:round;stroke-linejoin:round"
       d="m 76.374603,120.04424 -0.07937,3.28871"
       id="path161" /><path
       style="fill:none;stroke:#000000;stroke-width:0.1;stroke-linecap:round;stroke-linejoin:round"
       d="m 80.008046,121.51339 4.001234,-0.3463"
       id="path162" /><path
       style="fill:none;stroke:#000000;stroke-width:0.1;stroke-linecap:round;stroke-linejoin:round"
       d="m 52.748925,111.08772 0.0013,-3.60847"
       id="path163" /><path
       style="fill:none;stroke:#000000;stroke-width:0.1;stroke-linecap:round;stroke-linejoin:round"
       d="m 52.74967,109.02052 11.706351,5.63475 -0.0147,1.77857"
       id="path164" /><path
       style="fill:none;stroke:#000000;stroke-width:0.1;stroke-linecap:round;stroke-linejoin:round"
       d="m 54.561087,109.89243 0.02476,1.70331"
       id="path165" /><path
       style="fill:none;stroke:#000000;stroke-width:0.1;stroke-linecap:round;stroke-linejoin:round"
       d="m 56.511957,110.83146 0.07553,1.74689"
       id="path166" /><path
       style="fill:none;stroke:#000000;stroke-width:0.1;stroke-linecap:round;stroke-linejoin:round"
       d="m 58.488223,111.78272 0.03421,1.74551"
       id="path167" /><path
       style="fill:none;stroke:#000000;stroke-width:0.1;stroke-linecap:round;stroke-linejoin:round"
       d="m 60.431044,112.71788 0.0022,1.74837"
       id="path168" /><path
       style="fill:none;stroke:#000000;stroke-width:0.1;stroke-linecap:round;stroke-linejoin:round"
       d="m 62.515071,113.72101 0.02694,1.78044"
       id="path169" /><path
       style="fill:none;stroke:#000000;stroke-width:0.1;stroke-linecap:round;stroke-linejoin:round"
       d="m 72.055725,65.489052 -1.486353,-1.155455 c 4.721023,-4.417033 13.44225,-15.125583 15.719721,-26.844615 h 1.711115 m 7.689956,24.101108 c 0.05798,0.07731 -2.741667,-3.730353 -5.201176,-9.259281"
       id="path170" /><path
       style="fill:none;stroke:#000000;stroke-width:0.1;stroke-linecap:round;stroke-linejoin:round"
       d="m 86.630779,56.794477 c 0.06036,1.337969 -0.08291,2.737452 -0.03584,2.728038 l -1.442009,0.01923"
       id="path171" /><path
       style="fill:none;stroke:#000000;stroke-width:0.1;stroke-linecap:round;stroke-linejoin:round"
       d="m 88.382238,59.387114 c -0.135401,-3.601681 4.91e-4,-4.461712 0.947811,-4.928616 1.57298,-0.775273 1.146595,4.887703 1.137373,4.901536 z"
       id="path172" /><path
       style="fill:none;stroke:#000000;stroke-width:0.1;stroke-linecap:round;stroke-linejoin:round"
       d="m 77.909542,74.274896 0.04783,5.954298 -4.509739,2.844986 m -2.913414,1.837939 -10.790229,6.807059"
       id="path173" /><path
       style="fill:none;stroke:#000000;stroke-width:0.1;stroke-linecap:round;stroke-linejoin:round"
       d="m 94.364464,84.142813 c 0,0 -28.900573,7.325491 -34.620478,7.576365"
       id="path174" /><path
       style="fill:none;stroke:#000000;stroke-width:0.1;stroke-linecap:round;stroke-linejoin:round"
       d="m 92.557002,98.12967 -13.737738,2.37746 m -10.323945,1.78666 -5.289285,0.91537 -7.017432,9.17338"
       id="path176" /><path
       style="fill:none;stroke:#000000;stroke-width:0.1;stroke-linecap:round;stroke-linejoin:round"
       d="m 63.175484,93.208558 -3.431498,-1.48938"
       id="path177" /><path
       style="fill:none;stroke:#000000;stroke-width:0.1;stroke-linecap:round;stroke-linejoin:round"
       d="m 65.451334,94.193081 -0.09513,8.657719"
       id="path178" /><path
       style="fill:none;stroke:#000000;stroke-width:0.1;stroke-linecap:round;stroke-linejoin:round"
       d="m 83.564993,92.343083 c 0.402877,1.699103 0.217415,4.854685 0.192424,4.904667 l -2.214441,0.337796 c 0,0 -0.179887,-2.964715 0.259571,-4.824708"
       id="path180" /><path
       style="fill:none;stroke:#000000;stroke-width:0.1;stroke-linecap:round;stroke-linejoin:round"
       d="m 87.482579,91.58396 c 0.44072,1.578186 0.283335,4.663936 0.17826,4.800533 l -2.289507,0.337796 c 0,-2.601073 0.08313,-3.997252 0.320878,-4.822633"
       id="path181" /><path
       style="fill:none;stroke:#000000;stroke-width:0.1;stroke-linecap:round;stroke-linejoin:round"
       d="m 68.475733,86.210721 0.03774,-6.427597 1.936029,-0.437168"
       id="path185" /><path
       style="fill:none;stroke:#000000;stroke-width:0.1;stroke-linecap:round;stroke-linejoin:round"
       d="m 72.069983,79.504481 0.03451,-2.000875"
       id="path187" /><path
       style="fill:none;stroke:#000000;stroke-width:0.1;stroke-linecap:round;stroke-linejoin:round"
       d="M 77.957368,80.229194 95.050554,76.54681"
       id="path188" /><path
       style="fill:none;stroke:#000000;stroke-width:0.1;stroke-linecap:round;stroke-linejoin:round"
       d="m 83.749312,62.471532 10.856,-2.469091"
       id="path191" /><path
       style="fill:none;stroke:#000000;stroke-width:0.1;stroke-linecap:round;stroke-linejoin:round"
       d="M 83.096166,63.805978 95.311069,61.046605"
       id="path192" /><path
       style="fill:none;stroke:#000000;stroke-width:0.1;stroke-linecap:round;stroke-linejoin:round"
       d="m 86.644977,62.982426 0.0077,15.373544"
       id="path193" /><path
       style="fill:none;stroke:#000000;stroke-width:0.1;stroke-linecap:round;stroke-linejoin:round"
       d="M 83.096166,63.805978 82.835482,79.178302"
       id="path194" /><path
       style="fill:none;stroke:#000000;stroke-width:0.1;stroke-linecap:round;stroke-linejoin:round"
       d="M 89.175853,62.417082 89.022331,77.84547"
       id="path195" /><path
       style="fill:none;stroke:#000000;stroke-width:0.1;stroke-linecap:round;stroke-linejoin:round"
       d="M 92.486406,61.677575 92.257477,77.148522"
       id="path196" /><path
       style="fill:none;stroke:#000000;stroke-width:0.1;stroke-linecap:round;stroke-linejoin:round"
       d="m 82.935036,73.307706 3.714532,-1.159914"
       id="path197" /><path
       style="fill:none;stroke:#000000;stroke-width:0.1;stroke-linecap:round;stroke-linejoin:round"
       d="M 89.082446,71.804094 92.348563,70.99296"
       id="path198" /><path
       style="fill:none;stroke:#000000;stroke-width:0.1;stroke-linecap:round;stroke-linejoin:round"
       d="m 83.048515,66.61594 3.597812,-0.937622"
       id="path199" /><path
       style="fill:none;stroke:#000000;stroke-width:0.1;stroke-linecap:round;stroke-linejoin:round"
       d="m 89.146813,65.335431 3.297495,-0.812894"
       id="path200" /><path
       style="fill:none;stroke:#000000;stroke-width:0.1;stroke-linecap:round;stroke-linejoin:round"
       d="M 113.92242,20.94365 102.18129,44.425922"
       id="path201" /><path
       style="fill:none;stroke:#000000;stroke-width:0.1;stroke-linecap:round;stroke-linejoin:round"
       d="m 113.92242,20.94365 0.12693,-7.298546"
       id="path202" /><path
       style="fill:none;stroke:#000000;stroke-width:0.1;stroke-linecap:round;stroke-linejoin:round"
       d="m 87.545179,37.488982 0.05061,-6.480088"
       id="path203" /><path
       style="fill:none;stroke:#000000;stroke-width:0.1;stroke-linecap:round;stroke-linejoin:round"
       d="m 101.99089,44.17206 -0.0103,-2.800618"
       id="path204" /><path
       style="fill:none;stroke:#000000;stroke-width:0.1;stroke-linecap:round;stroke-linejoin:round"
       d="m 87.571517,34.116643 c 9.087067,7.086736 10.496673,7.086496 14.413593,8.487139"
       id="path205" /><path
       style="fill:none;stroke:#000000;stroke-width:0.1;stroke-linecap:round;stroke-linejoin:round"
       d="m 89.482158,38.428043 0.03376,-4.843508"
       id="path206" /><path
       style="fill:none;stroke:#000000;stroke-width:0.1;stroke-linecap:round;stroke-linejoin:round"
       d="m 91.517514,39.687745 -0.01285,-4.730697"
       id="path207" /><path
       style="fill:none;stroke:#000000;stroke-width:0.1;stroke-linecap:round;stroke-linejoin:round"
       d="M 93.614194,40.928852 93.521414,36.32956"
       id="path208" /><path
       style="fill:none;stroke:#000000;stroke-width:0.1;stroke-linecap:round;stroke-linejoin:round"
       d="m 95.514981,41.97584 -0.06085,-4.189736"
       id="path209" /><path
       style="fill:none;stroke:#000000;stroke-width:0.1;stroke-linecap:round;stroke-linejoin:round"
       d="M 97.5027,42.94542 97.44288,38.990553"
       id="path210" /><path
       style="fill:none;stroke:#000000;stroke-width:0.1;stroke-linecap:round;stroke-linejoin:round"
       d="m 99.60172,43.745654 -0.0581,-3.452176"
       id="path211" /><path
       style="fill:none;stroke:#000000;stroke-width:0.1;stroke-linecap:round;stroke-linejoin:round"
       d="m 119.36547,56.869213 c 0,0 3.71897,-0.154957 14.87587,-2.789226 l 1.00723,-8.600112"
       id="path213" /><path
       style="fill:none;stroke:#000000;stroke-width:0.1;stroke-linecap:round;stroke-linejoin:round"
       d="m 134.58598,51.137315 c -8.68615,2.683523 -14.07715,3.158108 -14.07715,3.158108"
       id="path214" /><path
       style="fill:none;stroke:#000000;stroke-width:0.1;stroke-linecap:round;stroke-linejoin:round"
       d="m 132.3956,54.508933 0.063,-4.104411"
       id="path215" /><path
       style="fill:none;stroke:#000000;stroke-width:0.1;stroke-linecap:round;stroke-linejoin:round"
       d="m 130.27348,54.98361 0.11059,-3.930799"
       id="path216" /><path
       style="fill:none;stroke:#000000;stroke-width:0.1;stroke-linecap:round;stroke-linejoin:round"
       d="m 128.27969,55.408721 0.0947,-3.740035"
       id="path217" /><path
       style="fill:none;stroke:#000000;stroke-width:0.1;stroke-linecap:round;stroke-linejoin:round"
       d="m 126.45324,55.77712 0.0735,-3.816703"
       id="path218" /><path
       style="fill:none;stroke:#000000;stroke-width:0.1;stroke-linecap:round;stroke-linejoin:round"
       d="m 124.27104,56.184638 0.18118,-3.738004"
       id="path219" /><path
       style="fill:none;stroke:#000000;stroke-width:0.1;stroke-linecap:round;stroke-linejoin:round"
       d="m 122.32932,56.50783 0.14561,-3.769466"
       id="path220" /><path
       style="fill:none;stroke:#000000;stroke-width:0.1;stroke-linecap:round;stroke-linejoin:round"
       d="M 117.93277,76.312979 C 129.60186,61.129544 132.34088,54.648761 132.3956,54.508933"
       id="path221" /><path
       style="fill:none;stroke:#000000;stroke-width:0.1;stroke-linecap:round;stroke-linejoin:round"
       d="m 134.24134,54.079987 c 2.58622,13.111473 8.39289,27.524455 8.39289,27.524455"
       id="path222" /><path
       style="fill:none;stroke:#000000;stroke-width:0.1;stroke-linecap:round;stroke-linejoin:round"
       d="m 146.83369,62.318005 c -4.9253,6.169586 -8.20105,8.106566 -8.20105,8.106566"
       id="path223" /><path
       style="fill:none;stroke:#000000;stroke-width:0.1;stroke-linecap:round;stroke-linejoin:round"
       d="m 146.83369,62.318005 1.65905,-8.295243"
       id="path224" /><path
       style="fill:none;stroke:#000000;stroke-width:0.1;stroke-linecap:round;stroke-linejoin:round"
       d="m 161.48008,159.55902 c 0,0 -1.64378,-0.96783 -2.18029,-3.11981"
       id="path236" /><path
       style="fill:none;stroke:#000000;stroke-width:0.1;stroke-linecap:round;stroke-linejoin:round"
       d="m 166.67236,149.41566 c 1.67815,0.64612 2.82366,0.22409 3.7883,0.58583 0.96464,0.36174 2.65276,1.86899 4.09972,2.04986 1.44696,0.18087 5.78784,0.12058 6.6319,0.12058 0.84406,0 1.56754,0.30145 2.47189,-0.78377"
       id="path237" /><path
       style="fill:none;stroke:#000000;stroke-width:0.1;stroke-linecap:round;stroke-linejoin:round"
       d="m 167.88674,149.73666 c 1.79015,-1.72474 5.46784,-2.44822 7.75886,-2.32764"
       id="path238" /><path
       style="fill:none;stroke:#000000;stroke-width:0.1;stroke-linecap:round;stroke-linejoin:round"
       d="m 175.49807,152.12321 c 0.75043,-2.96578 1.17246,-3.62897 1.65478,-3.62897 0.48232,0 0.66319,0.18087 1.02493,-0.12058 0.36174,-0.30145 0.0603,-0.90435 0.54261,-0.96464 0.48232,-0.0603 1.50725,-0.66319 2.04986,-0.36174 0.54261,0.30145 1.2058,0.96464 2.17044,1.02493 0.96464,0.0603 2.89392,0.30145 4.16001,-1.02493"
       id="path239" /><path
       style="fill:none;stroke:#000000;stroke-width:0.1;stroke-linecap:round;stroke-linejoin:round"
       d="m 182.7145,148.0466 c 2.33634,-3.83295 5.89345,-4.07411 7.46099,-3.59179"
       id="path240" /><path
       style="fill:none;stroke:#000000;stroke-width:0.1;stroke-linecap:round;stroke-linejoin:round"
       d="m 163.56645,159.40213 c 1.89014,-1.02033 1.28724,-1.86439 2.1313,-2.28642 0.84406,-0.42203 2.17044,-0.24116 2.29102,-1.08522 0.12058,-0.84406 -0.78377,-3.0145 0.12058,-3.55711 0.90435,-0.54261 1.68812,0.0603 2.47189,0.0603 0.78377,0 2.96467,-0.78297 2.96467,-0.78297"
       id="path241" /><path
       style="fill:none;stroke:#000000;stroke-width:0.1;stroke-linecap:round;stroke-linejoin:round"
       d="m 163.64896,161.71066 c 2.77227,-2.4848 4.15894,-3.02741 5.42503,-2.90683 1.26609,0.12058 2.29102,1.62783 2.59247,1.68812 0.30145,0.0603 2.17044,-2.89392 5.06436,-2.29102 2.89392,0.6029 0.96464,1.8087 1.26609,2.29102 0.30145,0.48232 1.62783,0.18087 2.35131,0.72348 0.72348,0.54261 1.26609,1.26609 1.86899,1.2058 0.6029,-0.0603 2.47189,-2.35131 3.07479,-2.47189 0.6029,-0.12058 1.50725,-0.96464 1.8087,-1.56754 0.30145,-0.6029 2.4116,-3.85856 5.60696,-3.73798"
       id="path242" /><path
       style="fill:none;stroke:#000000;stroke-width:0.1;stroke-linecap:round;stroke-linejoin:round"
       d="m 186.77484,158.86516 c 2.43601,-0.12162 3.94325,-1.56858 3.94325,-1.56858"
       id="path243" /><path
       style="fill:none;stroke:#000000;stroke-width:0.1;stroke-linecap:round;stroke-linejoin:round"
       d="m 162.68509,166.11507 c 3.07295,-1.82485 6.9918,-0.55876 7.65499,-0.86021 0.66319,-0.30145 0.90435,-2.4116 2.95421,-2.35131 2.04986,0.0603 2.71305,2.04986 3.07479,2.53218 0.36174,0.48232 1.8087,0.48232 2.65276,1.14551 0.84406,0.66319 0.90435,1.38667 1.68812,1.38667 0.78377,0 0.6029,-1.02493 1.14551,-1.02493 0.54261,0 1.26609,0.72348 1.86899,0.42203 0.6029,-0.30145 1.08522,-1.62783 2.23073,-1.62783 1.14551,0 1.14551,0.54261 2.29102,0.54261 1.14551,0 1.86899,-2.59247 2.65275,-2.77334 0.78377,-0.18087 0.78377,-0.24116 1.62783,-0.90435 0.84406,-0.66319 3.0145,-1.50725 4.40117,-1.44696"
       id="path244" /><path
       style="fill:none;stroke:#000000;stroke-width:0.1;stroke-linecap:round;stroke-linejoin:round"
       d="m 181.28433,167.62623 c 2.86216,1.4269 2.92245,2.21067 3.46506,2.27096 0.54261,0.0603 5.48639,0.42203 5.48639,0.42203"
       id="path245" /><path
       style="fill:none;stroke:#000000;stroke-width:0.1;stroke-linecap:round;stroke-linejoin:round"
       d="m 186.16856,170.01454 c 0,0 1.05272,-0.35851 2.25852,-1.44373"
       id="path246" /><path
       style="fill:none;stroke:#000000;stroke-width:0.1;stroke-linecap:round;stroke-linejoin:round"
       d="m 150.2518,169.16229 0.61461,-8.36889"
       id="path247" /><path
       style="fill:none;stroke:#000000;stroke-width:0.1;stroke-linecap:round;stroke-linejoin:round"
       d="m 150.70379,163.00776 c 0.0113,-0.15348 -8.57805,-4.03581 -8.57805,-4.03581"
       id="path248" /><path
       style="fill:none;stroke:#000000;stroke-width:0.1;stroke-linecap:round;stroke-linejoin:round"
       d="m 147.40194,167.85144 0.12675,-8.4241"
       id="path249" /><path
       style="fill:none;stroke:#000000;stroke-width:0.1;stroke-linecap:round;stroke-linejoin:round"
       d="m 144.29265,166.34129 0.17973,-8.29516"
       id="path250" /><path
       style="fill:none;stroke:#000000;stroke-width:0.1;stroke-linecap:round;stroke-linejoin:round"
       d="m 156.51422,183.13205 4.29763,-8.36442"
       id="path251" /><path
       style="fill:none;stroke:#000000;stroke-width:0.1;stroke-linecap:round;stroke-linejoin:round"
       d="m 164.65928,195.33762 5.968,-6.96357"
       id="path252" /><path
       style="fill:none;stroke:#000000;stroke-width:0.1;stroke-linecap:round;stroke-linejoin:round"
       d="m 163.44929,193.22747 5.12087,-7.46891"
       id="path253" /><path
       style="fill:none;stroke:#000000;stroke-width:0.1;stroke-linecap:round;stroke-linejoin:round"
       d="m 158.88932,178.50942 c 4.44986,5.10386 7.93243,9.79923 7.93243,9.79923"
       id="path254" /><path
       style="fill:none;stroke:#000000;stroke-width:0.1;stroke-linecap:round;stroke-linejoin:round"
       d="m 158.56665,186.07419 c 0,0 3.47948,-7.57434 4.09661,-8.83801"
       id="path255" /><path
       style="fill:none;stroke:#000000;stroke-width:0.1;stroke-linecap:round;stroke-linejoin:round"
       d="m 160.35176,188.48448 c 1.45927,-3.75448 4.25108,-9.39688 4.25108,-9.39688"
       id="path256" /><path
       style="fill:none;stroke:#000000;stroke-width:0.1;stroke-linecap:round;stroke-linejoin:round"
       d="m 161.52736,190.19906 c 2.48084,-5.52839 4.39792,-9.1425 4.39792,-9.1425"
       id="path257" /><path
       style="fill:none;stroke:#000000;stroke-width:0.1;stroke-linecap:round;stroke-linejoin:round"
       d="m 162.5372,191.75113 c 2.624,-4.4938 4.82807,-8.13785 4.82807,-8.13785"
       id="path258" /><path
       style="fill:none;stroke:#000000;stroke-width:0.1;stroke-linecap:round;stroke-linejoin:round"
       d="m 131.60933,59.31436 2.63201,-5.234373"
       id="path82" /></g></svg>
