<?xml version="1.0" encoding="UTF-8" standalone="no"?>
<!-- Created with Inkscape (http://www.inkscape.org/) -->

<svg
   width="100"
   height="120"
   viewBox="0 0 100 120"
   version="1.1"
   id="svg5"
   xml:space="preserve"
   xmlns="http://www.w3.org/2000/svg"
   xmlns:svg="http://www.w3.org/2000/svg"><defs
     id="defs2" /><path
     style="fill:#000000;fill-opacity:1;stroke:#000000;stroke-width:0.100166;stroke-linecap:round;stroke-dasharray:none;stroke-opacity:1"
     d="m 30.865076,84.872003 c -2.262221,4.65094 -2.954744,9.090058 -3.765274,13.861966 1.698144,1.655351 4.024845,1.526371 5.591695,0.739397 0.559859,-3.295664 1.074941,-6.281026 3.205596,-12.839104 -1.907794,-0.449069 -3.593483,-1.031474 -5.032017,-1.762259 z"
     id="path5114" /><path
     style="fill:#000000;fill-opacity:1;stroke:#000000;stroke-width:0.100166;stroke-linecap:round;stroke-dasharray:none;stroke-opacity:1"
     d="m 44.973444,87.160373 c 4.841395,5.833747 2.926827,9.827184 2.228736,14.246587 2.489039,0.50236 4.857879,0.66538 6.700798,-0.36237 0.419555,-6.037959 -0.384102,-10.4361 -2.798171,-14.749242 -2.006548,0.494866 -4.048702,0.792258 -6.131363,0.865017 z"
     id="path5116" /><path
     id="path378"
     style="fill:#000000;fill-opacity:1;stroke:#000000;stroke-width:0.100166;stroke-linecap:round;stroke-dasharray:none;stroke-opacity:1"
     d="M 33.049402,7.3265342 C 31.210155,7.2932034 29.412133,7.535685 27.876796,8.0503883 22.933939,9.7074133 14.122232,21.807566 28.714119,27.578747 l -4.76569,3.715125 c -5.49958,-9.45827 -18.7867931,-3.54282 -18.5736581,6.362075 0.2135219,9.922643 13.2332551,16.107953 19.1781731,5.94341 2.037647,5.724691 4.363387,8.244122 6.929418,9.460944 l -10.288488,2.47675 c -2.813451,0.793001 -2.677061,2.569653 -2.038518,4.513316 1.188712,2.23042 2.565289,4.319661 4.270727,6.162531 1.348094,0.455222 4.085825,0.273485 4.319632,-2.523701 l -2.815194,-4.317678 10.092851,-2.378933 c 0.502689,13.355595 16.511015,16.454106 22.613535,10.724748 -0.836511,-4.908555 -2.788854,-9.178199 -5.434764,-13.052815 l 2.989314,-3.906844 -2.075695,0.418658 c -6.955816,9.661109 -12.511066,5.278967 -18.186299,2.883672 -0.0061,-0.0023 -0.01189,-0.0038 -0.01757,-0.0061 -0.492418,-0.207472 -0.985744,-0.40651 -1.480971,-0.573217 -9.018699,-4.143524 -9.986951,-18.40898 -0.459746,-16.615345 -5.467007,-9.096252 3.261198,-14.859161 8.680357,-11.364481 0.02868,-1.18769 1.609738,-1.327754 3.431453,-0.755154 -0.942479,-0.477047 -3.346776,-0.955571 -3.535138,-0.982092 8.24085,-10.95477 -0.528336,-16.2927873 -8.49842,-16.4373141 z" /><path
     id="path1300"
     style="fill:#000000;fill-opacity:1;stroke:#000000;stroke-width:0.100166;stroke-linecap:round;stroke-dasharray:none;stroke-opacity:1"
     d="m 39.39387,29.136007 c -0.09869,7.57e-4 -0.197163,0.008 -0.293436,0.0215 -0.799265,0.111802 -1.185412,1.587644 0.496915,4.182696 l 3.396237,0.125203 -1.53183,2.318285 2.541309,2.241992 c -0.456456,0.349655 -0.777479,0.779788 -0.874493,1.158162 1.633572,-1.159597 2.134613,-1.586789 4.513319,-1.261855 -0.417564,-0.315166 -0.852221,-0.487726 -1.279458,-0.553644 0.186639,-2.520583 -3.917831,-8.265486 -6.968547,-8.232359 z" /><path
     style="fill:#000000;fill-opacity:1;stroke:#000000;stroke-width:0.100166;stroke-linecap:round;stroke-dasharray:none;stroke-opacity:1"
     d="m 50.407852,31.932248 -3.561846,-0.745496 c -1.328454,-1.871645 -1.07269,-2.749245 -0.372748,-3.064842 0.926214,-0.41762 5.53495,2.658827 6.295348,6.253932 0.413816,1.95651 -0.48469,2.003135 -1.408171,1.615255 -0.923482,-0.387879 -1.794727,-1.237292 -2.69209,-2.236503 z"
     id="path1302" /><path
     id="path1358"
     style="fill:#000000;fill-opacity:1;stroke:#000000;stroke-width:0.100166;stroke-linecap:round;stroke-dasharray:none;stroke-opacity:1"
     d="m 65.947514,24.742031 c -0.499349,0.01166 -0.958716,0.113415 -1.293156,0.314978 -1.748232,2.363213 -3.354669,4.797664 -4.822421,7.301124 -0.375587,0.640618 -0.862128,1.523301 -1.219476,2.173039 0.897431,-0.03634 1.494987,0.003 2.379842,0.166124 -1.295575,2.279099 -1.312168,4.459014 -0.07265,5.353235 1.465912,1.051069 4.188238,-0.141059 6.080361,-2.66261 1.891703,-2.521456 2.263565,-5.604471 0.797578,-6.655126 -1.054337,-0.753616 -2.81222,-0.364427 -4.480058,0.991879 l 0.121297,-0.933188 c 1.049839,-1.043768 2.34714,-1.678053 3.838375,-1.28728 L 69.33591,26.75512 c -0.02044,-1.277698 -1.89037,-2.048162 -3.388408,-2.013089 z" /><path
     id="path2144"
     style="fill:#000000;fill-opacity:1;stroke:#000000;stroke-width:0.100166;stroke-linecap:round;stroke-linejoin:round;stroke-dasharray:none;stroke-opacity:1"
     d="m 33.082664,41.511926 c 1.156859,4.318821 3.019997,7.974505 4.845001,10.307009 0.0268,-0.09544 0.0756,-0.215751 0.132268,-0.305399 0.317438,-0.477985 1.241676,-1.169848 2.629045,-1.133425 1.079069,0.02839 2.450976,0.516362 4.088789,1.954395 -0.974313,-2.74174 4.697456,-0.555632 4.861467,-0.0095 4.13e-4,-1.59e-4 8.33e-4,-3.26e-4 0.0013,-5e-4 3.63e-4,-1.52e-4 7.34e-4,-3.03e-4 0.0011,-4.66e-4 0.116565,-0.04978 0.521238,-0.512648 0.757229,-0.789241 -6.577115,-0.76186 -12.749229,-2.744876 -17.316131,-10.022835 z" /><path
     style="fill:#000000;fill-opacity:1;stroke:#000000;stroke-width:0.100166;stroke-linecap:round;stroke-dasharray:none;stroke-opacity:1"
     d="M 28.768122,78.103148 C 20.091996,87.810815 1.4991955,90.463835 5.8189341,102.9155 c 3.0400104,8.76285 14.3610399,7.40321 17.0171789,2.5763 -1.895151,2.69863 -11.825613,6.18519 -15.8407462,-2.64486 -3.6385025,-8.00178 4.2973842,-10.816597 21.5799902,-22.015741 0.208248,-0.704856 0.401537,-1.359077 0.576713,-1.951973 -0.153055,-0.295896 -0.197924,-0.38579 -0.383948,-0.776078 z"
     id="path7371" /><path
     style="fill:none;fill-opacity:1;stroke:#000000;stroke-width:0.100166;stroke-linecap:round;stroke-dasharray:none;stroke-opacity:1"
     d="m 43.17413,102.73321 0.562961,-0.36548 c -1.302419,-1.79439 0.919866,-2.636533 3.828649,-2.899971 m 6.401547,0.198868 c 1.196856,0.180581 2.103668,0.430493 2.421841,0.709053 9.527986,-5.68068 20.670438,-0.30445 17.174468,8.93719 0.574853,0.009 1.365536,2.6569 0.538384,2.96111 l -27.674409,0.44767"
     id="path7347" /><path
     style="fill:none;fill-opacity:1;stroke:#000000;stroke-width:0.100166;stroke-linecap:round;stroke-dasharray:none;stroke-opacity:1"
     d="m 27.325422,97.403841 c -3.048639,0.09525 -5.362849,0.953215 -3.797521,2.926879 -2.950661,2.67106 -3.401377,4.93732 -3.259532,7.06265 m 0.0584,0.53193 c 0.01492,0.13799 0.024,0.24872 0.04204,0.38618 -0.938353,0.17634 -1.053495,2.51186 -0.665063,2.74339 8.755862,3.4601 15.461426,0.39187 26.436297,2.07833 0.667244,-0.14057 0.188949,-2.6833 -0.53604,-3.0287 0.417901,-4.90815 -1.673036,-8.97315 -9.606188,-10.68825 -0.479804,-0.589484 -1.623558,-1.078206 -3.049767,-1.429807"
     id="path6619" /><path
     style="fill:none;fill-opacity:1;stroke:#000000;stroke-width:0.100166;stroke-linecap:round;stroke-dasharray:none;stroke-opacity:1"
     d="m 27.801439,75.001286 c 0.166335,1.011508 0.489401,2.056638 0.966683,3.101862 m -0.192764,2.728051 -0.685001,2.318458 c 0.974736,0.65641 1.986217,1.238011 2.974719,1.722346 m 5.032017,1.762259 c 1.866521,0.410929 3.77559,0.581649 5.678062,0.543196 1.148482,0.03454 2.274744,0.03317 3.398289,-0.01708 m 6.131363,-0.865025 c 1.340279,-0.344926 2.646029,-0.802868 3.912512,-1.398696 l -1.01908,-3.688098 c 3.968087,-4.355619 4.453962,-8.88982 3.639576,-13.490697 M 35.474413,60.18463 c -0.87688,0.760866 -1.757797,1.63654 -2.509573,2.410968"
     id="path5112" /><path
     style="fill:none;fill-opacity:1;stroke:#000000;stroke-width:0.100166;stroke-linecap:round;stroke-dasharray:none;stroke-opacity:1"
     d="m 64.253414,25.604867 c -0.169709,-0.144428 -0.338033,-0.290311 -0.501113,-0.445784 -1.523255,-1.323604 -0.607292,-3.08831 0.776441,-3.15429 -0.118616,-0.134792 -0.233079,-0.28691 -0.339823,-0.453087 -0.699912,-1.089591 -1.067772,-2.783295 -0.09692,-4.157046 -1.827879,-1.104734 -5.480292,0.540875 -6.793875,-1.019081 -4.527354,-5.376499 7.663548,-9.0533171 11.695169,-3.396938 1.538947,-0.599022 3.135919,-0.791879 4.804241,-0.485274 1.196459,-2.7812267 13.217981,-7.9949731 16.839102,-3.8822187 3.433678,-0.041738 6.30867,3.5823257 3.008716,4.6586597 1.938688,3.009612 -0.876613,4.231344 -2.280801,4.561599 l -7.13357,2.766077 c -2.633474,4.259099 -5.776018,7.522199 -11.355474,6.017427 0.967676,2.571395 -1.367315,3.248222 -2.669022,2.523444 -0.620589,-0.325172 -1.248434,-0.638254 -1.871733,-0.958912"
     id="path2142" /><path
     style="fill:none;fill-opacity:1;stroke:#000000;stroke-width:0.100166;stroke-linecap:round;stroke-linejoin:round;stroke-dasharray:none;stroke-opacity:1;paint-order:markers stroke fill"
     d="M 34.876565,40.132773 C 31.915193,39.268164 28.777174,39.57883 29.21299,43.733726"
     id="path2140" /><path
     id="path5088"
     style="fill:none;stroke:#000000;stroke-width:0.100166;stroke-linecap:round;stroke-dasharray:none;stroke-opacity:1"
     d="m 45.848187,76.735432 a 2.40212,4.1248523 19.868706 0 1 -3.66103,3.062918 2.40212,4.1248523 19.868706 0 1 -0.857233,-4.695715 2.40212,4.1248523 19.868706 0 1 3.661026,-3.062914 2.40212,4.1248523 19.868706 0 1 0.857237,4.695711 z" /><path
     id="path5088-7"
     style="fill:none;stroke:#000000;stroke-width:0.100166;stroke-linecap:round;stroke-dasharray:none;stroke-opacity:1"
     d="m 54.746121,76.334344 a 2.0671471,4.1248523 13.00466 0 1 -2.942345,3.553888 2.0671471,4.1248523 13.00466 0 1 -1.085914,-4.484229 2.0671471,4.1248523 13.00466 0 1 2.942349,-3.553885 2.0671471,4.1248523 13.00466 0 1 1.08591,4.484226 z" /><path
     style="fill:none;fill-opacity:1;stroke:#000000;stroke-width:0.100166;stroke-linecap:round;stroke-dasharray:none;stroke-opacity:1"
     d="m 21.033743,63.184764 c -1.329134,-0.113233 -3.333632,0.191826 -4.067652,2.439498 -3.153115,0.66559 -3.154131,3.55421 -1.805733,4.296814 -1.172911,0.847186 -1.874138,3.467122 0.63308,4.164948 4.498149,0.653767 10.513576,0.969857 13.419552,0.890348 2.905975,-0.0795 2.631412,-0.447056 4.173211,-2.28977 0.532074,-0.309261 1.084872,-0.431954 1.532702,-1.499386 0.580175,-0.505205 1.07969,-1.185162 1.132868,-2.832171 -0.219697,-4.515783 -2.941836,-6.47225 -7.063764,-6.997118 -1.165389,-0.283139 -2.110703,-0.370022 -2.965001,-0.309866"
     id="path5118" /><path
     style="fill:none;fill-opacity:1;stroke:#000000;stroke-width:0.100166;stroke-linecap:round;stroke-dasharray:none;stroke-opacity:1"
     d="m 15.160358,69.987713 c 2.488279,-0.690666 5.110072,-0.218477 7.258537,0.526228"
     id="path5846" /><path
     style="fill:none;fill-opacity:1;stroke:#000000;stroke-width:0.100166;stroke-linecap:round;stroke-dasharray:none;stroke-opacity:1"
     d="m 17.046032,65.59064 c 1.475986,-0.262771 3.492741,-0.01893 4.911534,0.46536"
     id="path5848" /><path
     style="fill:none;fill-opacity:1;stroke:#000000;stroke-width:0.100166;stroke-linecap:round;stroke-dasharray:none;stroke-opacity:1"
     d="m 22.184026,64.758605 c -0.642633,2.80188 1.561745,3.547085 2.938912,3.796364"
     id="path5850" /><path
     style="fill:none;fill-opacity:1;stroke:#000000;stroke-width:0.100166;stroke-linecap:round;stroke-dasharray:none;stroke-opacity:1"
     d="m 22.1723,66.477521 c -1.285349,3.660106 2.045025,6.42816 4.450016,6.542279"
     id="path5852" /><path
     style="fill:none;fill-opacity:1;stroke:#000000;stroke-width:0.100166;stroke-linecap:round;stroke-dasharray:none;stroke-opacity:1"
     d="m 32.353296,69.654519 c 0.9248,0.866785 1.182296,1.854882 1.132868,2.898804"
     id="path5854" /><path
     style="fill:none;fill-opacity:1;stroke:#000000;stroke-width:0.100166;stroke-linecap:round;stroke-dasharray:none;stroke-opacity:1"
     d="m 33.352878,68.021859 c 1.222074,0.7098 1.486425,1.861628 1.566025,3.098723"
     id="path5856" /><path
     style="fill:none;fill-opacity:1;stroke:#000000;stroke-width:0.100166;stroke-linecap:round;stroke-dasharray:none;stroke-opacity:1"
     d="m 34.252507,66.355872 c 1.020323,0.509218 1.655351,1.368704 1.699302,2.765529"
     id="path5858" /><path
     style="fill:none;fill-opacity:1;stroke:#000000;stroke-width:0.100166;stroke-linecap:round;stroke-dasharray:none;stroke-opacity:1"
     d="m 28.50134,61.248442 c 2.134306,1.874016 2.824708,3.722019 1.053101,5.507262"
     id="path5860" /><path
     id="path7349"
     style="fill:none;stroke:#000000;stroke-width:0.100166;stroke-linecap:round;stroke-dasharray:none;stroke-opacity:1"
     d="m 75.878652,17.787501 a 2.503488,1.3997999 0 0 1 -2.503489,1.399803 2.503488,1.3997999 0 0 1 -2.503489,-1.399803 2.503488,1.3997999 0 0 1 2.503489,-1.399802 2.503488,1.3997999 0 0 1 2.503489,1.399802 z" /><path
     style="fill:none;fill-opacity:1;stroke:#000000;stroke-width:0.100166;stroke-linecap:round;stroke-dasharray:none;stroke-opacity:1"
     d="m 66.995305,23.117527 c -0.653161,-0.759852 -1.382784,-1.07057 -2.466563,-1.112734"
     id="path7353" /><path
     style="fill:none;fill-opacity:1;stroke:#000000;stroke-width:0.100166;stroke-linecap:round;stroke-dasharray:none;stroke-opacity:1"
     d="m 70.688972,25.105132 c 0.80248,0.189759 1.244046,0.419673 1.684253,0.916529 0.158094,0.178462 0.327849,0.335405 0.502279,0.59325"
     id="path7355" /><path
     style="fill:none;fill-opacity:1;stroke:#000000;stroke-width:0.100166;stroke-linecap:round;stroke-dasharray:none;stroke-opacity:1"
     d="m 75.82481,13.049734 c 1.186332,-0.184182 2.110707,0.286546 3.014952,0.807575"
     id="path7357" /><path
     style="fill:none;fill-opacity:1;stroke:#000000;stroke-width:0.100166;stroke-linecap:round;stroke-dasharray:none;stroke-opacity:1"
     d="m 80.993301,15.849331 c 1.175047,0.395159 1.855386,1.186084 2.315056,2.15354"
     id="path7359" /><path
     style="fill:none;fill-opacity:1;stroke:#000000;stroke-width:0.100166;stroke-linecap:round;stroke-dasharray:none;stroke-opacity:1"
     d="m 82.985323,15.849331 c 3.131214,-1.908316 6.525422,-2.964667 10.660026,-2.579523"
     id="path7361" /><path
     style="fill:none;fill-opacity:1;stroke:#000000;stroke-width:0.100166;stroke-linecap:round;stroke-dasharray:none;stroke-opacity:1"
     d="M 79.055117,12.780535 C 82.361051,10.810299 86.493722,9.7444103 90.636633,8.6111483"
     id="path7363" /><path
     style="fill:none;fill-opacity:1;stroke:#000000;stroke-width:0.100166;stroke-linecap:round;stroke-dasharray:none;stroke-opacity:1"
     d="m 34.530713,51.113519 c 0.85973,2.167751 2.348904,3.667053 4.081386,4.611534"
     id="path7365" /><path
     style="fill:none;fill-opacity:1;stroke:#000000;stroke-width:0.100166;stroke-linecap:round;stroke-dasharray:none;stroke-opacity:1;paint-order:normal"
     d="m 51.29753,39.892035 c 1.170045,-2.967373 4.30537,-5.057774 7.314931,-5.360864 m 6.445799,4.764001 c 0.09926,0.441691 0.171685,0.917102 0.214199,1.427528 0.466663,5.598737 -4.351999,9.136037 -12.157068,10.454367 -0.02461,0.0038 -0.04891,0.0083 -0.07337,0.01249 -0.847091,0.141248 -1.729107,0.256449 -2.643127,0.345453"
     id="path7369" /><path
     style="fill:none;fill-opacity:1;stroke:#000000;stroke-width:0.100166;stroke-linecap:round;stroke-dasharray:none;stroke-opacity:1"
     d="m 20.088777,109.20814 c 5.356167,4.2651 16.366137,-0.35196 25.572154,0.9291"
     id="path7373" /><path
     style="fill:none;fill-opacity:1;stroke:#000000;stroke-width:0.100166;stroke-linecap:round;stroke-dasharray:none;stroke-opacity:1"
     d="m 25.796061,103.76632 c 2.193886,-2.07896 6.126646,-3.61218 10.795161,-4.203038"
     id="path7375" /><path
     style="fill:none;fill-opacity:1;stroke:#000000;stroke-width:0.100166;stroke-linecap:round;stroke-dasharray:none;stroke-opacity:1"
     d="m 23.527901,100.33072 c 1.695969,1.44017 3.359471,1.32976 5.055432,1.26772"
     id="path7377" /><path
     style="fill:none;fill-opacity:1;stroke:#000000;stroke-width:0.100166;stroke-linecap:round;stroke-dasharray:none;stroke-opacity:1"
     d="m 43.737091,102.36774 c 1.511413,1.44314 4.076974,1.33193 6.126877,1.35433"
     id="path7379" /><path
     style="fill:none;fill-opacity:1;stroke:#000000;stroke-width:0.100166;stroke-linecap:round;stroke-dasharray:none;stroke-opacity:1"
     d="m 51.545181,104.69541 c 1.14155,-1.40424 2.417782,-2.79734 4.833305,-4.31739"
     id="path7381" /><path
     style="fill:none;fill-opacity:1;stroke:#000000;stroke-width:0.100166;stroke-linecap:round;stroke-dasharray:none;stroke-opacity:1"
     d="m 46.324567,111.28754 c 10.498351,1.36066 18.42274,-1.66329 27.234998,-1.97929"
     id="path7383" /><path
     style="fill:none;fill-opacity:1;stroke:#000000;stroke-width:0.100166;stroke-linecap:round;stroke-dasharray:none;stroke-opacity:1"
     d="m 29.15207,78.879226 c 0.995849,2.004254 2.429095,2.576048 3.888635,3.30514"
     id="path7387" /><path
     style="fill:none;fill-opacity:1;stroke:#000000;stroke-width:0.100166;stroke-linecap:round;stroke-dasharray:none;stroke-opacity:1"
     d="m 53.998239,81.208554 c -5.188071,4.647071 -12.117484,4.576152 -16.950127,2.821915"
     id="path7389" /><path
     style="fill:none;fill-opacity:1;stroke:#000000;stroke-width:0.100166;stroke-linecap:round;stroke-dasharray:none;stroke-opacity:1"
     d="m 42.054469,85.087781 0.145072,2.104812"
     id="path7391" /><path
     style="fill:none;fill-opacity:1;stroke:#000000;stroke-width:0.100166;stroke-linecap:square;stroke-linejoin:bevel;stroke-dasharray:none;stroke-opacity:1"
     d="m 41.546997,23.764265 c 10.499107,2.16288 13.967751,8.955271 15.355267,11.125371"
     id="path2" /><path
     style="fill:none;fill-opacity:1;stroke:#000000;stroke-width:0.100166;stroke-linecap:square;stroke-linejoin:bevel;stroke-dasharray:none;stroke-opacity:1"
     d="m 37.927665,51.818935 c 2.641604,2.977522 4.379343,3.238473 5.7739,3.410756 1.354235,0.167294 3.542717,-0.631726 5.937671,-2.904649"
     id="path3" /></svg>
