<?xml version="1.0" encoding="UTF-8" standalone="no"?>
<!-- Created with Inkscape (http://www.inkscape.org/) -->

<svg
   width="65"
   height="100"
   viewBox="0 0 65 100"
   version="1.1"
   id="svg1"
   xml:space="preserve"
   xmlns="http://www.w3.org/2000/svg"
   xmlns:svg="http://www.w3.org/2000/svg"><defs
     id="defs1" /><g
     id="layer2"
     style="display:inline"><path
       style="fill:none;stroke:#000000;stroke-width:0.1;stroke-linecap:round;stroke-linejoin:round;stroke-dasharray:none"
       d="m 31.96266,25.001464 c -3.101133,-0.163099 -5.527788,0.808368 -6.576007,2.831451 -2.533475,4.889657 0.843616,8.005198 5.32338,10.785906 4.946647,3.070514 12.810727,1.784008 14.798614,-2.80714 0.854492,-1.973502 -0.208961,-4.418126 -2.772272,-6.545426 m -1.633451,-1.180898 c -1.069413,-0.66834 -2.391553,-1.338078 -3.771178,-1.865811 -0.917888,-0.35111 -1.816262,-0.626333 -2.683615,-0.827024"
       id="path6" /><path
       style="fill:#000000;fill-opacity:1;stroke:#000000;stroke-width:0.1;stroke-linecap:round;stroke-linejoin:round;stroke-dasharray:none"
       d="m 29.248354,37.666623 c 1.490317,2.772009 3.138884,3.14326 4.425021,3.498618 1.35129,0.37336 4.215263,1.192242 8.196025,-1.894517 -4.676788,4.610127 -8.056971,3.620661 -9.466856,2.958821 -2.220231,-1.04224 -3.015006,-2.592216 -3.15419,-4.562922 z"
       id="path7" /><path
       style="fill:none;fill-opacity:1;stroke:#000000;stroke-width:0.1;stroke-linecap:round;stroke-linejoin:round;stroke-dasharray:none"
       d="m 27.978416,36.730537 c 0.345896,4.335776 2.048871,6.564834 4.995224,7.398748 2.158688,0.610979 7.419453,-0.420689 10.274418,-5.6422"
       id="path8" /><path
       style="fill:none;fill-opacity:1;stroke:#000000;stroke-width:0.1;stroke-linecap:round;stroke-linejoin:round;stroke-dasharray:none"
       d="m 38.227676,26.582927 c -1.060665,-2.824493 0.93106,-4.994051 2.531553,-5.954347 1.600493,-0.960296 5.51281,-1.849459 7.611234,1.458227"
       id="path9" /><path
       style="fill:none;fill-opacity:1;stroke:#000000;stroke-width:0.1;stroke-linecap:round;stroke-linejoin:round;stroke-dasharray:none"
       d="m 39.532724,21.573261 c 2.186801,-4.963697 7.948577,-4.750298 8.161976,-4.643599 0.213399,0.1067 1.458226,2.738622 0.675763,5.157145 -0.782463,2.418523 -0.533497,1.351528 -0.569064,1.813893 -0.03557,0.462364 0.711331,2.489656 2.240691,3.734484 1.52936,1.244828 2.418523,1.885025 2.987587,1.778326 0.569065,-0.1067 1.778326,-1.280395 1.671627,-3.592218 -0.1067,-2.311824 -0.569065,-4.837047 -2.596356,-7.397836 -2.027292,-2.560789 -2.418523,-3.343253 -2.845322,-3.414386 -0.426798,-0.07113 -6.615372,0.426798 -8.57153,3.236553"
       id="path10" /><path
       style="fill:none;fill-opacity:1;stroke:#000000;stroke-width:0.1;stroke-linecap:round;stroke-linejoin:round;stroke-dasharray:none"
       d="m 49.010521,26.550313 c -0.651297,4.329452 -3.298406,4.027076 -4.464492,4.584727"
       id="path11" /><path
       style="fill:none;fill-opacity:1;stroke:#000000;stroke-width:0.1;stroke-linecap:round;stroke-linejoin:round;stroke-dasharray:none"
       d="m 29.968054,25.064213 c -2.688535,-3.617603 -0.196554,-6.678996 1.472748,-7.672186 3.727655,-2.217855 7.216456,0.208158 7.593032,4.724622"
       id="path12" /><path
       style="fill:none;fill-opacity:1;stroke:#000000;stroke-width:0.1;stroke-linecap:round;stroke-linejoin:round;stroke-dasharray:none"
       d="m 35.03302,7.5045351 c -6.560099,3.2690949 -6.879226,9.2359589 -6.828772,9.7452259 0.05106,0.515333 -1.920592,2.311823 -3.87675,3.343252 -1.956159,1.031429 -3.414386,1.173696 -3.805618,0.889163 -0.391231,-0.284532 0.462365,-6.259707 7.9669,-12.7328128"
       id="path13" /><path
       style="fill:none;fill-opacity:1;stroke:#000000;stroke-width:0.1;stroke-linecap:round;stroke-linejoin:round;stroke-dasharray:none"
       d="m 34.327837,7.8794001 c 5.628881,2.6974399 6.812677,8.8225889 4.617275,13.5185439"
       id="path14" /><path
       style="fill:none;fill-opacity:1;stroke:#000000;stroke-width:0.1;stroke-linecap:round;stroke-linejoin:round;stroke-dasharray:none"
       d="m 21.296115,21.604544 c 0.114928,0.766795 0.257194,0.873495 0.04379,1.158027 -0.213399,0.284532 -1.493793,1.209262 -2.952021,2.027292 -1.458227,0.818029 -2.098424,1.244828 -3.023154,0.853596 -0.924729,-0.391232 0.711331,-8.891629 5.441678,-13.870942 4.730346,-4.9793122 14.119907,-6.544239 15.613701,-5.6906425 1.493793,0.8535964 5.51281,4.8726125 4.267982,12.1637485"
       id="path15" /><path
       style="fill:none;fill-opacity:1;stroke:#000000;stroke-width:0.1;stroke-linecap:round;stroke-linejoin:round;stroke-dasharray:none"
       d="m 29.708837,12.320416 c 4.506153,2.368556 4.928947,4.258861 4.928947,4.258861"
       id="path16" /><path
       style="fill:none;fill-opacity:1;stroke:#000000;stroke-width:0.1;stroke-linecap:round;stroke-linejoin:round;stroke-dasharray:none"
       d="m 40.536573,12.308415 c 2.463346,-2.8477214 3.921574,-3.0611205 4.88187,-3.0611205 0.960296,0 4.303548,1.3159615 5.975174,2.8097545 1.671627,1.493794 3.16542,3.378819 3.414386,4.694781 0.248966,1.315961 -0.92492,4.765986 -0.92492,4.765986"
       id="path18" /><path
       style="fill:none;fill-opacity:1;stroke:#000000;stroke-width:0.1;stroke-linecap:round;stroke-linejoin:round;stroke-dasharray:none"
       d="m 49.884841,15.532488 c 3.429368,0.863676 4.176265,1.610573 4.176265,1.610573"
       id="path19" /><path
       style="fill:none;fill-opacity:1;stroke:#000000;stroke-width:0.1;stroke-linecap:round;stroke-linejoin:round;stroke-dasharray:none"
       d="m 53.822166,16.96789 c -0.02341,1.68257 -0.597236,3.131955 -0.597236,3.131955"
       id="path20" /><path
       style="fill:#000000;fill-opacity:1;stroke:#000000;stroke-width:0.1;stroke-linecap:round;stroke-linejoin:round;stroke-dasharray:none"
       d="m 35.285527,21.392554 c -1.989003,-2.067004 -5.126471,1.251563 -3.284807,3.610966 1.863672,0.185882 2.160526,0.241475 2.658313,0.391527 1.301456,-0.590185 1.695184,-1.658875 1.357703,-2.877557 -0.787456,1.537414 -1.893644,1.162435 -2.268623,0.562468 -0.374979,-0.599966 0.337481,-1.96864 1.537414,-1.687405 z"
       id="path21" /><path
       style="fill:#000000;fill-opacity:1;stroke:#000000;stroke-width:0.1;stroke-linecap:round;stroke-linejoin:round;stroke-dasharray:none"
       d="m 41.102924,28.085357 c 1.066857,0.725767 1.131487,0.740399 1.684878,1.223789 1.338015,0.05902 1.95952,-0.551041 2.304601,-0.896123 0.749765,-0.749765 0.473896,-2.46981 0.190201,-2.510337 0.0632,0.485772 -0.886085,1.756748 -1.754223,0.728455 -0.985438,-1.167234 0.803674,-1.996376 1.33209,-1.689093 -0.536272,-0.995512 -1.908223,-1.165942 -3.137983,-0.01082 -1.180964,1.109288 -0.745802,2.692391 -0.619564,3.154129 z"
       id="path22" /><path
       style="fill:#000000;fill-opacity:1;stroke:#000000;stroke-width:0.1;stroke-linecap:round;stroke-linejoin:round;stroke-dasharray:none"
       d="m 45.33175,32.433733 c 0.448656,-1.018798 0.580215,-1.719877 0.580215,-1.719877"
       id="path23" /><path
       style="fill:none;fill-opacity:1;stroke:#000000;stroke-width:0.1;stroke-linecap:round;stroke-linejoin:round;stroke-dasharray:none"
       d="m 8.021193,49.595827 c 2.633626,3.777518 6.34313,4.075286 8.190655,0.225949 1.798712,-3.747634 -1.310623,-8.119144 -6.044139,-6.496036"
       id="path24" /><path
       style="fill:none;fill-opacity:1;stroke:#000000;stroke-width:0.1;stroke-linecap:round;stroke-linejoin:round;stroke-dasharray:none"
       d="m 12.088277,40.783812 c 6.270087,-0.112974 6.665498,3.615186 6.439549,5.761702 -0.225949,2.146517 -1.011276,3.317931 -2.313231,3.268853"
       id="path25" /><path
       style="fill:none;fill-opacity:1;stroke:#000000;stroke-width:0.1;stroke-linecap:round;stroke-linejoin:round;stroke-dasharray:none"
       d="m 18.175818,48.204094 c 4.306117,-3.353198 4.927477,-5.443227 2.38555,-8.267591 -2.541927,-2.824363 -9.828786,-2.372465 -13.1050477,2.824364 -3.276262,5.196829 -3.276262,9.602837 0.5648727,12.540175 3.841135,2.937338 10.946785,2.582125 10.732582,-3.841135"
       id="path26" /><path
       style="fill:none;fill-opacity:1;stroke:#000000;stroke-width:0.1;stroke-linecap:round;stroke-linejoin:round;stroke-dasharray:none"
       d="m 20.439973,46.204509 c 0.799242,0.962365 1.025191,1.809675 1.025191,1.809675"
       id="path27" /><path
       style="fill:none;fill-opacity:1;stroke:#000000;stroke-width:0.1;stroke-linecap:round;stroke-linejoin:round;stroke-dasharray:none"
       d="m 21.934762,42.157941 c 0.06699,-2.334247 3.701622,-2.863931 5.066155,-2.16495 1.437901,0.736563 1.725374,1.979314 1.807593,2.767876 0.07381,0.707904 -0.464946,2.195901 -3.784647,4.067084 -1.936716,1.09165 -3.30724,7.724075 -6.793962,7.505467"
       id="path28" /><path
       style="fill:none;fill-opacity:1;stroke:#000000;stroke-width:0.1;stroke-linecap:round;stroke-linejoin:round;stroke-dasharray:none"
       d="m 8.5295785,52.02478 c 1.1862328,0.847309 1.8046475,-0.141886 1.8046475,-0.141886"
       id="path29" /><path
       style="fill:none;fill-opacity:1;stroke:#000000;stroke-width:0.1;stroke-linecap:round;stroke-linejoin:round;stroke-dasharray:none"
       d="m 41.122736,51.346933 c 3.332749,4.914393 6.552524,3.72816 8.529579,1.24272 1.977054,-2.48544 1.24272,-6.2136 -2.880851,-6.947935 -4.123572,-0.734335 -7.173884,3.163287 -8.077681,5.083855 -0.903796,1.920567 -1.525156,5.309804 -4.744931,6.270087 -3.219774,0.960284 -6.100626,0.790822 -5.761702,3.95411 0.338924,3.163287 4.801418,4.293032 9.659324,-0.112975"
       id="path30" /><path
       style="fill:none;fill-opacity:1;stroke:#000000;stroke-width:0.1;stroke-linecap:round;stroke-linejoin:round;stroke-dasharray:none"
       d="m 36.400561,61.998931 c 3.422968,2.170613 5.512997,0.645457 5.512997,0.645457"
       id="path31" /><path
       style="fill:none;fill-opacity:1;stroke:#000000;stroke-width:0.1;stroke-linecap:round;stroke-linejoin:round;stroke-dasharray:none"
       d="m 45.474789,54.7159 c -3.561231,5.273586 -2.826897,7.081179 -0.736867,7.759026 2.090029,0.677847 5.196829,-1.468669 6.270087,-4.123571 1.073258,-2.654902 -0.492063,-3.937538 -1.94065,-5.103813"
       id="path32" /><path
       style="fill:none;fill-opacity:1;stroke:#000000;stroke-width:0.1;stroke-linecap:round;stroke-linejoin:round;stroke-dasharray:none"
       d="m 44.403419,62.351417 c -2.150937,3.286796 0.05207,4.416542 0.899375,4.642491 0.84731,0.225949 3.163288,0.960284 5.253317,-2.372466 C 52.64614,61.288693 49.90756,60.16539 49.90756,60.16539"
       id="path33" /><path
       style="fill:none;fill-opacity:1;stroke:#000000;stroke-width:0.1;stroke-linecap:round;stroke-linejoin:round;stroke-dasharray:none"
       d="m 40.831276,63.071731 c 0.423609,2.114791 1.818348,2.21185 2.758644,2.422883"
       id="path34" /><path
       style="fill:none;fill-opacity:1;stroke:#000000;stroke-width:0.1;stroke-linecap:round;stroke-linejoin:round;stroke-dasharray:none"
       d="M 43.407596,58.436921 C 40.585971,55.144688 40.018415,56.819142 39.823529,56.656737"
       id="path35" /><path
       style="fill:none;fill-opacity:1;stroke:#000000;stroke-width:0.1;stroke-linecap:round;stroke-linejoin:round;stroke-dasharray:none"
       d="m 41.072853,47.576893 c -3.224436,-1.672227 -5.657264,2.834487 -6.056088,4.310136 -0.398824,1.47565 -0.393976,3.191522 0.580719,4.267883"
       id="path36" /><path
       style="fill:none;fill-opacity:1;stroke:#000000;stroke-width:0.1;stroke-linecap:round;stroke-linejoin:round;stroke-dasharray:none"
       d="m 43.67125,42.953367 c 0,0 -3.866477,2.036947 -2.013003,4.129302"
       id="path37" /><path
       style="fill:none;fill-opacity:1;stroke:#000000;stroke-width:0.1;stroke-linecap:round;stroke-linejoin:round;stroke-dasharray:none"
       d="m 36.497649,49.113627 c -1.91959,-2.770254 0.672767,-4.245904 1.70971,-4.525081 1.036943,-0.279177 1.815246,-0.377507 3.032324,0.782154"
       id="path38" /><path
       style="fill:none;fill-opacity:1;stroke:#000000;stroke-width:0.1;stroke-linecap:round;stroke-linejoin:round;stroke-dasharray:none"
       d="M 47.223273,45.737272 C 48.7762,43.950427 50.25185,44.628429 50.25185,44.628429"
       id="path39" /><path
       style="fill:none;fill-opacity:1;stroke:#000000;stroke-width:0.1;stroke-linecap:round;stroke-linejoin:round;stroke-dasharray:none"
       d="m 40.115087,44.578395 c 2.249716,-4.697866 7.305111,-4.337033 9.418879,-2.701853 2.113769,1.635179 2.153651,2.592357 2.233416,3.230476 0.07977,0.638118 0.279177,1.595297 -0.07976,1.754826 -0.358942,0.15953 -1.141206,-1.904694 -2.863842,-2.248526"
       id="path40" /><path
       style="fill:none;fill-opacity:1;stroke:#000000;stroke-width:0.1;stroke-linecap:round;stroke-linejoin:round;stroke-dasharray:none"
       d="m 38.269538,43.397286 c 0.855117,0.473377 1.01457,1.010203 1.01457,1.010203"
       id="path41" /><path
       style="fill:none;fill-opacity:1;stroke:#000000;stroke-width:0.1;stroke-linecap:round;stroke-linejoin:round;stroke-dasharray:none"
       d="m 33.660823,44.256003 c -0.964844,0.263316 -1.379262,0.520825 -1.994232,0.949526 -4.114933,2.868558 -4.808079,5.279314 -3.828661,5.923734 1.201739,0.790698 4.569217,-0.242651 8.007697,-3.482212"
       id="path42" /><path
       style="fill:none;fill-opacity:1;stroke:#000000;stroke-width:0.1;stroke-linecap:round;stroke-linejoin:round;stroke-dasharray:none"
       d="m 31.722229,46.825043 c 0.70493,0.965487 1.377044,1.181521 4.258173,-0.44179"
       id="path43" /><path
       style="fill:none;fill-opacity:1;stroke:#000000;stroke-width:0.1;stroke-linecap:round;stroke-linejoin:round;stroke-dasharray:none"
       d="m 27.620851,50.921011 c -8.693725,17.431472 1.138591,23.608263 6.435086,24.120506 4.913601,0.475212 9.686095,-4.052853 11.218112,-8.055479"
       id="path44" /><path
       style="fill:none;fill-opacity:1;stroke:#000000;stroke-width:0.1;stroke-linecap:round;stroke-linejoin:round;stroke-dasharray:none"
       d="m 28.244205,51.306801 c -1.619683,2.926906 -1.936873,4.934278 -0.152342,5.571982 1.872791,0.669243 7.356302,-3.817245 6.548819,-8.181173"
       id="path45" /><path
       style="fill:none;fill-opacity:1;stroke:#000000;stroke-width:0.1;stroke-linecap:round;stroke-linejoin:round;stroke-dasharray:none"
       d="M 28.458959,61.948543 C 25.442158,63.152867 24.56863,61.079442 25.105956,57.205382"
       id="path46" /><path
       style="fill:none;fill-opacity:1;stroke:#000000;stroke-width:0.1;stroke-linecap:round;stroke-linejoin:round;stroke-dasharray:none"
       d="m 20.295235,77.140262 c -9.77814,0.246767 -12.4893752,6.015103 -12.0761238,9.229281 0.4132514,3.214177 1.2397542,4.775349 5.7396028,4.867183 4.499849,0.09183 17.310642,-4.821266 17.172892,-8.402779 -0.137751,-3.581512 -6.057027,-5.814299 -10.836371,-5.693685 z"
       id="path47" /><path
       style="fill:none;fill-opacity:1;stroke:#000000;stroke-width:0.1;stroke-linecap:round;stroke-linejoin:round;stroke-dasharray:none"
       d="m 8.2501189,84.908408 c 3.6314261,-0.734229 4.9280091,1.461135 5.2494271,1.96622 0.321418,0.505085 1.358247,2.797197 4.545765,1.653005 2.884805,-1.03553 10.076042,-2.814331 11.350099,-4.311644 1.271183,-1.493934 0.776325,-2.971184 0.177224,-4.288787"
       id="path48" /><path
       style="fill:none;fill-opacity:1;stroke:#000000;stroke-width:0.1;stroke-linecap:round;stroke-linejoin:round;stroke-dasharray:none"
       d="m 15.5071,81.000968 c 1.645223,1.015138 1.508503,1.863041 2.485336,1.995271 0.977649,0.13234 2.588602,-1.358481 -0.455061,-3.710503 -1.861136,-1.438212 -4.16139,0.181762 -3.780512,0.7351 0.401879,0.583848 0.901925,0.456705 1.750237,0.980132 z"
       id="path49" /><path
       style="fill:none;fill-opacity:1;stroke:#000000;stroke-width:0.1;stroke-linecap:round;stroke-linejoin:round;stroke-dasharray:none"
       d="m 26.918645,84.291414 c 1.715232,-0.700095 2.310313,-0.805109 2.275308,-2.06528 -0.03501,-1.26017 -1.365185,-1.99527 -2.415327,-1.750237 -1.050142,0.245033 -3.045412,1.645223 -2.590351,2.870389 0.455062,1.225166 1.78204,1.332202 2.73037,0.945128 z"
       id="path50" /><path
       style="fill:none;fill-opacity:1;stroke:#000000;stroke-width:0.1;stroke-linecap:round;stroke-linejoin:round;stroke-dasharray:none"
       d="m 33.78582,85.672878 c 1.611105,-2.653585 2.985282,-3.080054 3.790835,-2.416658 0.805552,0.663396 0.805552,2.70097 -0.710782,4.501617 -1.516334,1.800647 -2.843126,2.17973 -3.459137,1.658491 -0.616011,-0.52124 -0.430753,-2.409601 0.379084,-3.74345 z"
       id="path51" /><path
       style="fill:none;fill-opacity:1;stroke:#000000;stroke-width:0.1;stroke-linecap:round;stroke-linejoin:round;stroke-dasharray:none"
       d="m 33.274987,89.267153 c -0.29472,3.134457 0.22652,4.508635 1.126843,4.935104 0.900324,0.426469 2.416658,0.852938 4.691159,-0.189542 2.274501,-1.042479 6.887719,-3.155233 10.282641,-4.312075 3.459137,-1.178724 9.449478,-1.653964 10.28264,-4.075148 0.598247,-1.738515 0.60373,-3.545546 -0.596586,-5.467444 -0.796785,-1.275781 -2.092671,-3.280456 -4.663197,-4.246571 -5.046014,-1.896511 -8.712975,1.029076 -8.766307,0.947709"
       id="path52" /><path
       style="fill:none;fill-opacity:1;stroke:#000000;stroke-width:0.1;stroke-linecap:round;stroke-linejoin:round;stroke-dasharray:none"
       d="m 45.63218,76.859186 c -0.71638,0.500179 -1.855125,1.197656 -2.666168,2.101876 -1.009354,1.125315 -1.269803,2.824665 -2.513692,2.591436 -1.24389,-0.233229 -0.482685,-2.344158 0.673773,-3.653925 1.118266,-1.266513 3.994957,-1.465328 4.506087,-1.039387"
       id="path53" /><path
       style="fill:none;fill-opacity:1;stroke:#000000;stroke-width:0.1;stroke-linecap:round;stroke-linejoin:round;stroke-dasharray:none"
       d="m 37.096004,83.012382 c 1.585818,-1.594459 2.717719,-2.293816 2.717719,-2.293816"
       id="path54" /><path
       style="fill:none;fill-opacity:1;stroke:#000000;stroke-width:0.1;stroke-linecap:round;stroke-linejoin:round;stroke-dasharray:none"
       d="m 33.237111,91.855481 c 2.804378,-0.01796 4.654109,-3.16843 6.271917,-5.080813 1.822086,-2.16138 3.751358,-4.511059 5.205648,-5.261519 1.515349,-0.781968 2.502949,-1.141251 2.972965,-1.424498 0.554123,-0.333933 2.22687,-4.736934 5.898815,-4.445455"
       id="path55" /><path
       style="fill:none;fill-opacity:1;stroke:#000000;stroke-width:0.1;stroke-linecap:round;stroke-linejoin:round;stroke-dasharray:none"
       d="m 59.698153,85.506791 c 0.325911,-2.927789 -3.98416,-3.427557 -4.866343,-3.509276 -2.916907,-0.270198 -7.853026,0.978865 -12.305281,5.273692 -3.846992,3.710968 -7.489605,7.599417 -8.718219,6.4261"
       id="path56" /></g></svg>
