<?xml version="1.0" encoding="UTF-8" standalone="no"?>
<!-- Created with Inkscape (http://www.inkscape.org/) -->

<svg
   width="80"
   height="100"
   viewBox="0 0 80 100"
   version="1.1"
   id="svg1"
   xml:space="preserve"
   xmlns="http://www.w3.org/2000/svg"
   xmlns:svg="http://www.w3.org/2000/svg"
   xmlns:rdf="http://www.w3.org/1999/02/22-rdf-syntax-ns#"
   xmlns:cc="http://creativecommons.org/ns#"
   xmlns:dc="http://purl.org/dc/elements/1.1/"><defs
     id="defs1" /><metadata
     id="metadata1"><rdf:RDF><cc:Work
         rdf:about=""><dc:format>image/svg+xml</dc:format><dc:type
           rdf:resource="http://purl.org/dc/dcmitype/StillImage" /></cc:Work></rdf:RDF></metadata><g
     id="layer1"><path
       style="opacity:1;fill:none;stroke:#000000;stroke-width:0.1;stroke-linecap:round;stroke-dasharray:none"
       d="m 44.185912,15.396838 c 4.622692,0.800781 7.061434,5.860263 7.061434,5.860263 0,0 1.201172,-2.438743 1.091975,-4.440696 -0.109198,-2.001953 0.208218,-3.220605 0.535808,-4.858566 -5.53267,0.0728 -8.689217,3.438999 -8.689217,3.438999 z"
       id="path2" /><path
       style="fill:none;stroke:#000000;stroke-width:0.1;stroke-linecap:round;stroke-dasharray:none"
       d="m 35.289935,20.484229 c 1.340084,-1.976173 0.987192,-2.869026 2.498829,-3.671119 1.511638,-0.802093 3.023275,-0.586145 4.041317,0.09255 1.018041,0.678695 1.758435,2.313731 2.653077,4.380664"
       id="path1" /><path
       id="path3"
       style="opacity:1;fill:#000000;stroke:#000000;stroke-width:0.1;stroke-linecap:round;stroke-dasharray:none"
       d="m 26.194261,40.017578 c -1.836127,-0.02139 -3.057817,1.285264 -2.136719,2.533203 1.128372,1.528763 2.620919,1.928622 4.113281,2.074219 1.492364,0.145596 2.837891,-0.363993 2.837891,-1.601562 0,-1.23757 -2.400754,-2.765988 -4.439453,-2.984376 -0.127419,-0.01365 -0.252592,-0.02006 -0.375,-0.02148 z M 26.030198,40.8125 c 0.200037,-0.0075 0.439314,0.01674 0.710938,0.07813 0.869196,0.196428 0.917857,0.678962 0.9375,0.806641 0.01964,0.127677 -0.380903,0.68178 -1.156795,0.504994 -0.890312,-0.202855 -1.176659,-0.513672 -1.181096,-0.960072 -0.0025,-0.245773 0.249372,-0.413114 0.689453,-0.429688 z" /><path
       style="fill:none;stroke:#000000;stroke-width:0.1;stroke-linecap:round;stroke-dasharray:none"
       d="m 27.089267,40.120924 c 2.673565,-2.276157 4.029398,-2.32841 4.938587,-2.229125 3.592903,0.392351 3.258587,2.204194 5.441075,2.192088 1.214089,-0.0067 2.857542,-0.978611 4.736475,-2.818399 1.878932,-1.839787 4.319798,-4.387108 7.672306,-3.601286 4.483373,1.050894 4.138931,4.33568 4.031875,6.341396 -0.09837,1.842903 -2.641826,4.17409 -5.147069,5.622434 -2.505243,1.448344 -5.93559,2.896687 -9.92832,2.779254 -3.406116,-0.10018 -7.948943,-1.907318 -10.685346,-3.784448"
       id="path4" /><path
       style="fill:none;stroke:#000000;stroke-width:0.1;stroke-linecap:round;stroke-dasharray:none"
       d="m 44.12348,39.966454 c 1.996366,-1.68321 4.031875,-0.07829 4.031875,-0.07829"
       id="path5" /><path
       style="fill:none;stroke:#000000;stroke-width:0.1;stroke-linecap:round;stroke-dasharray:none"
       d="m 46.2399,39.200212 c 1.849941,4.691231 -3.240301,5.772204 -5.561129,5.933305"
       id="path6" /><path
       style="fill:none;stroke:#000000;stroke-width:0.1;stroke-linecap:round;stroke-dasharray:none"
       d="m 24.374414,40.547538 c -4.679276,-4.934713 -4.784122,-9.303313 -4.609378,-13.182629 0.174744,-3.879317 1.188259,-5.102525 1.782389,-5.172422 0.594129,-0.0699 1.397951,0.209692 2.90075,2.131876"
       id="path7" /><path
       style="fill:none;stroke:#000000;stroke-width:0.1;stroke-linecap:round;stroke-dasharray:none"
       d="m 53.94496,23.55549 c 1.957133,6.640271 1.439601,10.026684 -0.258766,13.121463"
       id="path58" /><path
       style="fill:none;stroke:#000000;stroke-width:0.1;stroke-linecap:round;stroke-dasharray:none"
       d="m 41.118751,14.224161 c 9.960408,-5.5568592 14.5967,-4.6266195 14.932314,-4.205815 0.335614,0.420805 -1.127539,2.947658 -1.232385,4.590251 -0.104847,1.642594 0.244641,2.760955 0.244641,3.984163 0,1.223208 -0.349488,3.424983 -1.118361,4.96273"
       id="path57" /><path
       style="fill:none;stroke:#000000;stroke-width:0.1;stroke-linecap:round;stroke-dasharray:none"
       d="m 22.061162,22.231351 c 4.588787,-6.504392 8.188513,-7.657702 9.901004,-8.181934 1.712491,-0.524232 6.089424,-0.997934 9.156585,0.174744"
       id="path8" /><path
       style="fill:none;stroke:#000000;stroke-width:0.1;stroke-linecap:round;stroke-dasharray:none"
       d="m 20.615116,23.105069 c -1.296763,-3.222309 -2.131005,-4.056551 -2.860966,-4.751752 -0.729962,-0.695202 -1.709025,-0.949702 -1.674265,-1.749184 0.03476,-0.799482 1.778545,-1.726823 2.543266,-1.865863 0.764722,-0.139041 4.14898,-0.684909 9.182924,1.360789"
       id="path9" /><path
       style="fill:none;stroke:#000000;stroke-width:0.1;stroke-linecap:round;stroke-dasharray:none"
       d="m 50.093485,58.912706 c 1.82159,-1.809927 4.359657,-4.283195 3.338826,-6.985175 -0.977687,-2.587786 -3.826012,-3.153601 -5.27783,-3.680302 -1.940058,-0.703826 -4.592537,-0.919256 -5.222711,0.509038 -0.216129,0.489858 0.231467,1.398561 1.581277,2.263347 1.349811,0.864785 2.549136,1.859844 3.471706,2.753058 0.95994,0.929396 0.385092,2.100993 -0.625321,2.925806"
       id="path10" /><path
       style="fill:none;stroke:#000000;stroke-width:0.1;stroke-linecap:round;stroke-dasharray:none"
       d="m 50.861111,58.143231 c 0.638196,1.076998 -0.767626,0.769475 -0.767626,0.769475 0,0 -1.673721,-0.439177 -2.372323,-1.317958 -0.370354,-0.465873 -0.749093,-1.782461 0.38542,-1.697434"
       id="path11" /><path
       style="fill:none;stroke:#000000;stroke-width:0.1;stroke-linecap:round;stroke-dasharray:none"
       d="m 48.365664,55.387223 c -1.554455,-0.324668 -2.882978,1.265104 -3.164958,2.111043 -0.28198,0.84594 -0.268662,1.89408 0.384519,2.665992 1.119231,1.32268 1.985157,1.703956 3.511931,1.794418 1.665098,0.09866 2.853368,-0.74386 3.417328,-2.025587 0.563959,-1.281726 0.101206,-2.322712 -0.607045,-2.92991"
       id="path12" /><path
       style="fill:none;stroke:#000000;stroke-width:0.1;stroke-linecap:round;stroke-dasharray:none"
       d="m 52.067268,60.691769 c 1.342464,2.189594 0.729983,3.822876 0.117503,4.877704"
       id="path13" /><path
       style="fill:none;stroke:#000000;stroke-width:0.1;stroke-linecap:round;stroke-dasharray:none"
       d="m 52.86349,63.491711 c 1.158723,0.410453 1.328857,1.499308 1.328857,1.499308"
       id="path14" /><path
       style="fill:none;stroke:#000000;stroke-width:0.1;stroke-linecap:round;stroke-dasharray:none"
       d="m 59.047599,36.001389 c 9.391667,9.960859 7.150063,20.876495 5.763068,20.846654 -1.386995,-0.02984 -4.475221,-7.218493 -13.821138,-7.521699"
       id="path56" /><path
       style="fill:none;stroke:#000000;stroke-width:0.1;stroke-linecap:round;stroke-dasharray:none"
       d="m 56.557384,19.352525 c 3.782051,4.560332 9.065656,5.189346 13.304861,11.739584 3.021398,4.668535 3.715012,8.406899 3.16722,9.035921 -0.473145,0.543306 -2.242283,-0.711489 -3.949858,-1.422979 -1.707576,-0.71149 -5.370854,-1.907009 -10.032008,-2.703662"
       id="path55" /><path
       style="fill:none;stroke:#000000;stroke-width:0.1;stroke-linecap:round;stroke-dasharray:none"
       d="M 34.611259,13.582006 C 46.383079,3.4863003 60.560457,5.2692095 65.865467,7.2388653 c 4.842427,1.7979064 -1.210184,2.2186853 -4.398802,4.7853137 -3.237467,2.605948 -4.695834,4.055493 -4.909281,7.328346"
       id="path15" /><path
       style="fill:none;stroke:#000000;stroke-width:0.1;stroke-linecap:round;stroke-dasharray:none"
       d="m 29.758317,32.925546 c 0.429395,2.250658 1.312998,3.35561 2.09926,3.154104 0.628563,-0.161091 1.640377,-0.87579 1.882589,-2.685651 1.204593,-9.000988 3.755803,-13.641093 6.524879,-13.417829 2.138127,0.172391 3.726449,4.335934 3.781085,8.766761 0.0512,4.15221 -0.866049,6.476602 -2.373758,9.02704"
       id="path16" /><path
       style="fill:none;stroke:#000000;stroke-width:0.1;stroke-linecap:round;stroke-dasharray:none"
       d="m 25.608777,40.057473 c -3.370365,-4.10644 -3.881081,-6.529631 -4.282612,-8.972278 -0.401531,-2.442647 0.392477,-5.329601 1.02533,-5.034278 0.648384,0.302571 1.939691,2.399995 2.910058,4.03958 0.498076,0.841577 1.525884,2.760006 2.657123,4.213089 m 1.872198,1.666067 c 0.408288,0.145672 0.860736,0.130869 1.208657,-0.169879"
       id="path17" /><path
       id="path18"
       style="display:inline;fill:#000000;stroke:#000000;stroke-width:0.1;stroke-linecap:round;stroke-dasharray:none"
       d="m 27.91887,34.302734 c -1.115347,1.570393 1.272243,3.903135 1.738281,3.25586 0.466039,-0.647276 0.278464,-1.133446 0.132813,-1.589844 -1.086358,-0.490298 -1.871094,-1.666016 -1.871094,-1.666016 z m 0.429688,1.080078 c 0.182218,0.272763 0.349921,0.439629 0.595267,0.564121 0.04715,0.300794 -0.02111,0.649466 -0.170828,0.584218 -0.207788,-0.09055 -0.67818,-0.869829 -0.424439,-1.148339 z" /><path
       id="path19"
       style="display:inline;fill:#000000;stroke:#000000;stroke-width:0.1;stroke-linecap:round;stroke-dasharray:none"
       d="m 40.217698,26.583984 c -0.04739,-0.0035 -0.09345,0.0035 -0.134765,0.02148 -0.66103,0.288347 -1.537305,2.342021 -1.294922,5.990234 0.239452,3.604092 1.163963,5.014942 1.947265,4.951172 0.796747,-0.06486 1.588534,-2.601809 1.558594,-5.365234 -0.03393,-3.131788 -1.365252,-5.545679 -2.076172,-5.597657 z m 0.542969,2.814454 c 0.01913,0.612068 -0.09443,1.664062 -0.496094,1.664062 -0.401669,0 -0.527349,-0.742657 -0.603849,-1.474161 0.01658,-0.452258 0.09148,-1.521963 0.548709,-1.599918 0.457224,-0.07795 0.532704,0.817076 0.551234,1.410017 z" /><path
       style="fill:none;stroke:#000000;stroke-width:0.1;stroke-linecap:round"
       d="m 52.263821,66.752858 c 1.320467,0 2.166529,0.0062 2.684153,-0.572435 0.831621,-0.929684 0.842085,-2.703864 0.809942,-3.443166 -0.05215,-1.199466 -0.33022,-2.680088 -1.771456,-2.736995 -1.432956,-0.05658 -1.699871,1.076517 -1.699871,1.076517"
       id="path20" /><path
       style="fill:none;stroke:#000000;stroke-width:0.1;stroke-linecap:round"
       d="m 50.369998,67.66598 c 5.955759,1.75457 5.83915,-2.052986 5.205899,-2.779542"
       id="path21" /><path
       style="fill:none;stroke:#000000;stroke-width:0.1;stroke-linecap:round"
       d="m 48.502073,68.053028 c 4.110278,2.884424 5.117444,1.247773 5.590851,-0.03781"
       id="path22" /><path
       style="fill:none;stroke:#000000;stroke-width:0.1;stroke-linecap:round"
       d="m 45.599867,60.181525 c -2.125939,3.245749 -0.689764,6.379292 1.117178,8.09228 1.834038,1.738674 4.152349,2.297702 4.759758,1.308407"
       id="path23" /><path
       style="fill:none;stroke:#000000;stroke-width:0.1;stroke-linecap:round"
       d="m 46.431851,55.904676 c -0.3547,-3.834332 -3.849377,-6.636732 -7.826818,-6.876549 -3.725274,-0.224612 -9.511283,2.647868 -9.558432,9.814612 -0.04715,7.166744 5.139309,9.712823 9.712823,9.665674 4.573515,-0.04715 5.992277,-3.435834 5.992277,-3.435834"
       id="path24" /><path
       style="fill:none;stroke:#000000;stroke-width:0.1;stroke-linecap:round"
       d="M 33.505722,50.405783 C 34.251576,48.72758 35.76414,48.148772 35.84714,47.976132"
       id="path25" /><path
       style="fill:none;stroke:#000000;stroke-width:0.1;stroke-linecap:round"
       d="m 32.517175,66.649981 c 3.524696,3.500802 7.347298,3.302874 8.89078,2.991612 3.003779,-0.605749 4.286003,-2.568633 4.286003,-2.568633"
       id="path26" /><path
       style="fill:none;stroke:#000000;stroke-width:0.1;stroke-linecap:round"
       d="m 34.885259,47.721743 c -1.713459,0.142731 -2.517879,1.063268 -3.974462,2.648948 -1.106872,1.204974 -3.838512,4.034355 -4.778557,3.995187 -2.387207,-0.09947 -3.669988,-1.273952 -3.669988,-1.273952"
       id="path27" /><path
       style="fill:none;stroke:#000000;stroke-width:0.1;stroke-linecap:round"
       d="m 19.121079,49.587321 c -0.352517,2.154267 -3.090697,2.914148 -3.525165,2.8593 -1.281375,-0.161762 -2.260988,-1.588883 -2.154268,-2.389279 0.235011,-1.762582 1.605909,-1.919255 2.859301,-2.898468 1.253392,-0.979212 1.645077,-1.449235 2.35011,-1.410066 0.705033,0.03917 3.587367,1.587491 3.352356,4.250949 -0.235011,2.663458 -1.979276,4.27855 -3.204916,4.366121 -2.189254,0.15642 -2.928743,-1.027932 -2.871488,-1.950717"
       id="path28" /><path
       style="fill:none;stroke:#000000;stroke-width:0.1;stroke-linecap:round"
       d="m 10.117785,50.036938 c 1.6401,2.58504 3.018385,2.484105 4.052737,1.647304"
       id="path29" /><path
       style="fill:none;stroke:#000000;stroke-width:0.1;stroke-linecap:round"
       d="m 14.108318,48.634622 c -2.489425,-2.684034 -3.178198,-2.299186 -4.1295246,-1.93348 -1.0590991,0.407135 -2.6438442,2.992663 0.083395,5.948836 1.948876,2.112471 4.414144,2.783743 6.350763,1.044251"
       id="path30" /><path
       style="fill:none;stroke:#000000;stroke-width:0.1;stroke-linecap:round"
       d="m 12.482056,47.098914 c 1.537618,-1.659721 4.880521,-0.790378 4.880521,-0.790378"
       id="path31" /><path
       style="fill:none;stroke:#000000;stroke-width:0.1;stroke-linecap:round"
       d="m 12.816178,46.796601 c -1.800071,-3.330469 -2.502579,-5.491592 -1.6796,-6.740249 0.822978,-1.248657 1.728394,-1.778676 2.738532,-1.660146 0.935328,0.109752 1.390549,0.666896 1.475685,1.37636 0.08394,0.699463 0.28743,3.226529 1.422572,6.419117"
       id="path32" /><path
       style="fill:none;stroke:#000000;stroke-width:0.1;stroke-linecap:round"
       d="m 15.748609,42.471574 c 0.30792,-3.552443 1.943418,-4.571993 3.362347,-4.302397 1.418928,0.269597 1.898791,1.216088 1.941359,2.18096 0.04257,0.964871 -0.618043,2.320756 -0.68899,3.995092 -0.07095,1.674335 0.322416,2.550525 0.322416,2.550525"
       id="path33" /><path
       style="fill:none;stroke:#000000;stroke-width:0.1;stroke-linecap:round"
       d="M 9.3549503,47.152865 C 6.9365492,45.06517 7.1635778,42.28407 7.3480385,41.446902 c 0.1844607,-0.837167 0.9906802,-1.974 2.3270428,-1.858796 0.8229787,0.07095 1.3473807,0.666538 1.3473807,0.666538"
       id="path34" /><path
       style="fill:none;stroke:#000000;stroke-width:0.1;stroke-linecap:round"
       d="m 14.911748,54.559973 c 0.220226,3.811972 3.854594,3.515808 4.450878,3.369551 1.46552,-0.359463 2.820436,-1.410218 3.069298,-2.931041 0.23374,-1.42841 -0.0039,-2.53915 -0.795595,-3.359351"
       id="path35" /><path
       style="fill:none;stroke:#000000;stroke-width:0.1;stroke-linecap:round"
       d="m 29.046445,58.870348 c -1.988294,1.39491 -4.466519,0.852678 -8.052694,-1.68216"
       id="path36" /><path
       style="fill:none;stroke:#000000;stroke-width:0.1;stroke-linecap:round"
       d="m 33.957142,67.876215 c -3.060085,6.49965 -2.817592,7.192485 -2.817592,8.370305 0,1.17782 1.628162,5.092339 1.628162,5.092339"
       id="path37" /><path
       style="fill:none;stroke:#000000;stroke-width:0.1;stroke-linecap:round"
       d="m 38.452427,69.708787 c -2.774806,3.974243 -3.017299,4.355302 -3.051941,6.433808 -0.03464,2.078506 0.523148,3.518386 0.938849,4.280505"
       id="path38" /><path
       style="fill:none;stroke:#000000;stroke-width:0.1;stroke-linecap:round"
       d="m 32.213426,79.935298 c -1.73207,0.849293 -0.554251,1.230352 0.554286,1.403561 1.108537,0.173209 2.286357,-0.103924 3.602744,-0.935327 1.316387,-0.831403 0.603428,-1.366284 -0.598972,-1.393298"
       id="path39" /><path
       style="fill:none;stroke:#000000;stroke-width:0.1;stroke-linecap:round"
       d="m 35.500769,77.780957 c 4.749564,-0.321975 4.229938,4.112171 2.324641,5.08214"
       id="path40" /><path
       style="fill:none;stroke:#000000;stroke-width:0.1;stroke-linecap:round"
       d="m 31.685094,78.466227 c -6.122983,2.976098 -2.088322,4.11486 -1.44623,4.639362"
       id="path41" /><path
       style="fill:none;stroke:#000000;stroke-width:0.1;stroke-linecap:round"
       d="m 29.177626,82.479648 c -2.43758,1.007001 -0.463,2.184821 0.160552,2.496596 0.623552,0.311776 2.598132,0.866045 5.611966,0.58891 3.013833,-0.277134 4.226294,-0.79676 4.399503,-1.870654 0.173209,-1.073895 -0.784659,-1.459549 -0.785734,-1.458174"
       id="path42" /><path
       style="fill:none;stroke:#000000;stroke-width:0.1;stroke-linecap:round"
       d="m 39.352543,83.675909 c 2.907013,1.57747 2.560595,2.686006 2.525953,2.997782 -0.03464,0.311776 -1.212462,1.939939 -4.399504,3.221684 -3.187042,1.281745 -10.046111,3.568101 -15.484868,4.191653 -5.438757,0.623552 -6.68586,-0.103925 -6.68586,-0.762119 0,-0.658193 0.831402,-1.697446 1.801372,-2.424923 0.969969,-0.727477 6.517162,-4.927733 11.052978,-6.828729"
       id="path43" /><path
       style="fill:none;stroke:#000000;stroke-width:0.1;stroke-linecap:round"
       d="m 24.212256,86.096893 c 4.987355,3.244214 5.073079,6.504789 5.073079,6.504789"
       id="path44" /><path
       style="fill:none;stroke:#000000;stroke-width:0.1;stroke-linecap:round"
       d="m 32.586638,85.622142 c 3.506684,2.783637 2.743939,5.083296 2.743939,5.083296"
       id="path45" /><path
       style="fill:none;stroke:#000000;stroke-width:0.1;stroke-linecap:round"
       d="m 42.530297,69.330641 c 4.76731,6.659252 3.437709,9.868838 3.189556,11.385327"
       id="path46" /><path
       style="fill:none;stroke:#000000;stroke-width:0.1;stroke-linecap:round"
       d="m 47.58199,68.985547 c 3.493054,6.673476 3.217328,6.50804 2.142,11.719249"
       id="path47" /><path
       style="fill:none;stroke:#000000;stroke-width:0.1;stroke-linecap:round"
       d="m 46.034428,79.082144 c -1.990379,0.740331 -1.245922,1.181491 -0.280883,1.650224 0.965039,0.468733 2.509101,0.496306 3.970445,-0.02757 1.461344,-0.523878 2.683904,-1.177981 0.321768,-1.540243"
       id="path48" /><path
       style="fill:none;stroke:#000000;stroke-width:0.1;stroke-linecap:round"
       d="m 46.077819,78.085724 c -6.252368,1.736751 -3.109099,3.832263 -1.344457,4.714584"
       id="path49" /><path
       style="fill:none;stroke:#000000;stroke-width:0.1;stroke-linecap:round"
       d="m 50.237573,78.191381 c 5.690236,0.803918 4.256464,2.430697 3.732586,2.844285 -0.523878,0.413588 -1.213191,0.689313 -1.709496,1.626779"
       id="path50" /><path
       style="fill:none;stroke:#000000;stroke-width:0.1;stroke-linecap:round"
       d="m 43.159725,81.805258 c -0.742456,0.526317 -1.486914,1.381065 -0.963036,2.070379 0.523879,0.689313 2.316093,2.012794 6.010812,1.764642 3.694719,-0.248153 5.486933,-1.047757 5.569651,-2.233375 0.08272,-1.185619 -0.9547,-1.505289 -0.9547,-1.505289"
       id="path51" /><path
       style="fill:none;stroke:#000000;stroke-width:0.1;stroke-linecap:round"
       d="m 42.79127,84.44319 c -1.028444,1.29482 -0.539435,2.244845 0.09473,2.851441 0.634168,0.606595 9.236797,5.23878 16.874388,5.790231 7.637591,0.55145 6.644979,0.110295 6.700125,-0.689314 0.03041,-0.440973 -1.378627,-2.06794 -3.005406,-3.363848 -1.626779,-1.295909 -5.841756,-4.469587 -9.676148,-5.653787"
       id="path52" /><path
       style="fill:none;stroke:#000000;stroke-width:0.1;stroke-linecap:round"
       d="m 50.314655,85.407708 c -2.631032,1.335472 -2.057999,3.930631 -1.930928,4.673418"
       id="path53" /><path
       style="fill:none;stroke:#000000;stroke-width:0.1;stroke-linecap:round"
       d="m 58.832849,85.781936 c -5.693041,2.285547 -4.556337,4.360322 -4.441688,6.358988"
       id="path54" /><path
       style="fill:none;stroke:#000000;stroke-width:0.1;stroke-linecap:round"
       d="m 53.490266,54.337714 c 6.539874,7.350449 4.268995,15.930105 3.47526,16.578159 -0.755465,0.616808 -1.108936,-1.216549 -3.005551,-2.570276"
       id="path59" /></g></svg>
