<?xml version="1.0" encoding="UTF-8" standalone="no"?>
<!-- Created with Inkscape (http://www.inkscape.org/) -->

<svg
   width="100"
   height="100"
   viewBox="0 0 100 100"
   version="1.1"
   id="svg1"
   xml:space="preserve"
   xmlns="http://www.w3.org/2000/svg"
   xmlns:svg="http://www.w3.org/2000/svg"><defs
     id="defs1" /><g
     id="layer1"><path
       style="display:inline;fill:#000000;fill-opacity:1;stroke:#000000;stroke-width:0.0990693;stroke-linecap:round;stroke-dasharray:none"
       d="m 78.457722,53.398735 c -5.906816,4.310378 -14.288106,2.474475 -17.081867,-6.705033 -6.783498,-4.324043 -6.198345,-7.758623 -6.9099,-7.825576 -1.512037,-0.142265 -4.02569,5.750208 -0.832819,8.464148 -0.798217,5.028778 2.314834,5.188419 2.953406,5.58753 1.117507,3.512157 3.03323,3.671802 5.26824,3.272692 1.356972,2.634123 3.43234,3.272695 6.305926,2.713944 2.554295,2.075368 4.230557,0.957862 5.108595,0.0798 3.113051,1.277147 4.230557,-1.516617 4.629664,-2.155193 3.795437,-0.944497 3.235457,-3.172279 3.210408,-3.217539 -0.105341,-0.190348 -0.807152,-0.0071 -1.370891,0.03108 -0.787511,0.05355 -1.280762,-0.245809 -1.280762,-0.245809 z"
       id="path4" /><path
       style="display:inline;fill:none;fill-opacity:1;stroke:#000000;stroke-width:0.0990693;stroke-linecap:round;stroke-dasharray:none"
       d="m 69.313007,37.588349 c 1.594652,-4.171869 3.489105,-4.229696 4.438578,-4.346713 0.79017,-0.09738 1.831417,0.271401 2.695303,1.024688 1.61072,1.404507 2.604854,4.14568 0.205328,7.694144"
       id="path5" /><path
       style="fill:none;stroke:#000000;stroke-width:0.0990693;stroke-linecap:round;stroke-dasharray:none"
       d="m 78.457722,53.398735 c 4.166068,-3.048569 2.167745,-7.859538 0.478931,-9.658443 -1.004694,-1.070187 -3.441265,-2.872817 -6.62859,-3.401371 m -3.85577,0.04662 c -1.12133,0.216413 -2.28938,0.623563 -3.48446,1.279399"
       id="path3" /><path
       style="display:inline;fill:none;fill-opacity:1;stroke:#000000;stroke-width:0.0990693;stroke-linecap:round;stroke-dasharray:none"
       d="m 56.554344,40.376946 c 0.278389,0.482563 1.162104,1.29058 2.782493,1.632455 2.379451,0.502025 7.520326,-2.220363 7.546719,-9.36434 0.01348,-3.599931 -1.995544,-5.439435 -4.470019,-5.279792 -2.475018,0.159678 -6.365716,3.905617 -6.805494,8.138888"
       id="path6" /><path
       style="fill:none;fill-opacity:1;stroke:#000000;stroke-width:0.0990693;stroke-linecap:round;stroke-dasharray:none"
       d="m 69.889352,36.268759 c 4.209819,-1.999815 4.599698,2.99025 3.731356,4.367287"
       id="path7" /><path
       style="fill:none;fill-opacity:1;stroke:#000000;stroke-width:0.0990693;stroke-linecap:round;stroke-dasharray:none"
       d="m 56.98199,31.606662 c 6.705025,-4.879695 7.938658,8.215304 1.461759,10.144943"
       id="path8" /><path
       style="fill:none;fill-opacity:1;stroke:#000000;stroke-width:0.0990693;stroke-linecap:round;stroke-dasharray:none"
       d="m 56.74919,53.392657 c -2.763469,1.641529 -3.312709,5.351026 -1.226555,7.431016 2.475175,2.467858 6.891685,1.761879 9.225033,-1.966605"
       id="path15" /><path
       style="fill:none;fill-opacity:1;stroke:#000000;stroke-width:0.0990693;stroke-linecap:round;stroke-dasharray:none"
       d="m 63.333322,60.553657 c 0.08557,-1.891019 -0.313478,-2.736151 -0.313478,-2.736151"
       id="path16" /><path
       style="fill:none;fill-opacity:1;stroke:#000000;stroke-width:0.0990693;stroke-linecap:round;stroke-dasharray:none"
       d="m 49.449917,56.725775 c 0.790637,7.010466 8.232827,10.100168 12.225713,6.80488"
       id="path17" /><path
       style="fill:none;fill-opacity:1;stroke:#000000;stroke-width:0.0990693;stroke-linecap:round;stroke-dasharray:none"
       d="m 60.562082,64.247232 c 8.437732,3.04048 17.557817,-1.786053 17.880204,-7.568964"
       id="path18" /><path
       style="fill:none;fill-opacity:1;stroke:#000000;stroke-width:0.0990693;stroke-linecap:round;stroke-dasharray:none"
       d="m 44.370449,30.385191 c -4.510358,-8.058506 -10.283617,-1.744006 -10.163341,5.292152 0.120277,7.036157 3.488011,9.321407 6.555054,9.201131"
       id="path19" /><path
       style="fill:none;fill-opacity:1;stroke:#000000;stroke-width:0.0990693;stroke-linecap:round;stroke-dasharray:none"
       d="m 40.762162,44.878474 c 0.516473,6.133706 4.919007,11.533831 9.036082,13.578226"
       id="path20" /><path
       style="fill:#000000;fill-opacity:1;stroke:#000000;stroke-width:0.0990693;stroke-linecap:round;stroke-dasharray:none"
       d="m 72.819297,31.590191 c -0.318534,-0.167722 3.775747,-5.54788 7.458326,-2.771868 2.528202,1.905817 0.179152,6.411454 -0.08572,6.200985 -0.300184,-0.238507 0.305913,-2.052791 -1.683999,-3.690423 -2.618583,-2.094848 -5.371787,0.428125 -5.688609,0.261306 z"
       id="path21" /><path
       style="fill:#000000;fill-opacity:1;stroke:#000000;stroke-width:0.0990693;stroke-linecap:round;stroke-dasharray:none"
       d="m 65.761031,25.103447 c -3.335949,-1.727985 -6.383196,1.163883 -6.686776,1.143039 -0.748771,-0.05141 3.430153,-5.530449 8.058424,-3.800603 3.758259,1.404673 2.267294,6.85251 1.800283,7.001111 -0.518098,0.164854 -0.117887,-2.76158 -3.171931,-4.343547 z"
       id="path22" /><path
       style="fill:none;fill-opacity:1;stroke:#000000;stroke-width:0.0990693;stroke-linecap:round;stroke-dasharray:none"
       d="m 80.786921,34.172569 c 1.256203,3.527838 -1.128696,10.505625 -1.128696,10.505625"
       id="path23" /><path
       style="fill:none;fill-opacity:1;stroke:#000000;stroke-width:0.0990693;stroke-linecap:round;stroke-dasharray:none"
       d="m 69.550589,25.633526 c 3.41926,1.008829 5.880063,3.213573 5.880063,3.213573"
       id="path24" /><path
       style="fill:none;fill-opacity:1;stroke:#000000;stroke-width:0.0990693;stroke-linecap:round;stroke-dasharray:none"
       d="m 44.370449,30.385191 c 8.84613,-12.201774 24.506899,-10.587328 30.678693,-8.941066 9.41497,2.511344 15.40998,7.892327 14.74407,13.987964 -0.614335,5.62354 -9.196303,5.779593 -9.196303,5.779593"
       id="path25" /><path
       style="fill:none;fill-opacity:1;stroke:#000000;stroke-width:0.0990693;stroke-linecap:round;stroke-dasharray:none"
       d="m 44.370449,30.385191 c 0.623473,5.755747 1.428805,7.41927 3.600639,7.551499 2.259977,0.137596 3.213832,-1.228483 1.559473,-3.307965 2.079289,1.890266 3.118938,-2.079291 2.032034,-2.882654 -1.086901,-0.803363 -3.226204,-2.577739 -2.440091,-6.250816"
       id="path26" /><path
       style="fill:none;fill-opacity:1;stroke:#000000;stroke-width:0.0990693;stroke-linecap:round;stroke-dasharray:none"
       d="m 49.975815,24.875437 c 4.533524,2.972284 8.565554,-0.605821 10.945237,-1.068412"
       id="path27" /><path
       style="fill:none;fill-opacity:1;stroke:#000000;stroke-width:0.0990693;stroke-linecap:round;stroke-dasharray:none"
       d="m 68.350229,23.182019 c 15.511441,0.914557 18.654843,7.382636 18.654843,7.382636"
       id="path28" /><path
       style="fill:none;fill-opacity:1;stroke:#000000;stroke-width:0.0990693;stroke-linecap:round;stroke-dasharray:none"
       d="M 39.398573,40.984107 C 43.693635,36.959885 41.583878,31.58913 37.81491,31.350153"
       id="path29" /><path
       style="fill:none;fill-opacity:1;stroke:#000000;stroke-width:0.0990693;stroke-linecap:round;stroke-dasharray:none"
       d="m 38.51876,33.637667 c 3.87118,1.143757 3.049644,3.926497 3.049644,3.926497"
       id="path30" /><path
       style="fill:none;fill-opacity:1;stroke:#000000;stroke-width:0.0990693;stroke-linecap:round;stroke-dasharray:none"
       d="m 68.450795,20.398829 c -1.403344,-4.55811 4.052421,-8.013123 8.651943,-5.898814 5.8392,2.684164 4.093681,7.779667 2.613456,8.538428"
       id="path31" /><path
       style="fill:none;fill-opacity:1;stroke:#000000;stroke-width:0.0990693;stroke-linecap:round;stroke-dasharray:none"
       d="m 71.074973,19.534834 2.94161,-3.083949 1.281027,3.748183 2.656937,-2.562049 0.237234,3.748183"
       id="path32" /><path
       style="fill:none;fill-opacity:1;stroke:#000000;stroke-width:0.0990693;stroke-linecap:round;stroke-dasharray:none"
       d="M 43.391331,26.415597 C 37.739697,16.498574 41.122203,7.722723 41.738497,7.4879445 c 1.119664,-0.4265388 9.650436,4.0521175 12.209671,10.0769765 -4.090667,6.772454 -8.123225,8.07316 -10.556837,8.850676 z"
       id="path33" /><path
       style="fill:none;fill-opacity:1;stroke:#000000;stroke-width:0.0990693;stroke-linecap:round;stroke-dasharray:none"
       d="M 52.660546,15.277886 C 64.451682,2.3161632 75.595004,6.1550111 79.860392,8.6076086 84.125776,11.060206 90.369924,20.029084 85.741256,26.680294"
       id="path34" /><path
       style="fill:none;fill-opacity:1;stroke:#000000;stroke-width:0.0990693;stroke-linecap:round;stroke-dasharray:none"
       d="m 44.137776,11.006888 c 5.864908,5.491686 5.743996,9.740139 0.426541,12.689526"
       id="path35" /><path
       style="fill:none;fill-opacity:1;stroke:#000000;stroke-width:0.0990693;stroke-linecap:round;stroke-dasharray:none"
       d="m 46.901055,14.090361 c -2.810916,2.855155 -0.936524,7.238383 0.152301,7.757149"
       id="path36" /><path
       style="fill:none;fill-opacity:1;stroke:#000000;stroke-width:0.0990693;stroke-linecap:round;stroke-dasharray:none"
       d="m 89.416316,31.868362 c 2.280521,-4.066514 2.120569,-4.279783 1.960617,-4.706321 -0.159952,-0.426539 -2.594665,-1.342581 -5.055337,-1.431035"
       id="path37" /><path
       style="fill:none;fill-opacity:1;stroke:#000000;stroke-width:0.0990693;stroke-linecap:round;stroke-dasharray:none"
       d="m 37.24674,27.61183 c 0.63105,-4.529547 4.554037,-4.856926 4.421991,-4.856926"
       id="path38" /><path
       id="path39"
       style="fill:#000000;fill-opacity:1;stroke:#000000;stroke-width:0.0990693;stroke-linecap:round;stroke-dasharray:none"
       d="m 46.797155,63.132762 -9.24824,12.274864 5.308205,2.682166 c 0.930521,-1.080755 1.889255,-2.213353 2.970508,-3.595573 0.0013,-0.0013 6.947269,5.212629 10.50417,0.114179 3.816479,-5.470534 -3.825725,-8.622142 -4.967615,-9.250176 -1.553435,-0.854389 -2.936048,-1.245305 -4.567028,-2.22546 z m 2.569923,5.76491 c 0,0 4.200595,2.039534 2.968568,3.769736 -1.147386,1.611335 -4.795383,-0.913407 -4.795383,-0.913407 z" /><path
       style="fill:#000000;fill-opacity:1;stroke:#000000;stroke-width:0.0990693;stroke-linecap:round;stroke-dasharray:none"
       d="m 49.373942,58.234693 c -1.202521,3.164796 -2.189394,5.122817 -2.189394,5.122817"
       id="path41" /><path
       style="fill:none;fill-opacity:1;stroke:#000000;stroke-width:0.0990693;stroke-linecap:round;stroke-dasharray:none"
       d="m 42.612119,68.687412 c -3.607342,1.642989 -6.796037,0.340605 -8.658531,-1.886731 -1.974297,-2.361041 -1.705176,-7.063609 3.852318,-10.921525 3.870176,-2.686607 4.906859,-4.640082 4.906859,-4.640082"
       id="path42" /><path
       style="fill:none;fill-opacity:1;stroke:#000000;stroke-width:0.0990693;stroke-linecap:round;stroke-dasharray:none"
       d="m 40.349106,59.137225 c -3.267947,-0.797918 -5.746464,2.781302 -5.797844,4.528442 -0.03971,1.350295 1.268913,4.167588 3.969509,4.247019 2.700594,0.07943 5.519352,-2.031797 5.560047,-5.321756 -0.197838,-2.447236 -2.755298,-3.215303 -3.731712,-3.453705 z"
       id="path43" /><path
       style="fill:none;fill-opacity:1;stroke:#000000;stroke-width:0.0990693;stroke-linecap:round;stroke-dasharray:none"
       d="m 59.878029,64.52789 c -1.074419,1.962582 -3.380505,4.552356 -3.380505,4.552356"
       id="path44" /><path
       style="fill:none;fill-opacity:1;stroke:#000000;stroke-width:0.0990693;stroke-linecap:round;stroke-dasharray:none"
       d="m 65.95984,65.186126 c 0.522644,6.651414 -0.964888,8.782202 -2.814249,10.792381 -1.849362,2.010175 -6.667072,3.030781 -8.781113,0.369575"
       id="path45" /><path
       style="fill:none;fill-opacity:1;stroke:#000000;stroke-width:0.0990693;stroke-linecap:round;stroke-dasharray:none"
       d="m 57.368518,71.234301 c 3.427255,-1.838648 5.156004,-0.310932 5.718856,0.734379 0.562848,1.045292 0.319769,3.702187 -2.756029,4.813897 -3.075831,1.11171 -4.528816,-0.399545 -4.978144,-1.084253"
       id="path46" /><path
       style="fill:none;fill-opacity:1;stroke:#000000;stroke-width:0.0990693;stroke-linecap:round;stroke-dasharray:none"
       d="m 65.309539,72.69448 c 8.329174,-1.540397 11.625863,-2.545485 12.992781,-2.94752 3.351498,-3.540427 -0.153013,-8.359095 -1.056493,-9.734929"
       id="path47" /><path
       style="fill:none;fill-opacity:1;stroke:#000000;stroke-width:0.0990693;stroke-linecap:round;stroke-dasharray:none"
       d="m 78.211138,58.00948 c 2.27169,0.528703 3.129928,1.953168 3.129928,1.953168"
       id="path48" /><path
       style="fill:none;fill-opacity:1;stroke:#000000;stroke-width:0.0990693;stroke-linecap:round;stroke-dasharray:none"
       d="m 76.178906,70.347058 c 3.20891,4.143918 5.94275,0.967838 6.505599,-1.082541"
       id="path49" /><path
       style="fill:none;fill-opacity:1;stroke:#000000;stroke-width:0.0990693;stroke-linecap:round;stroke-dasharray:none"
       d="m 85.538954,56.962237 c 4.502798,-7.236634 6.392364,-6.07073 7.156229,-5.507881 0.763866,0.562848 1.634422,1.473967 0.562849,5.065642 -0.621747,2.08397 -4.589681,7.459375 -4.46259,8.362334 0.128035,0.909573 6.979883,3.052138 6.39236,5.829512 -0.442239,2.090583 -3.020378,1.862165 -3.939945,1.487531 -2.170992,-0.884468 -2.291601,-1.366922 -4.663611,-0.321642 -2.372006,1.045292 -3.877688,0.669482 -5.416448,-0.228096"
       id="path50" /><path
       style="fill:none;fill-opacity:1;stroke:#000000;stroke-width:0.0990693;stroke-linecap:round;stroke-dasharray:none"
       d="m 79.023678,58.25487 c 3.82164,-3.343012 7.875544,-3.341945 7.875544,-3.341945"
       id="path51" /><path
       style="fill:none;fill-opacity:1;stroke:#000000;stroke-width:0.0990693;stroke-linecap:round;stroke-dasharray:none"
       d="m 83.963989,55.458775 c 3.54494,-3.843606 6.394779,-4.093344 6.394779,-4.093344"
       id="path52" /><path
       style="fill:none;fill-opacity:1;stroke:#000000;stroke-width:0.0990693;stroke-linecap:round;stroke-dasharray:none"
       d="m 21.130796,32.195458 c 0.763915,-4.074207 3.628592,-5.856673 4.647143,-6.238629 -0.254638,-4.392506 3.946889,-8.148416 5.983993,-7.002545 2.037103,1.145871 1.718806,3.246634 1.27319,4.328846 -0.445617,1.082211 -1.209531,2.928337 -1.209531,3.437612 0,0.509276 0.885968,1.484443 0.509276,4.074208 -0.509275,3.501271 -2.801018,5.156418 -2.801018,5.156418"
       id="path53" /><path
       style="fill:none;fill-opacity:1;stroke:#000000;stroke-width:0.0990693;stroke-linecap:round;stroke-dasharray:none"
       d="m 16.292675,26.084147 c 3.373953,-3.246634 4.774461,-4.456164 7.002544,-5.856673 0.254638,-6.620587 3.628591,-10.9494326 6.174971,-10.185519 2.54638,0.763914 1.897243,5.706448 0.884961,8.773557"
       id="path54" /><path
       style="fill:none;fill-opacity:1;stroke:#000000;stroke-width:0.0990693;stroke-linecap:round;stroke-dasharray:none"
       d="M 19.474389,23.110778 C 18.702911,12.971556 25.737507,7.8807175 27.793513,10.208301"
       id="path55" /><path
       style="fill:none;fill-opacity:1;stroke:#000000;stroke-width:0.0990693;stroke-linecap:round;stroke-dasharray:none"
       d="M 17.301285,25.118798 C 15.528761,21.309685 16.570379,13.761889 21.492456,13.493409"
       id="path56" /><path
       style="fill:none;fill-opacity:1;stroke:#000000;stroke-width:0.0990693;stroke-linecap:round;stroke-dasharray:none"
       d="m 22.085689,39.516299 c -5.347397,1.846127 -10.885774,-3.819569 -7.57548,-11.522367 -1.909785,-8.084755 0.966182,-9.2305 2.297386,-9.70801"
       id="path57" /><path
       style="fill:none;fill-opacity:1;stroke:#000000;stroke-width:0.0990693;stroke-linecap:round;stroke-dasharray:none"
       d="m 18.748166,39.730428 c -0.227407,4.623994 3.592161,4.305697 4.674372,4.114719 1.082211,-0.190985 9.251816,-3.619607 10.231126,-8.828989 0.37929,-2.017615 -1.662218,-2.745917 -1.662218,-2.745917"
       id="path58" /><path
       style="fill:none;fill-opacity:1;stroke:#000000;stroke-width:0.0990693;stroke-linecap:round;stroke-dasharray:none"
       d="m 33.448151,35.803496 c -0.02228,0.08383 0.821651,1.174743 0.821651,1.174743"
       id="path59" /><path
       style="fill:none;fill-opacity:1;stroke:#000000;stroke-width:0.0990693;stroke-linecap:round;stroke-dasharray:none"
       d="m 22.71069,43.926391 c 6.112472,10.206584 9.301536,12.757835 9.301536,12.757835"
       id="path60" /><path
       style="fill:none;fill-opacity:1;stroke:#000000;stroke-width:0.0990693;stroke-linecap:round;stroke-dasharray:none"
       d="m 30.31987,54.927724 c -5.770055,5.455818 -6.280305,8.708662 -6.471649,11.515039"
       id="path61" /><path
       style="fill:none;fill-opacity:1;stroke:#000000;stroke-width:0.0990693;stroke-linecap:round;stroke-dasharray:none"
       d="m 29.19282,56.032454 c 0.140592,3.521931 2.363355,4.250854 4.87224,3.593157"
       id="path62" /><path
       style="fill:none;fill-opacity:1;stroke:#000000;stroke-width:0.0990693;stroke-linecap:round;stroke-dasharray:none"
       d="m 23.976747,65.11251 c -4.719605,3.604823 -4.788162,7.212293 -4.404829,10.171365 0.28146,2.172681 4.974508,9.655166 11.783716,4.946254 6.86503,4.289688 10.758875,3.131779 10.813864,3.200515"
       id="path63" /><path
       style="fill:none;fill-opacity:1;stroke:#000000;stroke-width:0.0990693;stroke-linecap:round;stroke-dasharray:none"
       d="m 31.774094,80.487143 c -0.175995,4.058832 0.890842,7.065376 5.982571,7.744276 5.091729,0.678896 10.037979,-1.115335 12.41412,-2.715592 3.442979,0.0485 11.208039,-4.514504 12.14047,-8.826398"
       id="path64" /><path
       style="fill:none;fill-opacity:1;stroke:#000000;stroke-width:0.0990693;stroke-linecap:round;stroke-dasharray:none"
       d="m 30.298944,80.874599 c -4.61695,6.338472 -2.822723,10.945274 -1.464928,12.109097 1.357794,1.163826 2.861067,2.327648 6.691987,0.775883 3.83092,-1.551762 6.449069,-5.484009 6.449069,-5.484009"
       id="path65" /><path
       style="fill:none;fill-opacity:1;stroke:#000000;stroke-width:0.0990693;stroke-linecap:round;stroke-dasharray:none"
       d="m 23.079242,65.845886 c -1.61611,-0.793959 -3.701294,0.127398 -4.622655,1.194238 -0.92136,1.066839 -2.424633,4.267354 -3.394486,5.916106 -0.969853,1.648749 -3.152023,3.976398 -3.152023,8.486217 0,4.509815 3.588457,5.770624 4.461324,6.013086 0.872869,0.242476 4.073384,1.260809 7.419377,-1.503271 3.345994,-2.764083 3.48546,-4.201419 3.48546,-4.201419"
       id="path66" /><path
       style="fill:#000000;fill-opacity:1;stroke:#000000;stroke-width:0.0990693;stroke-linecap:round;stroke-dasharray:none"
       d="m 19.610579,66.130997 c -1.832889,-3.503705 1.852553,-6.122307 2.628435,-6.413263 0.775883,-0.290972 2.769628,-0.947264 3.949314,-0.104218 0.157469,-0.219259 0.323892,-0.460151 0.323892,-0.460151 0.01801,0.01648 -1.897419,-0.518514 -3.504834,-3.312466 -2.732582,-1.194084 -4.56578,-0.590207 -6.485247,1.39396 -1.919466,1.984167 -3.493991,6.234981 -0.905881,9.242529 0.603943,0.20383 1.897759,0.660108 2.620357,0.841746 0.328439,-0.39832 0.99889,-0.958367 1.373965,-1.188141 z"
       id="path68" /><path
       style="fill:#000000;fill-opacity:1;stroke:#000000;stroke-width:0.0990693;stroke-linecap:round;stroke-dasharray:none"
       d="m 13.368089,65.543718 c -2.763265,-5.729971 0.228141,-10.325861 2.784436,-11.332061 2.556293,-1.006199 3.919123,-1.286041 5.970766,-0.04475 -0.809808,-1.678408 -0.985594,-1.808656 -1.632858,-2.727501 -6.068542,-3.112436 -9.998424,2.613857 -10.6198633,4.023193 -1.5228982,3.453712 -0.9094115,6.230558 -0.359524,7.697571 2.2903413,1.820542 3.8570443,2.38354 3.8570443,2.38354 z"
       id="path69" /><path
       style="fill:#000000;fill-opacity:1;stroke:#000000;stroke-width:0.0990693;stroke-linecap:round;stroke-dasharray:none"
       d="m 7.1864004,60.606612 c -1.2084137,-4.763132 0.5385965,-8.026631 2.357834,-9.712697 1.9563026,-1.813097 3.8934616,-2.534744 6.3907336,-2.066793 2.497271,0.467955 3.660503,1.561851 3.660503,1.561851 -4.683939,-4.937416 -11.1410579,-3.024658 -13.2391663,2.13217 -1.8644792,4.582603 0.7369024,8.189549 0.8300957,8.085469 z"
       id="path70" /><path
       style="fill:none;fill-opacity:1;stroke:#000000;stroke-width:0.0990693;stroke-linecap:round;stroke-dasharray:none"
       d="m 7.1864004,60.606612 c 0.9288628,1.172421 2.3246453,2.553558 2.3246453,2.553558"
       id="path71" /><path
       style="fill:none;fill-opacity:1;stroke:#000000;stroke-width:0.0990693;stroke-linecap:round;stroke-dasharray:none"
       d="m 13.368089,65.543718 c 1.519123,0.671432 2.248169,0.93367 2.248169,0.93367"
       id="path72" /><path
       style="fill:none;fill-opacity:1;stroke:#000000;stroke-width:0.0990693;stroke-linecap:round;stroke-dasharray:none"
       d="m 19.595471,50.388973 c 0.493383,0.417542 0.894962,1.050433 0.894962,1.050433"
       id="path73" /><path
       style="fill:none;fill-opacity:1;stroke:#000000;stroke-width:0.0990693;stroke-linecap:round;stroke-dasharray:none"
       d="m 22.123291,54.166907 c 0.438796,0.742033 0.884095,1.673992 0.884095,1.673992"
       id="path74" /><path
       id="path14"
       style="fill:#000000;fill-opacity:1;stroke:#000000;stroke-width:0.0990693;stroke-linecap:round;stroke-dasharray:none"
       d="m 58.578547,32.477532 c -1.133695,0.0343 -2.358992,1.259545 -2.970504,3.026625 -0.05894,0.891811 -0.279812,3.019544 0.946301,4.872789 0.259291,0.31389 2.665333,0.29026 3.698136,-3.18918 0.648825,-2.185838 0.115078,-4.267359 -1.194006,-4.650244 -0.156083,-0.04566 -0.317971,-0.06491 -0.479927,-0.05999 z m 0.946306,1.69135 a 0.69152784,1.0382113 17.657425 0 1 0.179975,0.02322 0.69152784,1.0382113 17.657425 0 1 0.332838,1.207555 0.69152784,1.0382113 17.657425 0 1 -0.977271,0.766332 0.69152784,1.0382113 17.657425 0 1 -0.332838,-1.209489 0.69152784,1.0382113 17.657425 0 1 0.797296,-0.78762 z" /><path
       id="path12"
       style="display:inline;fill:#000000;fill-opacity:1;stroke:#000000;stroke-width:0.0990693;stroke-linecap:round;stroke-dasharray:none"
       d="m 70.923522,36.985428 c -0.621769,-0.0023 -1.100944,0.29509 -1.610073,0.603779 -0.100061,0.08632 -0.521734,1.438537 -0.861156,2.796337 0,0 0.879592,-0.123841 1.25787,-0.150953 1.473128,-0.110022 2.458837,0.111782 2.633783,0.110322 0.113018,-0.358753 0.425421,-1.022448 0.156757,-2.028072 -0.232028,-0.861335 -0.842488,-1.350265 -1.577174,-1.331406 z m 0.371559,0.721822 a 0.60722316,0.86746173 18.278539 0 1 0.158668,0.02135 0.60722316,0.86746173 18.278539 0 1 0.303816,1.014034 0.60722316,0.86746173 18.278539 0 1 -0.849547,0.632805 0.60722316,0.86746173 18.278539 0 1 -0.303816,-1.014038 0.60722316,0.86746173 18.278539 0 1 0.690861,-0.65409 z" /></g></svg>
