<?xml version="1.0" encoding="UTF-8" standalone="no"?>
<!-- Created with Inkscape (http://www.inkscape.org/) -->

<svg
   width="180"
   height="200"
   viewBox="0 0 180 200"
   version="1.1"
   id="svg1"
   xml:space="preserve"
   xmlns="http://www.w3.org/2000/svg"
   xmlns:svg="http://www.w3.org/2000/svg"><defs
     id="defs1" /><g
     id="layer2"
     style="display:inline"><path
       style="display:inline;opacity:1;fill:none;stroke:#000000;stroke-width:0.0982677;stroke-linecap:round;stroke-linejoin:round"
       d="m 133.32587,89.926381 v 2.495276 l 4.05075,4.722948"
       id="path115" /><path
       style="fill:none;stroke:#000000;stroke-width:0.0982677;stroke-linecap:round;stroke-linejoin:round;stroke-dasharray:none"
       d="m 37.5,10.5 v 15 h -5 v -10 h -17 v 10 h -5 v -15 z"
       id="path1" /><path
       style="fill:none;stroke:#000000;stroke-width:0.0982677;stroke-linecap:round;stroke-linejoin:round;stroke-dasharray:none"
       d="m 21.5,19.5 h 5 v 33 h 5 v 5 h -15 v -5 h 5 z"
       id="path2" /><path
       style="fill:none;stroke:#000000;stroke-width:0.0982677;stroke-linecap:round;stroke-linejoin:round;stroke-dasharray:none"
       d="m 95.5,10.5 v 15 h -5 v -10 h -17 v 10 h -5 v -15 z"
       id="path1-8" /><path
       style="fill:none;stroke:#000000;stroke-width:0.0982677;stroke-linecap:round;stroke-linejoin:round;stroke-dasharray:none"
       d="m 79.5,19.5 h 5 v 33 h 5 v 5 h -15 v -5 h 5 z"
       id="path2-3" /><path
       style="fill:none;stroke:#000000;stroke-width:0.0982677;stroke-linecap:round;stroke-linejoin:round;stroke-dasharray:none"
       d="m 40.5,10.5 v 5 h 4 v 37 h -4 v 5 h 25 v -15 h -5 v 10 h -11 v -37 h 11 v 10 h 5 v -15 z"
       id="path3" /><path
       style="fill:none;stroke:#000000;stroke-width:0.0982677;stroke-linecap:round;stroke-linejoin:round;stroke-dasharray:none"
       d="m 59.5,31.5 h -5 v 5 h 5 z"
       id="path4" /><path
       style="fill:none;stroke:#000000;stroke-width:0.0982677;stroke-linecap:round;stroke-linejoin:round;stroke-dasharray:none"
       d="m 98.5,15.5 v -5 h 25 v 15 l -5,5 7,22 h 9 v -37 h -4 v -5 h 13 v 5 h -4 v 37 h 4 v 5 h -22 l -7,-23 -7,7 v 11 h 4 v 5 h -13 v -5 h 4 v -37 h -4"
       id="path5" /><path
       style="fill:none;stroke:#000000;stroke-width:0.0982677;stroke-linecap:round;stroke-linejoin:round;stroke-dasharray:none"
       d="m 107.5,15.5 v 19 l 11,-11 v -8 z"
       id="path6" /><path
       style="fill:none;stroke:#000000;stroke-width:0.0982677;stroke-linecap:round;stroke-linejoin:round;stroke-dasharray:none"
       d="m 146.5,10.5 v 14 l 18,18 v 10 h -13 v -10 h -5 v 15 h 23 v -17 l -18,-18 v -7 h 13 v 10 h 5 v -15 z"
       id="path7" /><path
       style="fill:none;stroke:#000000;stroke-width:0.0982677;stroke-linecap:round;stroke-linejoin:round;stroke-dasharray:none"
       d="m 101.63941,110.63695 0.83711,7.64528 h 14.27189 l -2.43508,-7.64528 z"
       id="path46" /><path
       style="fill:none;stroke:#000000;stroke-width:0.0982677;stroke-linecap:round;stroke-linejoin:round;stroke-dasharray:none"
       d="m 143.36161,114.38969 6.38238,8.49765 h -8.25093 l 3.36112,5.26925 h 16.87019 l -11.75317,-13.7669 z"
       id="path47" /><path
       style="fill:none;stroke:#000000;stroke-width:0.0982677;stroke-linecap:round;stroke-linejoin:round;stroke-dasharray:none"
       d="m 179.98502,118.62522 -0.42476,-0.34299 h -6.58039 l 7.00086,6.13023"
       id="path48" /><path
       style="fill:none;stroke:#000000;stroke-width:0.0982677;stroke-linecap:round;stroke-linejoin:round;stroke-dasharray:none"
       d="m 114.84626,142.99035 h 39.47002 l 5.2159,8.17698 h -42.94077 z"
       id="path49" /><path
       style="fill:none;stroke:#000000;stroke-width:0.0982677;stroke-linecap:round;stroke-linejoin:round;stroke-dasharray:none"
       d="m 179.90158,163.0398 -2.0563,-2.7378 h -12.48632 l 6.46512,10.13539 h 7.98222"
       id="path50" /><path
       style="fill:none;stroke:#000000;stroke-width:0.0982677;stroke-linecap:round;stroke-linejoin:round;stroke-dasharray:none"
       d="m 179.9041,183.10447 -8.08002,-12.66708 H 158.64705 L 153.29084,160.302 h -12.12188 l 8.39682,20.06078 h 14.3265 l 5.90443,11.17277 h 10.0664"
       id="path51" /><path
       style="fill:none;stroke:#000000;stroke-width:0.0982677;stroke-linecap:round;stroke-linejoin:round;stroke-dasharray:none"
       d="m 145.41132,170.43739 h -24.70724 l 4.50283,21.09816 h 29.03544 l -4.67657,-11.17277"
       id="path52" /><path
       style="fill:none;stroke:#000000;stroke-width:0.0982677;stroke-linecap:round;stroke-linejoin:round;stroke-dasharray:none"
       d="m 95,199.67871 v -29.24132 h 13.18722 l 1.08677,9.92539 h 13.5484"
       id="path53" /><path
       style="fill:none;stroke:#000000;stroke-width:0.0982677;stroke-linecap:round;stroke-linejoin:round;stroke-dasharray:none"
       d="m 125.20691,191.53555 h -14.70956 l 0.90332,8.24997"
       id="path54" /><path
       style="fill:none;stroke:#000000;stroke-width:0.0982677;stroke-linecap:round;stroke-linejoin:round;stroke-dasharray:none"
       d="m 95,170.43739 v -19.27006 h 11.07725 l 1.0002,9.13467 h 11.46351 l 2.16312,10.13539"
       id="path55" /><path
       style="fill:none;stroke:#000000;stroke-width:0.0982677;stroke-linecap:round;stroke-linejoin:round;stroke-dasharray:none"
       d="M 95,170.43739 H 82.26394 l -3.071115,29.04171"
       id="path56" /><path
       style="fill:none;stroke:#000000;stroke-width:0.0982677;stroke-linecap:round;stroke-linejoin:round;stroke-dasharray:none"
       d="M 81.214346,180.36278 H 67.453039 l -2.360918,11.17277 H 49.679948 l -2.614283,8.16446"
       id="path57" /><path
       style="fill:none;stroke:#000000;stroke-width:0.0982677;stroke-linecap:round;stroke-linejoin:round;stroke-dasharray:none"
       d="m 32.138364,199.49359 8.044451,-19.13081 H 26.678801 l -10.117127,19.30436"
       id="path58" /><path
       style="fill:none;stroke:#000000;stroke-width:0.0982677;stroke-linecap:round;stroke-linejoin:round;stroke-dasharray:none"
       d="M 1.058296,199.71835 19.430815,170.43739 H 6.0107924 l -5.77950565,7.82194"
       id="path59" /><path
       style="fill:none;stroke:#000000;stroke-width:0.0982677;stroke-linecap:round;stroke-linejoin:round;stroke-dasharray:none"
       d="M 0.26265922,160.88937 8.5686003,151.16733 H 0.14481242"
       id="path60" /><path
       style="fill:none;stroke:#000000;stroke-width:0.0982677;stroke-linecap:round;stroke-linejoin:round;stroke-dasharray:none"
       d="m 13.150586,135.12357 11.765581,-12.23623 h 7.813189 l 3.934334,-4.60511 H 22.590006 L 4.7305815,135.12357 Z"
       id="path61" /><path
       style="fill:none;stroke:#000000;stroke-width:0.0982677;stroke-linecap:round;stroke-linejoin:round;stroke-dasharray:none"
       d="m 15.842797,102.63656 h 10.196232 l 8.098019,-6.181057 h -8.998899 z"
       id="path62" /><path
       style="fill:none;stroke:#000000;stroke-width:0.0982677;stroke-linecap:round;stroke-linejoin:round;stroke-dasharray:none"
       d="m 47.423517,114.38969 -2.876134,3.89254 h 7.608509 l -2.889504,4.60511 h 7.534439 l 2.413469,-4.60511 h 7.073217 l 1.636802,-3.89254 z"
       id="path63" /><path
       style="fill:none;stroke:#000000;stroke-width:0.0982677;stroke-linecap:round;stroke-linejoin:round;stroke-dasharray:none"
       d="M 95,106.54222 H 71.224153 l -1.721821,4.09473 H 95 Z"
       id="path64" /><path
       style="fill:none;stroke:#000000;stroke-width:0.0982677;stroke-linecap:round;stroke-linejoin:round;stroke-dasharray:none"
       d="M 79.833096,86.068978 H 76.096784 L 71.87187,94.13048 h 4.571386 z"
       id="path65" /><path
       style="fill:none;stroke:#000000;stroke-width:0.0982677;stroke-linecap:round;stroke-linejoin:round;stroke-dasharray:none"
       d="m 105.00925,81.425463 h -3.30234 l -0.84133,-3.942093 h -2.856305 l 0.693766,6.336089 h 7.068709 z"
       id="path66" /><path
       style="fill:none;stroke:#000000;stroke-width:0.0982677;stroke-linecap:round;stroke-linejoin:round;stroke-dasharray:none"
       d="m 117.62097,76.49673 h 2.81359 l -5.71655,-5.955283 h -2.18123 z"
       id="path67" /><path
       style="fill:none;stroke:#000000;stroke-width:0.0982677;stroke-linecap:round;stroke-linejoin:round;stroke-dasharray:none"
       d="m 72.291192,69.29678 h 4.154251 l 2.893759,-3.009516 h -3.506357 z"
       id="path68" /><path
       style="fill:none;stroke:#000000;stroke-width:0.0982677;stroke-linecap:round;stroke-linejoin:round;stroke-dasharray:none"
       d="m 48.618317,160.302 7.2795,-17.31165 h 9.32643 l 2.518964,-7.86678 h 9.269326 L 73.62233,151.16733 H 62.605957 l -2.924945,9.13467 z"
       id="path70" /><path
       style="fill:none;stroke:#000000;stroke-width:0.0982677;stroke-linecap:round;stroke-linejoin:round;stroke-dasharray:none"
       d="m 15.842797,102.63656 v 4.14553"
       id="path71" /><path
       style="fill:none;stroke:#000000;stroke-width:0.0982677;stroke-linecap:round;stroke-linejoin:round;stroke-dasharray:none"
       d="m 26.039029,102.63656 0.008,4.19553 -10.204215,-0.05"
       id="path72" /><path
       style="fill:none;stroke:#000000;stroke-width:0.0982677;stroke-linecap:round;stroke-linejoin:round;stroke-dasharray:none"
       d="m 34.137048,96.455503 -0.05917,3.540567 -8.030848,6.83602"
       id="path73" /><path
       style="fill:none;stroke:#000000;stroke-width:0.0982677;stroke-linecap:round;stroke-linejoin:round;stroke-dasharray:none"
       d="m 71.87187,94.13048 v 2.971768 h 4.571386 V 94.13048"
       id="path74" /><path
       style="fill:none;stroke:#000000;stroke-width:0.0982677;stroke-linecap:round;stroke-linejoin:round;stroke-dasharray:none"
       d="m 76.443256,97.102248 3.465105,-8.485327 -0.07527,-2.547943"
       id="path75" /><path
       style="fill:none;stroke:#000000;stroke-width:0.0982677;stroke-linecap:round;stroke-linejoin:round;stroke-dasharray:none"
       d="m 95,110.63695 v 3.50274 l -25.572933,-0.0352 v -3.46759"
       id="path76" /><path
       style="fill:none;stroke:#000000;stroke-width:0.0982677;stroke-linecap:round;stroke-linejoin:round;stroke-dasharray:none"
       d="m 98.703041,83.819459 v 2.020677 h 7.068709 v -2.020673"
       id="path77" /><path
       style="fill:none;stroke:#000000;stroke-width:0.0982677;stroke-linecap:round;stroke-linejoin:round;stroke-dasharray:none"
       d="m 98.009275,77.48337 v 2.052123 l 0.693766,6.304643"
       id="path78" /><path
       style="fill:none;stroke:#000000;stroke-width:0.0982677;stroke-linecap:round;stroke-linejoin:round;stroke-dasharray:none"
       d="m 72.291192,69.29678 v 1.321769 h 4.102064 V 69.29678"
       id="path9" /><path
       style="fill:none;stroke:#000000;stroke-width:0.0982677;stroke-linecap:round;stroke-linejoin:round;stroke-dasharray:none"
       d="m 79.339202,66.287264 v 1.005175 l -2.945946,3.32611"
       id="path10" /><path
       style="fill:none;stroke:#000000;stroke-width:0.0982677;stroke-linecap:round;stroke-linejoin:round;stroke-dasharray:none"
       d="m 117.62097,76.49673 v 1.951299 h 2.86272 v -1.900125"
       id="path13" /><path
       style="fill:none;stroke:#000000;stroke-width:0.0982677;stroke-linecap:round;stroke-linejoin:round;stroke-dasharray:none"
       d="m 112.53678,70.541447 v 1.505466 l 5.08419,6.401116"
       id="path14" /><path
       style="fill:none;stroke:#000000;stroke-width:0.0982677;stroke-linecap:round;stroke-linejoin:round;stroke-dasharray:none"
       d="m 4.7305815,135.12357 4e-6,6.61479 h 8.4691305 l -0.04913,-6.61479"
       id="path15" /><path
       style="fill:none;stroke:#000000;stroke-width:0.0982677;stroke-linecap:round;stroke-linejoin:round;stroke-dasharray:none"
       d="m 24.916167,122.88734 0.04913,5.54428 -11.765581,13.30674"
       id="path18" /><path
       style="fill:none;stroke:#000000;stroke-width:0.0982677;stroke-linecap:round;stroke-linejoin:round;stroke-dasharray:none"
       d="m 24.965301,128.43162 7.813189,-0.0491 -0.04913,-5.49515"
       id="path79" /><path
       style="fill:none;stroke:#000000;stroke-width:0.0982677;stroke-linecap:round;stroke-linejoin:round;stroke-dasharray:none"
       d="m 36.66369,118.28223 v 5.27551 l -3.8852,4.82475"
       id="path80" /><path
       style="fill:none;stroke:#000000;stroke-width:0.0982677;stroke-linecap:round;stroke-linejoin:round;stroke-dasharray:none"
       d="m 49.266388,122.88734 v 5.54428 h 7.534439 v -5.54428"
       id="path82" /><path
       style="fill:none;stroke:#000000;stroke-width:0.0982677;stroke-linecap:round;stroke-linejoin:round;stroke-dasharray:none"
       d="m 44.547383,118.28223 v 5.34551 h 4.719005"
       id="path83" /><path
       style="fill:none;stroke:#000000;stroke-width:0.0982677;stroke-linecap:round;stroke-linejoin:round;stroke-dasharray:none"
       d="m 59.214296,118.28223 v 5.34551 l -2.413469,4.80388"
       id="path84" /><path
       style="fill:none;stroke:#000000;stroke-width:0.0982677;stroke-linecap:round;stroke-linejoin:round;stroke-dasharray:none"
       d="m 66.287513,118.28223 v 5.34551 h -7.073217"
       id="path85" /><path
       style="fill:none;stroke:#000000;stroke-width:0.0982677;stroke-linecap:round;stroke-linejoin:round;stroke-dasharray:none"
       d="m 67.924315,114.38969 v 4.65959 l -1.636802,4.57846"
       id="path87" /><path
       style="fill:none;stroke:#000000;stroke-width:0.0982677;stroke-linecap:round;stroke-linejoin:round;stroke-dasharray:none"
       d="m 102.47652,118.28223 v 5.34551 h 14.27189 v -5.34551"
       id="path88" /><path
       style="fill:none;stroke:#000000;stroke-width:0.0982677;stroke-linecap:round;stroke-linejoin:round;stroke-dasharray:none"
       d="m 101.63941,110.63695 v 3.50274 l 0.83711,9.48805"
       id="path89" /><path
       style="fill:none;stroke:#000000;stroke-width:0.0982677;stroke-linecap:round;stroke-linejoin:round;stroke-dasharray:none"
       d="m 143.36161,114.38969 v 4.65959 l 2.62459,3.83806"
       id="path90" /><path
       style="fill:none;stroke:#000000;stroke-width:0.0982677;stroke-linecap:round;stroke-linejoin:round;stroke-dasharray:none"
       d="m 144.85418,128.15659 v 5.42594 h 16.91932 l -0.0491,-5.42591"
       id="path91" /><path
       style="fill:none;stroke:#000000;stroke-width:0.0982677;stroke-linecap:round;stroke-linejoin:round;stroke-dasharray:none"
       d="m 141.49306,122.88734 v 5.61557 l 3.36112,5.07962"
       id="path92" /><path
       style="fill:none;stroke:#000000;stroke-width:0.0982677;stroke-linecap:round;stroke-linejoin:round;stroke-dasharray:none"
       d="m 172.97987,118.28223 v 5.34551 l 6.73459,6.64944"
       id="path93" /><path
       style="fill:none;stroke:#000000;stroke-width:0.0982677;stroke-linecap:round;stroke-linejoin:round;stroke-dasharray:none"
       d="M 8.5676756,151.16841 V 160.302 L 0.18215289,170.84406"
       id="path96" /><path
       style="fill:none;stroke:#000000;stroke-width:0.0982677;stroke-linecap:round;stroke-linejoin:round;stroke-dasharray:none"
       d="m 19.430815,170.43739 0.04913,11.70119 -10.0843943,17.57769"
       id="path97" /><path
       style="fill:none;stroke:#000000;stroke-width:0.0982677;stroke-linecap:round;stroke-linejoin:round;stroke-dasharray:none"
       d="m 40.182815,180.36278 0.04913,13.51547 -2.189505,5.83802"
       id="path98" /><path
       style="fill:none;stroke:#000000;stroke-width:0.0982677;stroke-linecap:round;stroke-linejoin:round;stroke-dasharray:none"
       d="m 48.618317,160.302 v 8.21612 H 59.681012 V 160.302"
       id="path99" /><path
       style="fill:none;stroke:#000000;stroke-width:0.0982677;stroke-linecap:round;stroke-linejoin:round;stroke-dasharray:none"
       d="m 62.605957,151.16733 v 6.78687 H 73.62233 v -6.78687"
       id="path100" /><path
       style="fill:none;stroke:#000000;stroke-width:0.0982677;stroke-linecap:round;stroke-linejoin:round;stroke-dasharray:none"
       d="M 59.681012,168.51812 62.605957,157.9542"
       id="path101" /><path
       style="fill:none;stroke:#000000;stroke-width:0.0982677;stroke-linecap:round;stroke-linejoin:round;stroke-dasharray:none"
       d="m 77.012537,135.12357 v 6.06813 l -3.390207,16.7625"
       id="path102" /><path
       style="fill:none;stroke:#000000;stroke-width:0.0982677;stroke-linecap:round;stroke-linejoin:round;stroke-dasharray:none"
       d="m 116.59141,151.16733 v 6.78687 h 42.94077 v -6.78687"
       id="path103" /><path
       style="fill:none;stroke:#000000;stroke-width:0.0982677;stroke-linecap:round;stroke-linejoin:round;stroke-dasharray:none"
       d="m 114.84626,142.99035 v 6.66391 l 1.74521,8.29994"
       id="path104" /><path
       style="fill:none;stroke:#000000;stroke-width:0.0982677;stroke-linecap:round;stroke-linejoin:round;stroke-dasharray:none"
       d="m 141.16896,160.302 v 8.21612 l 0.73802,1.91927"
       id="path105" /><path
       style="fill:none;stroke:#000000;stroke-width:0.0982677;stroke-linecap:round;stroke-linejoin:round;stroke-dasharray:none"
       d="m 165.35896,160.302 v 8.21612 l 1.10556,1.87014"
       id="path106" /><path
       style="fill:none;stroke:#000000;stroke-width:0.0982677;stroke-linecap:round;stroke-linejoin:round;stroke-dasharray:none"
       d="m 125.20691,191.53555 1.71819,8.19229"
       id="path107" /><path
       style="fill:none;stroke:#000000;stroke-width:0.0982677;stroke-linecap:round;stroke-linejoin:round;stroke-dasharray:none"
       d="m 154.24235,191.53555 3.40621,8.24142"
       id="path108" /><path
       style="fill:none;stroke:#000000;stroke-width:0.0982677;stroke-linecap:round;stroke-linejoin:round;stroke-dasharray:none"
       d="m 125.20691,191.53555 0.0491,8.19229"
       id="path109" /><path
       style="fill:none;stroke:#000000;stroke-width:0.0982677;stroke-linecap:round;stroke-linejoin:round;stroke-dasharray:none"
       d="m 163.89228,180.36278 v 13.41032 h -8.72514"
       id="path110" /><path
       style="fill:none;stroke:#000000;stroke-width:0.0982677;stroke-linecap:round;stroke-linejoin:round;stroke-dasharray:none"
       d="m 163.89228,193.7731 3.27787,6.02141"
       id="path111" /><path
       style="fill:none;stroke:#000000;stroke-width:0.0982677;stroke-linecap:round;stroke-linejoin:round;stroke-dasharray:none"
       d="m 169.79671,191.53555 4.33861,8.20983"
       id="path112" /><path
       style="fill:none;stroke:#000000;stroke-width:0.0982677;stroke-linecap:round;stroke-linejoin:round"
       d="m 133.32587,89.926381 4.05072,4.219885 h 8.03945 l -4.8192,-4.219885 z"
       id="path113" /><path
       style="fill:none;stroke:#000000;stroke-width:0.0982677;stroke-linecap:round;stroke-linejoin:round"
       d="m 137.37659,94.146266 v 2.998339 h 8.03945 v -2.998339"
       id="path114" /></g></svg>
