<?xml version="1.0" encoding="UTF-8" standalone="no"?>
<!-- Created with Inkscape (http://www.inkscape.org/) -->

<svg
   width="70"
   height="45"
   viewBox="0 0 70 45"
   version="1.1"
   id="svg1"
   xml:space="preserve"
   xmlns="http://www.w3.org/2000/svg"
   xmlns:svg="http://www.w3.org/2000/svg"><defs
     id="defs1" /><g
     id="layer2"><path
       style="display:inline;opacity:1;vector-effect:non-scaling-stroke;fill:none;stroke:#000000;stroke-width:1;stroke-dasharray:none;stroke-opacity:1;-inkscape-stroke:hairline"
       d="M 21.517512,26.721291 39.676679,17.527928 28.207732,16.390135 24.612308,9.2903102 21.517512,10.701174 Z"
       id="path6" /><path
       style="display:inline;opacity:1;vector-effect:non-scaling-stroke;fill:none;stroke:#000000;stroke-width:1;stroke-dasharray:none;stroke-opacity:1;-inkscape-stroke:hairline"
       d="M 22.505148,29.28494 50.987965,14.996114 c 6,-3 6.254041,-5.7058038 5.545155,-7.4870718"
       id="path5" /><path
       style="opacity:1;vector-effect:non-scaling-stroke;fill:none;stroke:#000000;stroke-width:1;stroke-dasharray:none;stroke-opacity:1;-inkscape-stroke:hairline"
       d="M 15.648676,17.594274 6.5611264,22.352378 17.450677,27.74755 m 7.212924,3.622748 16.833155,8.385597 8.101637,-4.072252 -0.0054,-14.456201 C 37.23372,21.112378 24.663601,31.370298 24.663601,31.370298 Z"
       id="path1" /><path
       style="opacity:1;vector-effect:non-scaling-stroke;fill:none;stroke:#000000;stroke-width:1;stroke-dasharray:none;stroke-opacity:1;-inkscape-stroke:hairline"
       d="m 17.459577,26.679906 -0.0089,3.98433 5.047571,2.608949 0.0069,-3.988245 z"
       id="path3" /><path
       style="opacity:1;vector-effect:non-scaling-stroke;fill:none;stroke:#000000;stroke-width:1;stroke-dasharray:none;stroke-opacity:1;-inkscape-stroke:hairline"
       d="m 22.498248,33.273185 2.924757,-1.524583"
       id="path4" /><path
       style="opacity:1;vector-effect:non-scaling-stroke;fill:none;stroke:#000000;stroke-width:1;stroke-dasharray:none;stroke-opacity:1;-inkscape-stroke:hairline"
       d="m 17.459577,26.679906 4.057935,-2.006642"
       id="path7" /><path
       style="opacity:1;vector-effect:non-scaling-stroke;fill:none;stroke:#000000;stroke-width:1;stroke-dasharray:none;stroke-opacity:1;-inkscape-stroke:hairline"
       d="m 15.648676,17.594274 h 5.868836"
       id="path8" /><path
       style="opacity:1;vector-effect:non-scaling-stroke;fill:none;stroke:#000000;stroke-width:1;stroke-dasharray:none;stroke-opacity:1;-inkscape-stroke:hairline"
       d="m 49.592993,21.227442 c 0,0 2.431844,-1.221641 6.431844,-3.221641 4,-2 5.654592,-4.441841 6.606499,-6.009687 0.951907,-1.567847 1.700497,-3.8673228 0.356629,-4.6512458 -0.710213,-0.414291 -3.506023,-1.060004 -6.454845,0.164174 -3.536872,0 -10.545155,2.487071 -12.545155,3.4870718 -1.055667,0.527834 -2.02668,1.007063 -2.9142,1.448102 -3.613773,1.795803 -5.864261,2.916436 -7.0858,3.551898 -1.132702,0.589248 -1.634998,0.805255 -1.634998,0.805255"
       id="path9" /><path
       style="opacity:1;vector-effect:non-scaling-stroke;fill:none;stroke:#000000;stroke-width:1;stroke-dasharray:none;stroke-opacity:1;-inkscape-stroke:hairline"
       d="m 41.073765,12.444216 c 3.662668,1.300761 6.873201,4.07746 6.873201,4.07746"
       id="path10" /></g></svg>
