<?xml version="1.0" encoding="UTF-8" standalone="no"?>
<!-- Created with Inkscape (http://www.inkscape.org/) -->

<svg
   width="100"
   height="100"
   viewBox="0 0 100 100"
   version="1.1"
   id="svg1"
   xml:space="preserve"
   xmlns:xlink="http://www.w3.org/1999/xlink"
   xmlns="http://www.w3.org/2000/svg"
   xmlns:svg="http://www.w3.org/2000/svg"><defs
     id="defs1" /><g
     id="layer2"><path
       style="fill:none;stroke:#000000;stroke-width:0.1;stroke-linecap:round;stroke-linejoin:round"
       d="m 52.860398,15.920553 c -4.786572,3.017621 -6.243354,3.329789 -6.451466,4.57846 -0.208112,1.24867 -1.08682,2.903172 -1.684141,3.242354 -0.658744,0.374061 -2.686207,1.648273 -2.894319,3.209111 -0.208111,1.560839 0,1.873007 -0.520279,2.497342 -0.52028,0.624336 -1.664895,1.560839 -1.76895,2.28923 -0.104056,0.728391 -0.0043,1.830053 -1.522277,2.748351 -0.820841,0.496557 -10.860376,8.177519 -12.941494,13.068146 10.093423,1.352727 18.938174,-1.873006 18.938174,-1.873006 0,0 -10.717758,5.306851 -12.070484,6.867689 10.197478,1.456783 23.932857,-4.786571 27.262646,-6.243354"
       id="path1" /><path
       style="fill:none;stroke:#000000;stroke-width:0.1;stroke-linecap:round;stroke-linejoin:round"
       d="M 48.693929,18.410628 C 38.292572,10.40559 38.292572,8.2204162 39.020963,7.4920249 39.749354,6.7636336 42.350752,5.6190187 44.43187,5.7230746 c 2.081118,0.1040559 6.971745,0.5202795 11.342093,0.5202795 4.370348,0 12.798876,0.3121677 17.481392,2.1851739 4.682515,1.873006 6.971745,4.57846 8.11636,7.179857 1.144615,2.601398 3.746012,10.92587 3.746012,10.92587 0,0 1.456783,-3.121677 3.746013,-5.098739 2.393286,7.492025 2.913565,12.69482 2.497342,17.897615 -0.416224,5.202795 -4.370348,15.504329 -8.220417,18.001671 -0.40849,7.966077 -0.947532,10.937903 -4.770033,15.234104"
       id="path2" /><path
       style="fill:none;stroke:#000000;stroke-width:0.1;stroke-linecap:round;stroke-linejoin:round"
       d="m 83.140665,57.334802 c 0.104057,-4.890628 -2.456503,-6.659669 -2.497341,-15.816497 -0.04371,-9.801483 3.648417,-12.434728 4.474403,-14.98405"
       id="path3" /><path
       style="fill:none;stroke:#000000;stroke-width:0.1;stroke-linecap:round;stroke-linejoin:round"
       d="m 87.511013,32.049218 c -3.5379,5.931186 -4.682515,11.446149 -4.162236,14.46377"
       id="path4" /><path
       style="fill:none;stroke:#000000;stroke-width:0.1;stroke-linecap:round;stroke-linejoin:round"
       d="m 84.194178,39.377055 c 2.484387,3.285864 1.443829,7.656212 1.443829,7.656212"
       id="path5" /><path
       style="opacity:1;fill:none;stroke:#000000;stroke-width:0.1;stroke-linecap:round;stroke-linejoin:round"
       d="m 46.189957,51.08523 c 3.964988,5.209013 1.143649,8.336605 4.363949,12.198503 2.572339,3.084841 5.201702,3.89866 5.201702,3.89866"
       id="path6" /><path
       style="fill:none;stroke:#000000;stroke-width:0.1;stroke-linecap:round;stroke-linejoin:round"
       d="m 53.973657,66.300764 c -8.860494,4.888207 -8.487831,8.194204 -9.123997,10.929715 -0.636165,2.735511 0.572549,9.033549 3.562526,12.341609 2.989978,3.30806 4.55204,4.794042 11.641827,4.262308 C 72.777321,92.880148 76.784117,87.94578 77.739411,78.50281 78.470894,71.272185 71.860222,63.845732 63.489307,65.016103 c -6.639648,0.928315 -9.097166,2.481046 -8.65185,4.262309 0.445316,1.781263 3.371677,1.781263 5.216556,1.081481 1.84488,-0.699782 6.298038,-0.06362 6.298038,1.908496 0,1.972113 -1.781263,2.162962 -5.34379,2.290195 -3.562526,0.127234 -5.152939,0.890632 -5.216556,2.290196 -0.06362,1.399564 0.318083,2.417428 5.025707,2.290195 4.707624,-0.127233 5.979955,0.954248 5.979955,2.353812 0,1.399564 -1.972113,2.353812 -5.025707,2.481045 -3.053594,0.127233 -4.771241,-0.127233 -4.834857,1.84488 -0.06362,1.972113 2.226579,2.226579 5.089323,2.735511 2.862744,0.508932 4.638995,0.408136 4.575378,2.253019 -0.06362,1.84488 -2.608278,2.481045 -2.608278,2.481045"
       id="path7" /><path
       style="fill:none;stroke:#000000;stroke-width:0.1;stroke-linecap:round;stroke-linejoin:round"
       d="m 53.947999,48.505512 c 2.797954,2.578569 15.775728,-1.238423 20.674202,-6.327746 0.445316,6.679736 3.234688,5.84871 3.234688,11.446965 0,5.598256 -4.515151,12.172446 0.513743,18.944175"
       id="path8" /><path
       style="fill:none;stroke:#000000;stroke-width:0.1;stroke-linecap:round;stroke-linejoin:round"
       d="m 76.503315,61.165 c -2.527186,4.173998 -5.439875,5.21889 -5.439875,5.21889"
       id="path9" /><path
       style="fill:none;stroke:#000000;stroke-width:0.1;stroke-linecap:round;stroke-linejoin:round"
       d="m 41.494021,52.155228 c 3.355639,5.544973 2.019692,9.043883 2.146925,12.351943 0.127233,3.30806 0.898184,4.470717 2.226579,5.725489 2.926361,-4.262308 4.077188,-7.777068 4.077188,-7.777068"
       id="path10" /><path
       style="fill:none;stroke:#000000;stroke-width:0.1;stroke-linecap:round;stroke-linejoin:round"
       d="m 58.631314,66.002624 c -2.26706,-3.849265 0.722917,-4.739896 1.613549,-4.67628 0.890632,0.06362 3.118921,1.33335 3.499765,3.656652"
       id="path11" /><path
       style="fill:none;stroke:#000000;stroke-width:0.1;stroke-linecap:round;stroke-linejoin:round"
       d="m 57.572968,55.918938 c 0.254467,3.30806 2.799128,4.580391 5.598256,2.099346"
       id="path12" /><path
       style="fill:none;stroke:#000000;stroke-width:0.1;stroke-linecap:round;stroke-linejoin:round"
       d="m 51.911096,52.674495 c 2.03573,1.017864 4.071459,0.572549 5.34379,0.190849"
       id="path13" /><path
       style="fill:none;stroke:#000000;stroke-width:0.1;stroke-linecap:round;stroke-linejoin:round"
       d="m 64.634404,52.165563 c 1.683295,1.15982 3.489824,1.330753 6.043571,0.254466"
       id="path14" /><path
       style="fill:none;stroke:#000000;stroke-width:0.1;stroke-linecap:round;stroke-linejoin:round"
       d="m 38.471543,34.170042 c 10.775878,-7.063733 32.628038,-4.049433 42.416672,3.118436"
       id="path15" /><path
       style="fill:none;stroke:#000000;stroke-width:0.1;stroke-linecap:round;stroke-linejoin:round"
       d="M 44.874557,23.634324 C 51.86003,20.31585 70.392729,22.581465 81.682525,33.572633"
       id="path16" /><path
       style="fill:none;stroke:#000000;stroke-width:0.1;stroke-linecap:round;stroke-linejoin:round"
       d="M 5.9044775,37.216101 C 9.4829487,34.576978 10.869606,33.68236 11.137992,33.950746 11.406377,34.219131 9.3040252,41.823382 9.6618723,42.091768 10.019719,42.360153 14.940117,39.18426 14.940117,39.18426"
       id="path17" /><path
       style="fill:none;stroke:#000000;stroke-width:0.1;stroke-linecap:round;stroke-linejoin:round"
       d="m 8.6330618,36.858254 c 2.5496612,1.878697 4.3388962,2.460198 4.3388962,2.460198"
       id="path18" /><path
       style="fill:none;stroke:#000000;stroke-width:0.1;stroke-linecap:round;stroke-linejoin:round"
       d="m 15.029579,42.091768 c 4.026357,0.05793 4.159974,2.460199 4.294166,3.846856 0.01124,0.116116 0.01777,0.236624 0.01839,0.36 0.0068,1.349969 -0.694401,3.043294 -3.686321,3.084279 -3.265355,0.04473 -4.070511,-1.968159 -3.98105,-3.533741 0.08946,-1.565581 1.16323,-3.788927 3.354817,-3.757394 z"
       id="path19" /><path
       style="fill:none;stroke:#000000;stroke-width:0.1;stroke-linecap:round;stroke-linejoin:round"
       d="m 14.895386,43.970465 c 1.968455,0.02895 1.923429,1.431389 1.923429,1.923428 0,0.49204 -0.08946,1.565582 -1.520851,1.565582 -1.431388,0 -1.942274,-1.245677 -1.968159,-1.789236 -0.04473,-0.939349 0.492156,-1.715559 1.565581,-1.699774 z"
       id="path20" /><path
       style="fill:none;stroke:#000000;stroke-width:0.1;stroke-linecap:round;stroke-linejoin:round"
       d="m 19.994708,48.801401 c -0.849887,4.115242 -1.028811,7.559521 -1.028811,7.559521"
       id="path21" /><path
       style="fill:none;stroke:#000000;stroke-width:0.1;stroke-linecap:round;stroke-linejoin:round"
       d="m 15.879466,51.2616 c 4.696743,1.207734 7.291135,2.639123 7.291135,2.639123"
       id="path22" /><path
       style="fill:none;stroke:#000000;stroke-width:0.1;stroke-linecap:round;stroke-linejoin:round"
       d="m 25.13876,56.003075 c -2.818046,1.878697 -3.712664,2.639122 -3.757394,2.996969 -0.04473,0.357847 3.086431,4.607282 3.489009,4.741475 0.402578,0.134192 3.086431,-2.549661 4.115242,-2.862777"
       id="path23" /><path
       style="fill:none;stroke:#000000;stroke-width:0.1;stroke-linecap:round;stroke-linejoin:round"
       d="m 22.904196,61.381256 c 1.831986,-1.531325 3.710684,-2.560135 3.710684,-2.560135"
       id="path24" /><path
       style="fill:none;stroke:#000000;stroke-width:0.1;stroke-linecap:round;stroke-linejoin:round"
       d="m 29.075079,71.390501 c -0.805156,-1.744505 -1.878698,-6.217594 -1.655043,-6.396518 0.223654,-0.178923 6.083401,1.878698 6.083401,1.878698"
       id="path25" /><path
       style="fill:none;stroke:#000000;stroke-width:0.1;stroke-linecap:round;stroke-linejoin:round"
       d="m 28.20095,68.86685 c 1.465618,-1.713022 3.781636,-2.978249 4.899909,-5.03587"
       id="path26" /><path
       style="fill:none;stroke:#000000;stroke-width:0.1;stroke-linecap:round;stroke-linejoin:round"
       d="m 30.595929,74.700587 c 2.773315,0.357847 5.680823,2.191813 5.949208,1.968159 0.268386,-0.223655 -2.728584,-5.993939 -2.728584,-5.993939"
       id="path27" /><path
       style="fill:none;stroke:#000000;stroke-width:0.1;stroke-linecap:round;stroke-linejoin:round"
       d="m 32.16151,72.508773 c 4.383627,1.02881 6.172863,1.655043 6.53071,1.341927 0.357847,-0.313117 -1.878697,-5.144053 -1.878697,-5.144053"
       id="path28" /><path
       style="fill:#000000;stroke:#000000;stroke-width:0.1;stroke-linecap:round;stroke-linejoin:round"
       d="m 39.688796,77.228504 c -0.675923,0 -0.970556,1.039881 -0.207976,1.057213 0.762579,0.01733 1.057212,-0.883899 0.207976,-1.057213 z"
       id="path29" /><path
       style="fill:#000000;stroke:#000000;stroke-width:0.1;stroke-linecap:round;stroke-linejoin:round"
       d="m 41.369937,79.308267 c -0.710585,-0.03466 -0.90123,0.90123 -0.25997,0.918561 0.64126,0.01733 1.02255,-0.762579 0.25997,-0.918561 z"
       id="path30" /><path
       style="fill:#000000;stroke:#000000;stroke-width:0.1;stroke-linecap:round;stroke-linejoin:round"
       d="m 42.877765,81.422691 c -0.589266,-0.01733 -0.883899,0.745249 -0.294633,0.779911 0.589266,0.03466 0.831905,-0.727916 0.294633,-0.779911 z"
       id="path31" /></g></svg>
