<?xml version="1.0" encoding="UTF-8" standalone="no"?>
<!-- Created with Inkscape (http://www.inkscape.org/) -->

<svg
   width="41"
   height="21"
   viewBox="0 0 41 21"
   version="1.1"
   id="svg1"
   xml:space="preserve"
   xmlns="http://www.w3.org/2000/svg"
   xmlns:svg="http://www.w3.org/2000/svg"><defs
     id="defs1" /><g
     id="layer2"><path
       id="path4"
       style="fill:none;stroke:#000000;stroke-width:0.1;stroke-linecap:square;stroke-linejoin:bevel"
       d="m 28.5,10.5 h 6 m -1,2 v -2 m -4,2 v -2 m -25,6 h 14 v -1 h 2 v -1 h 2 v -1 h 2 v -1 h 12" /><path
       id="path7"
       style="fill:none;stroke:#000000;stroke-width:0.1;stroke-linecap:square;stroke-linejoin:bevel"
       d="m 16.5,16.5 v -2.25 c 0,-0.75 0.5,-1.25 1,-1.5 l 5.75,-2.875 c 0.5,-0.25 1.375,-0.25 1.875,0.25 0.25,0.25 0.375,0.5 0.375,1 V 12.5 m -12,4 V 6.25 c 0,-1 0.75,-1.75 1.75,-1.75 H 16.5 M 7.5,16 6.625,12.5 h 3.75 L 9.5,16" /></g></svg>
