<?xml version="1.0" encoding="UTF-8" standalone="no"?>
<!-- Created with Inkscape (http://www.inkscape.org/) -->

<svg
   width="44"
   height="58"
   viewBox="0 0 44 58"
   version="1.1"
   id="svg1"
   xml:space="preserve"
   xmlns="http://www.w3.org/2000/svg"
   xmlns:svg="http://www.w3.org/2000/svg"><defs
     id="defs1" /><g
     id="layer6"
     style="display:inline"><path
       id="path8"
       style="fill:#fff3e3;fill-opacity:1;stroke:#fff3e3;stroke-width:0.1;stroke-linecap:round;stroke-opacity:1"
       d="m 31.5,26.5 a 9.5,6 0 0 1 -9.5,6 9.5,6 0 0 1 -9.5,-6 9.5,6 0 0 1 9.5,-6 9.5,6 0 0 1 9.5,6 z" /><path
       id="path9"
       style="fill:#fff3e3;fill-opacity:1;stroke:#fff3e3;stroke-width:0.092582;stroke-linecap:round;stroke-opacity:1"
       d="m 21.5,7 a 3,3.5 0 0 1 -3,3.5 3,3.5 0 0 1 -3,-3.5 3,3.5 0 0 1 3,-3.5 3,3.5 0 0 1 3,3.5 z" /><path
       id="path10"
       style="fill:#fff3e3;fill-opacity:1;stroke:#fff3e3;stroke-width:0.1;stroke-linecap:round;stroke-opacity:1"
       d="m 39.5,7.5 a 4,3 0 0 1 -4,3 4,3 0 0 1 -4,-3 4,3 0 0 1 4,-3 4,3 0 0 1 4,3 z" /><path
       id="path11"
       style="display:inline;fill:#fff3e3;fill-opacity:1;stroke:#fff3e3;stroke-width:0.1;stroke-linecap:round;stroke-opacity:1"
       d="M 28.5,40 A 7.5,4.5 0 0 1 21,44.5 7.5,4.5 0 0 1 13.5,40 7.5,4.5 0 0 1 21,35.5 7.5,4.5 0 0 1 28.5,40 Z" /></g></svg>
