<?xml version="1.0" encoding="UTF-8" standalone="no"?>
<!-- Created with Inkscape (http://www.inkscape.org/) -->

<svg
   width="44"
   height="58"
   viewBox="0 0 44 58"
   version="1.1"
   id="svg1"
   xml:space="preserve"
   xmlns="http://www.w3.org/2000/svg"
   xmlns:svg="http://www.w3.org/2000/svg"><defs
     id="defs1" /><g
     id="layer7"
     style="display:inline"><path
       id="path12"
       style="fill:#000000;stroke:#000000;stroke-width:0.1;stroke-linecap:round"
       d="M 34.5,27 A 15.5,15.5 0 0 1 19,42.5 15.5,15.5 0 0 1 3.5,27 15.5,15.5 0 0 1 19,11.5 15.5,15.5 0 0 1 34.5,27 Z" /><path
       id="path13"
       style="fill:#000000;stroke:#000000;stroke-width:0.1;stroke-linecap:round"
       d="M 24.5,9 A 5.5,5.5 0 0 1 19,14.5 5.5,5.5 0 0 1 13.5,9 5.5,5.5 0 0 1 19,3.5 5.5,5.5 0 0 1 24.5,9 Z" /></g></svg>
