<?xml version="1.0" encoding="UTF-8" standalone="no"?>
<!-- Created with Inkscape (http://www.inkscape.org/) -->

<svg
   width="29"
   height="31.999998"
   viewBox="0 0 29 31.999999"
   version="1.1"
   id="svg1"
   xml:space="preserve"
   xmlns="http://www.w3.org/2000/svg"
   xmlns:svg="http://www.w3.org/2000/svg"><defs
     id="defs1" /><g
     id="layer4"
     style="display:inline"><path
       id="path3"
       style="fill:#002a88;stroke:#002a88;stroke-width:0.1;stroke-linecap:round"
       d="m 19.5,19.5 a 6.5,3.9999998 0 0 1 -6.5,4 6.5,3.9999998 0 0 1 -6.5,-4 6.5,3.9999998 0 0 1 6.5,-4 6.5,3.9999998 0 0 1 6.5,4 z" /><path
       id="path4"
       style="fill:#002a88;stroke:#002a88;stroke-width:0.1;stroke-linecap:round"
       d="M 9.5,26 A 1.5,2.5 0 0 1 8,28.5 1.5,2.5 0 0 1 6.5,26 1.5,2.5 0 0 1 8,23.5 1.5,2.5 0 0 1 9.5,26 Z" /><path
       id="path5"
       style="fill:#002a88;stroke:#002a88;stroke-width:0.1;stroke-linecap:round"
       d="m 21.75,24.5 a 2.125,3 0 0 1 -2.125,3 2.125,3 0 0 1 -2.125,-3 2.125,3 0 0 1 2.125,-3 2.125,3 0 0 1 2.125,3 z" /><path
       id="path6"
       style="fill:#002a88;stroke:#002a88;stroke-width:0.102624;stroke-linecap:round"
       d="M 17.501452,11.5 A 5.0007262,4.0014521 0 0 1 12.500726,15.501452 5.0007262,4.0014521 0 0 1 7.5,11.5 5.0007262,4.0014521 0 0 1 12.500726,7.4985479 5.0007262,4.0014521 0 0 1 17.501452,11.5 Z" /><path
       id="path7"
       style="fill:#002a88;stroke:#002a88;stroke-width:0.1;stroke-linecap:round"
       d="m 20.5,12.5 a 2.5,1.9999999 0 0 1 -2.5,2 2.5,1.9999999 0 0 1 -2.5,-2 2.5,1.9999999 0 0 1 2.5,-2 2.5,1.9999999 0 0 1 2.5,2 z" /><path
       id="path8"
       style="fill:#002a88;stroke:#002a88;stroke-width:0.1;stroke-linecap:round"
       d="m 21.5,18.5 a 1.5,1.9999999 0 0 1 -1.5,2 1.5,1.9999999 0 0 1 -1.5,-2 1.5,1.9999999 0 0 1 1.5,-2 1.5,1.9999999 0 0 1 1.5,2 z" /></g></svg>
