<?xml version="1.0" encoding="UTF-8" standalone="no"?>
<!-- Created with Inkscape (http://www.inkscape.org/) -->

<svg
   width="29"
   height="31.999998"
   viewBox="0 0 29 31.999999"
   version="1.1"
   id="svg1"
   xml:space="preserve"
   xmlns="http://www.w3.org/2000/svg"
   xmlns:svg="http://www.w3.org/2000/svg"><defs
     id="defs1" /><g
     id="layer5"
     style="display:inline"><path
       id="path9"
       style="fill:#ffffff;stroke:#ffffff;stroke-width:0.1;stroke-linecap:round"
       d="m 25.5,15.999999 a 10.5,10.5 0 0 1 -10.5,10.5 10.5,10.5 0 0 1 -10.5,-10.5 10.5,10.5 0 0 1 10.5,-10.5 10.5,10.5 0 0 1 10.5,10.5 z" /><path
       id="path10"
       style="fill:#ffffff;stroke:#ffffff;stroke-width:0.1;stroke-linecap:round"
       d="m 25.5,9.5 a 3.9999998,3.9999998 0 0 1 -4,4 3.9999998,3.9999998 0 0 1 -4,-4 3.9999998,3.9999998 0 0 1 4,-3.9999998 A 3.9999998,3.9999998 0 0 1 25.5,9.5 Z" /><path
       id="path11"
       style="display:inline;fill:#ffffff;stroke:#ffffff;stroke-width:0.1;stroke-linecap:round"
       d="m 12.5,9.5 a 3.9999998,3.9999998 0 0 1 -4,4 A 3.9999998,3.9999998 0 0 1 4.5000002,9.5 3.9999998,3.9999998 0 0 1 8.5,5.5000002 3.9999998,3.9999998 0 0 1 12.5,9.5 Z" /></g></svg>
