<?xml version="1.0" encoding="UTF-8" standalone="no"?>
<!-- Created with Inkscape (http://www.inkscape.org/) -->

<svg
   width="65.1371"
   height="26.053852"
   viewBox="0 0 65.1371 26.053852"
   version="1.1"
   id="svg1"
   xml:space="preserve"
   xmlns="http://www.w3.org/2000/svg"
   xmlns:svg="http://www.w3.org/2000/svg"><defs
     id="defs1" /><g
     id="layer5"
     transform="translate(-3.4500003,-3.4730735)"><path
       id="path1"
       style="fill:#008088;fill-opacity:1;stroke:#008088;stroke-width:0.106291;stroke-linecap:round;stroke-opacity:1"
       d="M 19.446854,16.475 A 7.9718543,7.9718543 0 0 1 11.475,24.446854 7.9718543,7.9718543 0 0 1 3.5031457,16.475 7.9718543,7.9718543 0 0 1 11.475,8.5031457 7.9718543,7.9718543 0 0 1 19.446854,16.475 Z" /><path
       id="path2"
       style="fill:#008088;fill-opacity:1;stroke:#008088;stroke-width:0.105724;stroke-linecap:round;stroke-opacity:1"
       d="M 37.5,16.5 A 7.0000004,12.974064 0 0 1 30.5,29.474064 7.0000004,12.974064 0 0 1 23.5,16.5 7.0000004,12.974064 0 0 1 30.5,3.5259356 7.0000004,12.974064 0 0 1 37.5,16.5 Z" /><path
       style="fill:#008088;fill-opacity:1;stroke:#008088;stroke-width:0.1;stroke-linecap:round;stroke-opacity:1"
       d="m 45.5,10.5 c -2.587452,0 -3.645477,1.846315 -4,4 -0.888093,5.395052 5.967804,10.981852 14,11 11.187912,0.02528 12.847157,-7.895556 13,-9 0.298534,-2.157203 -1.169195,-6.165402 -6,-6 -4.997072,0.171095 -6.5,4 -9,4 -3,0 -4.5,-4 -8,-4 z"
       id="path3" /></g></svg>
