<?xml version="1.0" encoding="UTF-8" standalone="no"?>
<!-- Created with Inkscape (http://www.inkscape.org/) -->

<svg
   width="131"
   height="41"
   viewBox="0 0 131 41"
   version="1.1"
   id="svg1"
   xml:space="preserve"
   xmlns="http://www.w3.org/2000/svg"
   xmlns:svg="http://www.w3.org/2000/svg"><defs
     id="defs1" /><g
     id="layer2"
     style="display:inline"><path
       id="path1"
       style="fill:#000000;stroke:#000000;stroke-width:0.1;stroke-linecap:round"
       d="m 27.5,10.5 a 7,7 0 0 1 -7,7 7,7 0 0 1 -7,-7 7,7 0 0 1 7,-7 7,7 0 0 1 7,7 z" /><path
       id="path3"
       style="fill:#ffa300;fill-opacity:1;stroke:#ffa300;stroke-width:0.1;stroke-linecap:round;stroke-opacity:1"
       d="m 17.5,30.5 a 7,7 0 0 1 -7,7 7,7 0 0 1 -7,-7 7,7 0 0 1 7,-7 7,7 0 0 1 7,7 z" /><path
       id="path4"
       style="fill:#5f574f;fill-opacity:1;stroke:#5f574f;stroke-width:0.1;stroke-linecap:round;stroke-opacity:1"
       d="m 37.5,30.5 a 7,7 0 0 1 -7,7 7,7 0 0 1 -7,-7 7,7 0 0 1 7,-7 7,7 0 0 1 7,7 z" /><path
       id="rect1"
       style="fill:#000000;stroke:#000000;stroke-width:0.1;stroke-linecap:round"
       d="m 59.5,4.5 h 12 v 12 h -12 z" /><path
       id="path5"
       style="fill:#83769c;fill-opacity:1;stroke:#83769c;stroke-width:0.0957427;stroke-linecap:round;stroke-opacity:1"
       d="m 50.5,24.5 h 11 v 12 h -11 z" /><path
       id="path6"
       style="fill:#ab5236;fill-opacity:1;stroke:#ab5236;stroke-width:0.0997668;stroke-linecap:round;stroke-opacity:1"
       d="M 69.502012,24.502012 H 81.450117 V 36.497988 H 69.502012 Z" /><path
       style="fill:#000000;stroke:#000000;stroke-width:0.1;stroke-linecap:round"
       d="m 110.5,3.5 -6,13 h 12 z"
       id="path2" /><path
       style="fill:#000000;fill-opacity:1;stroke:#000000;stroke-width:0.1;stroke-linecap:round;stroke-opacity:1"
       d="m 101.5,23.5 -6,13 h 7 z"
       id="path7" /><path
       style="fill:#000000;fill-opacity:1;stroke:#000000;stroke-width:0.1;stroke-linecap:round;stroke-opacity:1"
       d="m 119.5,23.5 3,13 h 3 z"
       id="path8" /></g></svg>
