<?xml version="1.0" encoding="UTF-8" standalone="no"?>
<!-- Created with Inkscape (http://www.inkscape.org/) -->

<svg
   width="38"
   height="45"
   viewBox="0 0 38 45"
   version="1.1"
   id="svg1"
   xml:space="preserve"
   xmlns="http://www.w3.org/2000/svg"
   xmlns:svg="http://www.w3.org/2000/svg"><defs
     id="defs1" /><g
     id="layer3"><path
       id="path12"
       style="fill:#606050;fill-opacity:1;stroke:#606050;stroke-width:0.0934783;stroke-linecap:round;stroke-opacity:1"
       d="M 26.453261,18.025 A 7.478261,7.478261 0 0 1 18.975,25.503261 7.478261,7.478261 0 0 1 11.496739,18.025 7.478261,7.478261 0 0 1 18.975,10.546739 7.478261,7.478261 0 0 1 26.453261,18.025 Z" /><path
       id="path13"
       style="fill:#606050;fill-opacity:1;stroke:#606050;stroke-width:0.1;stroke-linecap:round;stroke-opacity:1"
       d="m 16.5,30.5 a 5,5 0 0 1 -5,5 5,5 0 0 1 -5,-5 5,5 0 0 1 5,-5 5,5 0 0 1 5,5 z" /><path
       id="path14"
       style="fill:#606050;fill-opacity:1;stroke:#606050;stroke-width:0.1;stroke-linecap:round;stroke-opacity:1"
       d="m 30.5,30.5 a 5,5 0 0 1 -5,5 5,5 0 0 1 -5,-5 5,5 0 0 1 5,-5 5,5 0 0 1 5,5 z" /><path
       style="fill:#606050;fill-opacity:1;stroke:#606050;stroke-width:0.1;stroke-linecap:round;stroke-opacity:1"
       d="m 19.5,9.5 -14,24 h 27 z"
       id="path16" /></g></svg>
