<?xml version="1.0" encoding="UTF-8" standalone="no"?>
<!-- Created with Inkscape (http://www.inkscape.org/) -->

<svg
   width="38"
   height="45"
   viewBox="0 0 38 45"
   version="1.1"
   id="svg1"
   xml:space="preserve"
   xmlns="http://www.w3.org/2000/svg"
   xmlns:svg="http://www.w3.org/2000/svg"><defs
     id="defs1" /><g
     id="layer4"><path
       id="path17"
       style="fill:#c84c0c;fill-opacity:1;stroke:#c84c0c;stroke-width:0.111801;stroke-linecap:round;stroke-opacity:1"
       d="M 23.5,11.473377 A 5.4695723,2.9708648 0 0 1 18.030427,14.444242 5.4695723,2.9708648 0 0 1 12.560855,11.473377 5.4695723,2.9708648 0 0 1 18.030427,8.5025125 5.4695723,2.9708648 0 0 1 23.5,11.473377 Z" /><path
       id="path18"
       style="fill:#c84c0c;fill-opacity:1;stroke:#c84c0c;stroke-width:0.1;stroke-linecap:round;stroke-opacity:1"
       d="m 27.45,25.5 a 8.4999996,4 0 0 1 -8.5,4 8.4999996,4 0 0 1 -8.499999,-4 8.4999996,4 0 0 1 8.499999,-4 8.4999996,4 0 0 1 8.5,4 z" /><path
       id="ellipse18"
       style="fill:#c84c0c;fill-opacity:1;stroke:#c84c0c;stroke-width:0.1;stroke-linecap:round;stroke-opacity:1"
       d="m 27.450001,17.549999 a 8.5,4 0 0 1 -8.5,4 8.5,4 0 0 1 -8.5,-4 8.5,4 0 0 1 8.5,-4 8.5,4 0 0 1 8.5,4 z" /><path
       id="rect19"
       style="fill:#c84c0c;fill-opacity:1;stroke:#c84c0c;stroke-width:0.0942966;stroke-linecap:round;stroke-opacity:1"
       d="m 10.447149,17.500008 h 17.005703 v 7.999984 H 10.447149 Z" /><path
       id="rect20"
       style="fill:#c84c0c;fill-opacity:1;stroke:#c84c0c;stroke-width:0.1;stroke-linecap:round;stroke-opacity:1"
       d="M 12.560855,11.473377 H 23.5 V 17.5 H 12.560855 Z" /><path
       id="path20"
       style="fill:#c84c0c;fill-opacity:1;stroke:#c84c0c;stroke-width:0.1;stroke-linecap:round;stroke-opacity:1"
       d="m 7.5,26.5 c -1.6568542,0 -3,-1.343146 -3,-3 0,-1.656854 1.3431458,-3 3,-3 0,2.5 0,4.5 0,6 z" /><path
       id="path21"
       style="fill:#c84c0c;fill-opacity:1;stroke:#c84c0c;stroke-width:0.1;stroke-linecap:round;stroke-opacity:1"
       d="m 30.5,26.5 c 1.656854,0 3,-1.343146 3,-3 0,-1.656854 -1.343146,-3 -3,-3 z" /><path
       id="path22"
       style="fill:#c84c0c;fill-opacity:1;stroke:#c84c0c;stroke-width:0.137355;stroke-linecap:round;stroke-opacity:1"
       d="m 4.5186774,36.481323 c 0,-2.713179 1.5474486,-4.912646 3.4563226,-4.912646 1.908874,0 3.456323,2.199467 3.456323,4.912646 z" /><path
       id="path23"
       style="fill:#c84c0c;fill-opacity:1;stroke:#c84c0c;stroke-width:0.137355;stroke-linecap:round;stroke-opacity:1"
       d="m 26.518677,36.481323 c 0,-2.713179 1.547449,-4.912646 3.456323,-4.912646 1.908874,0 3.456323,2.199467 3.456323,4.912646 z" /></g></svg>
