<?xml version="1.0" encoding="UTF-8" standalone="no"?>
<!-- Created with Inkscape (http://www.inkscape.org/) -->

<svg
   width="38"
   height="45"
   viewBox="0 0 38 45"
   version="1.1"
   id="svg1"
   xml:space="preserve"
   xmlns="http://www.w3.org/2000/svg"
   xmlns:svg="http://www.w3.org/2000/svg"><defs
     id="defs1" /><g
     id="layer2"><path
       id="path1"
       style="fill:#242490;fill-opacity:1;stroke:#242490;stroke-width:0.103102;stroke-linecap:round"
       d="M 27.498451,13.999226 A 7.9734511,7.4992256 0 0 1 19.525,21.498451 7.9734511,7.4992256 0 0 1 11.551548,13.999226 7.9734511,7.4992256 0 0 1 19.525,6.5 a 7.9734511,7.4992256 0 0 1 7.973451,7.499226 z" /><path
       id="path2"
       style="fill:#242490;fill-opacity:1;stroke:#242490;stroke-width:0.1;stroke-linecap:round"
       d="M 24.5,25 A 4.5,4.5 0 0 1 20,29.5 4.5,4.5 0 0 1 15.5,25 4.5,4.5 0 0 1 20,20.5 4.5,4.5 0 0 1 24.5,25 Z" /><path
       id="path3"
       style="fill:#242490;fill-opacity:1;stroke:#242490;stroke-width:0.0862741;stroke-linecap:round"
       d="M 17.506863,30.025 A 1.506863,1.481863 0 0 1 16,31.506863 1.506863,1.481863 0 0 1 14.493137,30.025 1.506863,1.481863 0 0 1 16,28.543137 1.506863,1.481863 0 0 1 17.506863,30.025 Z" /><path
       id="path4"
       style="fill:#242490;fill-opacity:1;stroke:#242490;stroke-width:0.1;stroke-linecap:round"
       d="M 26.5,29 A 1.5,1.5 0 0 1 25,30.5 1.5,1.5 0 0 1 23.5,29 1.5,1.5 0 0 1 25,27.5 1.5,1.5 0 0 1 26.5,29 Z" /><path
       style="fill:#242490;fill-opacity:1;stroke:#242490;stroke-width:0.1;stroke-linecap:round;stroke-opacity:1"
       d="m 26.5,9.5 v -4 l -2,2 z"
       id="path5" /><path
       style="fill:#242490;fill-opacity:1;stroke:#242490;stroke-width:0.1;stroke-linecap:round;stroke-opacity:1"
       d="m 6.5,5.5 13,-1 -6,4 z"
       id="path6" /><path
       style="fill:#242490;fill-opacity:1;stroke:#242490;stroke-width:0.1;stroke-linecap:round;stroke-opacity:1"
       d="m 12.5,9.5 -8,5 h 6 z"
       id="path7" /><path
       style="fill:#242490;fill-opacity:1;stroke:#242490;stroke-width:0.1;stroke-linecap:round;stroke-opacity:1"
       d="m 6.5,21.5 5,-5 4,6 z"
       id="path8" /><path
       style="fill:#242490;fill-opacity:1;stroke:#242490;stroke-width:0.1;stroke-linecap:round;stroke-opacity:1"
       d="m 13.5,23.5 -3,7 5,-4 z"
       id="path9" /><path
       style="fill:#242490;fill-opacity:1;stroke:#242490;stroke-width:0.1;stroke-linecap:round;stroke-opacity:1"
       d="m 28.5,41.5 -14,-6 -2,6 z"
       id="path10" /><path
       style="fill:#242490;fill-opacity:1;stroke:#242490;stroke-width:0.1;stroke-linecap:round;stroke-opacity:1"
       d="m 20.5,35.5 -2,6 h 14 z"
       id="path11" /></g></svg>
