<?xml version="1.0" encoding="UTF-8" standalone="no"?>
<!-- Created with Inkscape (http://www.inkscape.org/) -->

<svg
   width="107"
   height="40"
   viewBox="0 0 107 40"
   version="1.1"
   id="svg1"
   xml:space="preserve"
   xmlns="http://www.w3.org/2000/svg"
   xmlns:svg="http://www.w3.org/2000/svg"><defs
     id="defs1" /><g
     id="layer2"><path
       id="path10"
       style="display:inline;fill:none;stroke:#000000;stroke-width:0.1;stroke-linecap:round"
       d="m 59.5,17.5 a 1,1 0 0 1 -1,1 1,1 0 0 1 -1,-1 1,1 0 0 1 1,-1 1,1 0 0 1 1,1 z m -4,0 c 0,0 0.5,-1 3,-1 2.5,0 3,1 3,1 0,0 -0.5,1 -3,1 -2.5,0 -3,-1 -3,-1 z m -9,0 a 1,1 0 0 1 -1,1 1,1 0 0 1 -1,-1 1,1 0 0 1 1,-1 1,1 0 0 1 1,1 z m -4,0 c 0,0 0.5,-1 3,-1 2.5,0 3,1 3,1 0,0 -0.5,1 -3,1 -2.5,0 -3,-1 -3,-1 z" /><path
       id="path11"
       style="display:inline;fill:none;stroke:#000000;stroke-width:0.1;stroke-linecap:round;stroke-dasharray:none;stroke-opacity:1"
       d="m 56.5,14.5 c -1.75,0 -3,2 -3,2 0,0 -0.02954,2.282996 0.25,3.75 0.210549,1.104935 0.75,1 0.75,1.75 0,0.75 -0.75,1.5 -2.5,1.5 -1.75,0 -2.5,-0.75 -2.5,-1.5 0,-0.75 0.539451,-0.645065 0.75,-1.75 0.27954,-1.467004 0.25,-3.75 0.25,-3.75 0,0 -1.25,-2 -3,-2" /><path
       id="path12"
       style="display:inline;fill:none;stroke:#000000;stroke-width:0.1;stroke-linecap:round;stroke-dasharray:none;stroke-opacity:1"
       d="M 55.25,26.5 C 54,26 53,25.5 52,25.5 c -1,0 -2,0.5 -3.25,1 1.25,0.5 2.25,1 3.25,1 1,0 2,-0.5 3.25,-1 z" /><path
       id="path13"
       style="display:inline;fill:none;stroke:#000000;stroke-width:0.1;stroke-linecap:round;stroke-dasharray:none;stroke-opacity:1"
       d="m 64.75,14.75 c -0.830305,-1.034965 -1.621541,-1.621541 -2.25,-2.25 -1,-1 -2.5,-1.5 -3.5,-2 -2.868125,0.784871 -3.75,1 -7,1 -3.25,0 -4.131875,-0.215129 -7,-1 -1,0.5 -2.5,1 -3.5,2 -0.628459,0.628459 -1.419695,1.215035 -2.25,2.25 M 57.5,36.5 c -0.75,-2.25 -1.25,-5 -1.25,-5 m 7,-9 c 0,0.891572 -1,4.25 -3.75,7 -1,1 -4.5,3 -7.5,3 -3,0 -6.5,-2 -7.5,-3 -2.75,-2.75 -3.75,-6.108428 -3.75,-7 m 24,-7.75 C 66,14 66.5,13.5 67,13.5 c 0.75,0 1.5,1 1.5,2.5 0,0.930201 -1,3 -2,5 -1,2 -1.932698,2.492525 -3.422859,2.487945 M 64.75,14.75 C 65.015888,7.0997085 59.12255,3.4307294 52,3.5 44.87745,3.4307294 38.984112,7.0997085 39.25,14.75 M 46.5,36.5 c 0.75,-2.25 1.25,-5 1.25,-5 M 39.25,14.75 C 38,14 37.5,13.5 37,13.5 c -0.75,0 -1.5,1 -1.5,2.5 0,0.930201 1,3 2,5 1,2 1.932698,2.492525 3.422859,2.487945" /><path
       id="path18"
       style="fill:none;stroke:#000000;stroke-width:0.1;stroke-linecap:round;stroke-dasharray:none;stroke-opacity:1"
       d="m 23.5,14.75 c 0,-0.5 -1,-1.25 -2,-1.25 -1.75,0 -3,0.75 -3,0.75 m -9,0.5 c 0,-0.5 1,-1.25 2,-1.25 1.75,0 3,0.75 3,0.75 m 5.542969,2.25 A 0.45703125,0.4609375 0 0 0 20.5,16.960937 0.45703125,0.4609375 0 0 0 20.957031,16.5 0.45703125,0.4609375 0 0 0 20.5,16.039062 0.45703125,0.4609375 0 0 0 20.042969,16.5 Z M 23.5,16.5 c -1.5,0 -1.75,-1 -3,-1 -0.783359,0 -2.616346,0.90022 -2.25,1.25 0.06478,0.06185 0.128351,0.04094 0.350565,0.119014 C 18.998609,17.008856 19.697826,17.25 20.5,17.25 c 1.62839,0 2.4155,-0.811087 2.4155,-0.811087 M 12.957031,16.5 A 0.45703125,0.4609375 0 0 1 12.5,16.960937 0.45703125,0.4609375 0 0 1 12.042969,16.5 0.45703125,0.4609375 0 0 1 12.5,16.039062 0.45703125,0.4609375 0 0 1 12.957031,16.5 Z M 9.5,16.5 c 1.5,0 1.75,-1 3,-1 0.783359,0 2.616346,0.90022 2.25,1.25 -0.06478,0.06185 -0.128351,0.04094 -0.350565,0.119014 C 14.001391,17.008856 13.302174,17.25 12.5,17.25 c -1.62839,0 -2.4155,-0.811087 -2.4155,-0.811087" /><path
       id="path21"
       style="fill:none;stroke:#000000;stroke-width:0.1;stroke-linecap:round;stroke-dasharray:none;stroke-opacity:1"
       d="M 18.149913,22.476043 C 18.149913,21.976043 17.75,21.75 17.5,21.75 c -0.5,0 -0.5,0.75 -1,0.75 -0.5,0 -0.5,-0.75 -1,-0.75 -0.25,0 -0.649913,0.226043 -0.649913,0.726043 M 18.25,19.5 C 19,20 19.5,20.25 19.5,21 c 0,0.75 -1,1.5 -1.5,1.5 -0.331158,0 -0.75,0 -1.067391,-0.276023 M 14.75,19.5 C 14,20 13.5,20.25 13.5,21 c 0,0.75 1,1.5 1.5,1.5 0.331158,0 0.75,0 1.067391,-0.276023" /><path
       id="path24"
       style="fill:none;stroke:#000000;stroke-width:0.1;stroke-linecap:round;stroke-dasharray:none;stroke-opacity:1"
       d="m 18.782654,26.431101 c 0,0 -0.352241,0.138486 -0.532654,0.318899 -0.25,0.25 -0.5,0.5 -1.75,0.5 -1.25,0 -1.5,-0.25 -1.75,-0.5 -0.180413,-0.180413 -0.532654,-0.318899 -0.532654,-0.318899 M 19.5,26.75 c -0.75,-0.25 -0.656027,-0.318395 -1,-0.5 -0.460986,-0.243383 -1.140977,-0.5 -2,-0.5 -0.859023,0 -1.539014,0.256617 -2,0.5 -0.343973,0.181605 -0.25,0.25 -1,0.5" /><path
       id="path32"
       style="fill:none;stroke:#000000;stroke-width:0.1;stroke-linecap:round;stroke-dasharray:none;stroke-opacity:1"
       d="m 29.25,36.75 c -3.25,-2 -6.212866,-3.085852 -6.212866,-3.085852 m 0.221417,-4.88512 c -0.0411,4.194793 -0.52665,7.964203 -0.5,8 M 27.533571,16.71136 C 28.5,16.5 29.5,17 29.5,18.130047 29.5,19.125704 28.25,21.75 28.25,22.5 c 0,0.25 -0.5,1 -1,1 -0.5,0 -0.883696,-0.29346 -0.883696,-0.29346 M 26.75,22.25 c -0.509502,1.273755 -1.75,4.5 -3.25,6.25 -2.140461,2.497204 -3.934387,4 -7,4 -3.065613,0 -4.859539,-1.502796 -7,-4 C 8,26.75 6.7595018,23.523755 6.25,22.25 M 27.5,18.5 c 0,-3 0.25,-4 0.25,-6 0,-2 -1.25,-5 -2.25,-6 -1.5,-1.5 -6,-3 -9,-3 -3,0 -7.5,1.5 -9,3 -1,1 -2.25,4 -2.25,6 0,2 0.25,3 0.25,6 m 9,16 c 0.5,0.5 0.75,1 2,1 1.25,0 1.5,-0.5 2,-1 M 3.75,36.75 c 3.25,-2 6.2128663,-3.085852 6.2128663,-3.085852 m -0.2214178,-4.88512 c 0.0411,4.194793 0.5266505,7.964203 0.5000005,8 M 5.4174792,15.754995 C 5.4174792,14.146628 5.7865367,13.426927 6.25,12.5 7,11 7.3572244,9.9003198 7.5,9.25 c 1.3791354,-0.5 4.25,-3 9,-3 4.75,0 7.620865,2.5 9,3 0.142776,0.65032 0.5,1.75 1.25,3.25 0.463463,0.926927 0.832521,1.646628 0.832521,3.254995 M 5.4664272,16.71136 C 4.5,16.5 3.5,17 3.5,18.130047 3.5,19.125704 4.75,21.75 4.75,22.5 c 0,0.25 0.5,1 1,1 0.5,0 0.8836965,-0.29346 0.8836965,-0.29346" /><path
       id="path34"
       style="fill:none;stroke:#000000;stroke-width:0.1;stroke-linecap:round"
       d="M 96.5,15 A 1.5,1.5 0 0 1 95,16.5 1.5,1.5 0 0 1 93.5,15 1.5,1.5 0 0 1 95,13.5 1.5,1.5 0 0 1 96.5,15 Z m -12,0 A 1.5,1.5 0 0 1 83,16.5 1.5,1.5 0 0 1 81.5,15 1.5,1.5 0 0 1 83,13.5 1.5,1.5 0 0 1 84.5,15 Z" /><path
       style="fill:none;stroke:#000000;stroke-width:0.1;stroke-linecap:round;stroke-dasharray:none;stroke-opacity:1"
       d="m 82.5,23.5 c 0,0 2,3 6.5,3 4.5,0 6.5,-3 6.5,-3"
       id="path35" /><path
       id="path36"
       style="fill:none;stroke:#000000;stroke-width:0.1;stroke-linecap:round"
       d="M 103.5,18 A 14.5,14.5 0 0 1 89,32.5 14.5,14.5 0 0 1 74.5,18 14.5,14.5 0 0 1 89,3.5 14.5,14.5 0 0 1 103.5,18 Z" /></g></svg>
