<?xml version="1.0" encoding="UTF-8" standalone="no"?>
<!-- Created with Inkscape (http://www.inkscape.org/) -->

<svg
   width="157"
   height="33"
   viewBox="0 0 157 33"
   version="1.1"
   id="svg1"
   xml:space="preserve"
   xmlns="http://www.w3.org/2000/svg"
   xmlns:svg="http://www.w3.org/2000/svg"
   xmlns:rdf="http://www.w3.org/1999/02/22-rdf-syntax-ns#"
   xmlns:cc="http://creativecommons.org/ns#"
   xmlns:dc="http://purl.org/dc/elements/1.1/"><defs
     id="defs1" /><metadata
     id="metadata1"><rdf:RDF><cc:Work
         rdf:about=""><dc:format>image/svg+xml</dc:format><dc:type
           rdf:resource="http://purl.org/dc/dcmitype/StillImage" /></cc:Work></rdf:RDF></metadata><g
     id="layer1"><path
       id="path8"
       style="fill:none;stroke:#000000;stroke-width:0.1;stroke-linecap:round;stroke-dasharray:none"
       d="m 15.5,17.5 v 8 h 6 v -8 z m -1,4 h 8 m -4,-5 v 10 m -11,-7 h 6 m -3,-4 v 8 m -3,-7 v 6 h 6 v -6 z m -2,-3 v 16 h 19 v -16 z m -2,1 11,-11 12,12" /><path
       id="path12"
       style="fill:none;stroke:#000000;stroke-width:0.1;stroke-linecap:round"
       d="m 44.89269,11.5 c 0,0.211489 -0.175813,0.382935 -0.39269,0.382935 -0.216877,0 -0.39269,-0.171446 -0.39269,-0.382935 0,-0.211489 0.175813,-0.382935 0.39269,-0.382935 0.216877,0 0.39269,0.171446 0.39269,0.382935 z m -6.009755,0 c 0,0.211489 -0.171446,0.382935 -0.382935,0.382935 -0.211489,0 -0.382935,-0.171446 -0.382935,-0.382935 0,-0.211489 0.171446,-0.382935 0.382935,-0.382935 0.211489,0 0.382935,0.171446 0.382935,0.382935 z M 36.5,14.5 c -0.5,0.5 -1,1 -1,2.5 0,1.5 1.511996,6.153849 6.5,6.5 1.243332,0.08628 2.249592,-0.863512 3.309703,-1.799549 C 46.669277,20.5 46.508849,19.037713 46.5,18.5 c -0.01645,-0.999865 -1,-4 -1,-4 m 5,3 c 0,4.970563 -4.029437,9 -9,9 -4.970563,0 -9,-4.029437 -9,-9 0,-4.970563 4.029437,-9 9,-9 4.970563,0 9,4.029437 9,9 z" /><path
       style="fill:none;stroke:#000000;stroke-width:0.1;stroke-linecap:round;stroke-dasharray:none"
       d="m 56.5,15 c 0,-2.5 2.5,-4.5 4.5,-4.5 2,0 4.5,2.5 4.5,4 -7.28e-4,-1.525417 2.5,-4 4.5,-4 2,0 4.5,2 4.5,4.5 0,1.161346 -0.399198,2.899198 -2,4.5 l -7,7 c -2.676567,-2.651624 -5,-5 -7,-7 -1.597171,-1.597171 -2,-3.34318 -2,-4.5 z"
       id="path13" /><path
       id="path22"
       style="fill:none;stroke:#000000;stroke-width:0.1;stroke-linecap:round;stroke-dasharray:none"
       d="m 99.5,9.5 2,-2 m 0,9 h 3 m -5,7 2,2 m -9,3 v -3 m -9,0 2,-2 m -5,-7 h 3 m 0,-9 2,2 m 7,-5 v 3 m 7,9 a 7,7 0 0 1 -7,7 7,7 0 0 1 -7,-7 7,7 0 0 1 7,-7 7,7 0 0 1 7,7 z" /><path
       style="fill:none;stroke:#000000;stroke-width:0.1;stroke-linecap:round;stroke-dasharray:none"
       d="m 115.5,23.5 c -4,0 -6,-2.5 -6,-4 0,-1.5 2.5,-4 4,-4 1.5,0 3,2 3,2 0,0 -1,-1 2,-4 0.86364,-0.863637 2.5,-1.74065 4,-1.74065 1.87566,0 3.12822,0.868871 4,1.74065 2.5,2.5 2,3 2,3 0,0 0.49997,-1.746374 3,-1.754818 2.6941,-0.0091 4.74258,1.754818 4.77897,4.754818 0.0303,2.5 -2.77897,4 -5.77897,4 z"
       id="path23" /><path
       id="path27"
       style="fill:none;stroke:#000000;stroke-width:0.1;stroke-linecap:round;stroke-dasharray:none"
       d="m 140.5,12.5 6,6 6,-6 m -12,16 6,-6 6,6 m -6,-17 v 11 m 4,-15 a 4,4 0 0 1 -4,4 4,4 0 0 1 -4,-4 4,4 0 0 1 4,-4 4,4 0 0 1 4,4 z" /></g></svg>
