<?xml version="1.0" encoding="UTF-8" standalone="no"?>
<!-- Created with Inkscape (http://www.inkscape.org/) -->

<svg
   width="30"
   height="25"
   viewBox="0 0 30 25"
   version="1.1"
   id="svg1"
   xml:space="preserve"
   xmlns="http://www.w3.org/2000/svg"
   xmlns:svg="http://www.w3.org/2000/svg"><defs
     id="defs1" /><g
     id="layer1"><path
       style="fill:none;stroke:#000000;stroke-width:0.1;stroke-dasharray:none"
       d="M 3.4768787,8 C 5,7 8,5.767971 11,5 14,4.232029 15.332181,4.263049 18,4 20.667819,3.736951 24,3.538095 27,3.507488"
       id="path2" /><path
       style="fill:none;stroke:#000000;stroke-width:0.1;stroke-dasharray:none"
       d="m 3,16 c 0,0 0.6528195,-1.000407 2,-2 1.0668772,-0.791611 2.6741694,-1.558056 4,-2 3,-1 6,-0.956431 6,-0.956431"
       id="path1" /><path
       style="fill:none;stroke:#000000;stroke-width:0.1;stroke-dasharray:none"
       d="m 3,22 c 0.2679492,-1 5.6873287,-3.501286 9,-3.464448 4,0.04448 7.437675,2.759279 10,2.759279 C 25.57445,21.294831 27,19 27,19"
       id="path3" /></g></svg>
