<?xml version="1.0" encoding="UTF-8" standalone="no"?>
<!-- Created with Inkscape (http://www.inkscape.org/) -->

<svg
   width="160"
   height="70"
   viewBox="0 0 160 70"
   version="1.1"
   id="svg1"
   xml:space="preserve"
   xmlns="http://www.w3.org/2000/svg"
   xmlns:svg="http://www.w3.org/2000/svg"><defs
     id="defs1" /><g
     id="layer2"><path
       style="display:inline;fill:none;stroke:#000000;stroke-width:0.1;stroke-linecap:round;stroke-dasharray:none"
       d="m 10.5,59.5 h 138"
       id="path1" /><path
       id="path4"
       style="display:inline;fill:none;stroke:#000000;stroke-width:0.1;stroke-linecap:round;stroke-dasharray:none"
       d="m 86.500361,53.75 v 5.75 m -18,-5.75 v 5.75 m 9,-11.25 -11,5.5 h 22 z" /><path
       id="path6"
       style="fill:none;stroke:#000000;stroke-width:0.1;stroke-linecap:round;stroke-dasharray:none"
       d="m 90.500361,53.75 v 5.75 m -13,-11.25 h 4 l 11,5.5 h -4" /><path
       id="path12"
       style="fill:none;stroke:#000000;stroke-width:0.1;stroke-linecap:round;stroke-dasharray:none"
       d="m 98.5,57.5 h 12 m 0,-4.75 v 6.75 m -2,-6.75 v 6.75 m -10,-6.75 v 6.75 m 12,-6.75 h 2 l -7,-3.5 h -2 m -7,3.5 7,-3.5 7,3.5 z" /><path
       id="path14"
       style="fill:none;stroke:#000000;stroke-width:0.1;stroke-linecap:round;stroke-dasharray:none"
       d="m 94.5,39.5 v 20 m -6,-7.75 6,-31.25 6,30.25" /><path
       id="path16"
       style="fill:none;stroke:#000000;stroke-width:0.1;stroke-linecap:round;stroke-dasharray:none"
       d="M 101.5,50.25 V 37.5 M 97.679904,36.532014 101.5,18.5 l 6,31.75" /><path
       id="path22"
       style="fill:none;stroke:#000000;stroke-width:0.1;stroke-linecap:round;stroke-dasharray:none"
       d="m 41.5,53.5 9,-9 m -16,2 7,7 v 6 m 0.0044,-20.025002 c 0,5.511479 -4.691779,9.979423 -10.4794,9.979448 -5.787639,1e-6 -10.479448,-4.467951 -10.479448,-9.979448 0,-5.511497 4.691809,-9.979448 10.479448,-9.979447 5.787639,0 10.479447,4.467951 10.479447,9.979447 z M 61.450226,39 C 61.450226,44.7715 56.323785,49.450226 50,49.450226 43.676215,49.450226 38.549774,44.7715 38.549774,39 38.549774,33.2285 43.676215,28.549774 50,28.549774 56.323785,28.549774 61.450226,33.2285 61.450226,39 Z M 49.5,26.5 c 0,6.075132 -5.596441,11 -12.5,11 -6.903559,0 -12.5,-4.924868 -12.5,-11 0,-6.075132 5.596441,-11 12.5,-11 6.903559,0 12.5,4.924868 12.5,11 z m 16.002707,-3.025 c 0,7.167389 -6.481889,12.977706 -14.477705,12.977706 -7.995816,0 -14.477706,-5.810317 -14.477706,-12.977706 0,-7.167389 6.48189,-12.977706 14.477706,-12.977706 7.995816,0 14.477705,5.810317 14.477705,12.977706 z" /><path
       id="path25"
       style="fill:none;stroke:#000000;stroke-width:0.1;stroke-linecap:round;stroke-dasharray:none"
       d="m 128.5,29.5 -1,30 m 7,-12 c 0,4.970563 -3.35786,9 -7.5,9 -4.14214,0 -7.5,-4.029437 -7.5,-9 0,-4.970563 3.35786,-9 7.5,-9 4.14214,0 7.5,4.029437 7.5,9 z m 3,-17 c 0,6.075132 -3.50329,11 -8.75,11 -5.24671,0 -9.25,-4.924868 -9.25,-11 0,-6.075132 4.00329,-11 9.25,-11 5.24671,0 8.75,4.924868 8.75,11 z" /></g></svg>
