<?xml version="1.0" encoding="UTF-8" standalone="no"?>
<!-- Created with Inkscape (http://www.inkscape.org/) -->

<svg
   width="160"
   height="70"
   viewBox="0 0 160 70"
   version="1.1"
   id="svg1"
   xml:space="preserve"
   xmlns="http://www.w3.org/2000/svg"
   xmlns:svg="http://www.w3.org/2000/svg"><defs
     id="defs1" /><g
     id="layer2"><path
       style="display:inline;fill:none;stroke:#000000;stroke-width:0.1;stroke-linecap:round"
       d="m 8.5,57.5 h 144"
       id="path1" /><path
       id="path21"
       style="display:inline;fill:none;stroke:#000000;stroke-width:0.1;stroke-linecap:round"
       d="m 126.5,52.5 a 7.5,5 0 0 1 -7.5,5 7.5,5 0 0 1 -7.5,-5 7.5,5 0 0 1 7.5,-5 7.5,5 0 0 1 7.5,5 z" /><path
       style="display:inline;fill:none;stroke:#000000;stroke-width:0.1;stroke-linecap:round"
       d="m 103.5,57.5 v -25 h 26 v 25"
       id="path2" /><path
       style="display:inline;fill:none;stroke:#000000;stroke-width:0.1;stroke-linecap:round"
       d="m 101.5,32.5 8,-8 24,8 z"
       id="path3" /><path
       style="display:inline;fill:none;stroke:#000000;stroke-width:0.1;stroke-linecap:round"
       d="m 94.5,57.5 v -16 h 48 v 16"
       id="path12" /><path
       style="display:inline;fill:none;stroke:#000000;stroke-width:0.1;stroke-linecap:round"
       d="m 103.5,35.5 -13,6 h 57 l -18,-6 z"
       id="path13" /><path
       id="path17"
       style="display:inline;fill:none;stroke:#000000;stroke-width:0.1;stroke-linecap:round"
       d="m 142.5,50.5 h -48 m 48,5 h -48" /><path
       id="path27"
       style="display:inline;fill:none;stroke:#000000;stroke-width:0.1;stroke-linecap:round"
       d="m 67.5,36.5 13,-6 m 21,2 -34,4 m 13,-6 29,-6" /><path
       style="display:inline;fill:none;stroke:#000000;stroke-width:0.1;stroke-linecap:round"
       d="M 69.5,36.27023 V 57.5"
       id="path5" /><path
       id="path11"
       style="display:inline;fill:none;stroke:#000000;stroke-width:0.1;stroke-linecap:round"
       d="m 90.5,41.5 -36,2 m 49,-8 -34,3 m 0,0 -15,5" /><path
       style="display:inline;fill:none;stroke:#000000;stroke-width:0.1;stroke-linecap:round"
       d="M 58.5,43.251634 V 57.5"
       id="path18" /><path
       id="path26"
       style="display:inline;fill:none;stroke:#000000;stroke-width:0.1;stroke-linecap:round"
       d="m 94.5,55.5 h -36 m 36,-5 -36,1" /><path
       id="path20"
       style="display:inline;fill:none;stroke:#000000;stroke-width:0.1;stroke-linecap:round"
       d="m 97.5,48.5 v 9 m -12,-9 v 9 m -1,-12 v 3 h 14 v -3 z" /><path
       id="path22"
       style="display:inline;fill:none;stroke:#000000;stroke-width:0.1;stroke-linecap:round"
       d="m 65.5,54 a 6,3.5 0 0 1 -6,3.5 6,3.5 0 0 1 -6,-3.5 6,3.5 0 0 1 6,-3.5 6,3.5 0 0 1 6,3.5 z" /><path
       style="display:inline;fill:none;stroke:#000000;stroke-width:0.1;stroke-linecap:round"
       d="m 21.5,57.5 v -9 h 43 v 9"
       id="path6" /><path
       style="display:inline;fill:none;stroke:#000000;stroke-width:0.1;stroke-linecap:round"
       d="m 33.5,39.5 -13,9 h 47 l -17,-9 z"
       id="path7" /><path
       style="display:inline;fill:none;stroke:#000000;stroke-width:0.1;stroke-linecap:round"
       d="m 20.5,48.5 h -6 l 19,-9"
       id="path9" /><path
       style="display:inline;fill:none;stroke:#000000;stroke-width:0.1;stroke-linecap:round"
       d="m 18.5,48.5 v 9"
       id="path8" /><path
       style="display:inline;fill:none;stroke:#000000;stroke-width:0.1;stroke-linecap:round"
       d="m 18.5,55.5 h 47"
       id="path10" /></g></svg>
