<?xml version="1.0" encoding="UTF-8" standalone="no"?>
<!-- Created with Inkscape (http://www.inkscape.org/) -->

<svg
   width="274"
   height="90"
   viewBox="0 0 274 90"
   version="1.1"
   id="svg1"
   xml:space="preserve"
   xmlns="http://www.w3.org/2000/svg"
   xmlns:svg="http://www.w3.org/2000/svg"><defs
     id="defs1" /><g
     id="layer2"><path
       style="fill:none;stroke:#000000;stroke-width:0.1;stroke-linecap:round;stroke-dasharray:none"
       d="m 10.5,69.5 h 253"
       id="path8" /><path
       id="path3"
       style="fill:none;stroke:#000000;stroke-width:0.099631;stroke-linecap:round"
       d="M 48.450185,27 A 13.450185,13.450185 0 0 1 35,40.450185 13.450185,13.450185 0 0 1 21.549815,27 13.450185,13.450185 0 0 1 35,13.549815 13.450185,13.450185 0 0 1 48.450185,27 Z" /><path
       id="path4"
       style="fill:none;stroke:#000000;stroke-width:0.0848708;stroke-linecap:round"
       d="M 60.457565,31 A 11.457565,11.457565 0 0 1 49,42.457565 11.457565,11.457565 0 0 1 37.542435,31 11.457565,11.457565 0 0 1 49,19.542435 11.457565,11.457565 0 0 1 60.457565,31 Z" /><path
       id="path5"
       style="fill:none;stroke:#000000;stroke-width:0.0701107;stroke-linecap:round"
       d="M 46.464945,41 A 9.4649446,9.4649449 0 0 1 37,50.464945 9.4649446,9.4649449 0 0 1 27.535055,41 9.4649446,9.4649449 0 0 1 37,31.535055 9.4649446,9.4649449 0 0 1 46.464945,41 Z" /><path
       style="fill:none;stroke:#000000;stroke-width:0.1;stroke-linecap:round;stroke-dasharray:none"
       d="m 34.5,36.5 c 0,7.5 1.028973,12.475085 4.25,16.25 2.721041,3.188951 3.75,6 3.75,6 1.75,4.25 1.25,8.5 2.25,10.75"
       id="path6" /><path
       style="display:inline;fill:none;stroke:#000000;stroke-width:0.1;stroke-linecap:round;stroke-dasharray:none"
       d="m 42.5,58.75 c -0.56798,-3.851294 2.024935,-8.10868 3,-9.25 0.950216,-1.112234 4.469574,-4.124721 4,-11"
       id="path7" /><path
       style="fill:none;stroke:#000000;stroke-width:0.1;stroke-linecap:round;stroke-dasharray:none"
       d="m 81.5,10.5 -11,45 h 22 z"
       id="path9" /><path
       style="fill:none;stroke:#000000;stroke-width:0.1;stroke-linecap:round;stroke-dasharray:none"
       d="m 81.5,44.5 v 25"
       id="path10" /><path
       id="path11"
       style="fill:none;stroke:#000000;stroke-width:0.0701107;stroke-linecap:round"
       d="M 121.5,21 A 9.4649446,9.4649449 0 0 1 112.03506,30.464945 9.4649446,9.4649449 0 0 1 102.57011,21 9.4649446,9.4649449 0 0 1 112.03506,11.535055 9.4649446,9.4649449 0 0 1 121.5,21 Z" /><path
       style="fill:none;stroke:#000000;stroke-width:0.1;stroke-linecap:round;stroke-dasharray:none"
       d="m 111.5,21.5 c 1.36252,0.838847 2.88418,7.519463 3,8.5 0.12092,1.02366 1.75,10 2,16 0.25,6 1.75,21 3.25,23.5"
       id="path12" /><path
       style="fill:none;stroke:#000000;stroke-width:0.1;stroke-linecap:round;stroke-dasharray:none"
       d="m 139.5,69.5 v -20 h 32 v 20"
       id="path13" /><path
       style="fill:none;stroke:#000000;stroke-width:0.1;stroke-linecap:round;stroke-dasharray:none"
       d="M 133.1,49.5 155.5,38.25 177.9,49.5 Z"
       id="path14" /><path
       style="fill:none;stroke:#000000;stroke-width:0.1;stroke-linecap:round;stroke-dasharray:none"
       d="m 190.5,69.5 v -4 h 30 v 4"
       id="path16" /><path
       style="fill:none;stroke:#000000;stroke-width:0.1;stroke-linecap:round;stroke-dasharray:none"
       d="m 193.5,65.5 v -12 h 24 v 12"
       id="path17" /><path
       style="fill:none;stroke:#000000;stroke-width:0.1;stroke-linecap:round;stroke-dasharray:none"
       d="m 197.5,53.5 v -11 h 16 v 11"
       id="path18" /><path
       style="fill:none;stroke:#000000;stroke-width:0.1;stroke-linecap:round;stroke-dasharray:none"
       d="m 189.1,53.5 16.4,-8.25 16.4,8.25 z"
       id="path19" /><path
       style="fill:none;stroke:#000000;stroke-width:0.1;stroke-linecap:round;stroke-dasharray:none"
       d="m 193.1,42.5 12.4,-6.25 12.4,6.25 z"
       id="path20" /><path
       style="fill:none;stroke:#000000;stroke-width:0.1;stroke-linecap:round;stroke-dasharray:none"
       d="M 204.5,36.75 V 33.5 h 2 v 3.25"
       id="path21" /><path
       style="fill:none;stroke:#000000;stroke-width:0.1;stroke-linecap:round;stroke-dasharray:none"
       d="m 235.5,69.5 v -31 h 2 v 31"
       id="path22" /><path
       style="fill:none;stroke:#000000;stroke-width:0.1;stroke-linecap:round;stroke-dasharray:none"
       d="m 247.5,69.5 v -31 h 2 v 31"
       id="path23" /><path
       style="fill:none;stroke:#000000;stroke-width:0.1;stroke-linecap:round;stroke-dasharray:none"
       d="m 233.5,38.5 h 18"
       id="path24" /><path
       style="fill:none;stroke:#000000;stroke-width:0.1;stroke-linecap:round;stroke-dasharray:none"
       d="m 235.5,38.5 v -10 h 14 v 10"
       id="path25" /><path
       style="fill:none;stroke:#000000;stroke-width:0.1;stroke-linecap:round;stroke-dasharray:none"
       d="m 232.5,28.5 10,-10 10,10 z"
       id="path26" /></g></svg>
