<?xml version="1.0" encoding="UTF-8" standalone="no"?>
<!-- Created with Inkscape (http://www.inkscape.org/) -->

<svg
   width="140"
   height="140"
   viewBox="0 0 140 140"
   version="1.1"
   id="svg1"
   xml:space="preserve"
   xmlns="http://www.w3.org/2000/svg"
   xmlns:svg="http://www.w3.org/2000/svg"><defs
     id="defs1" /><g
     id="layer2"><path
       id="rect1"
       style="display:inline;opacity:1;fill:none;stroke:#000000;stroke-width:0.1;stroke-linecap:round"
       d="M 41.507332,74.507332 H 101.44267 V 109.44267 H 41.507332 Z" /><path
       style="display:inline;fill:none;stroke:#000000;stroke-width:0.1;stroke-linecap:round;stroke-dasharray:none"
       d="m 41.5,74.5 -15,-10 h 88 l -13.05733,10.007332"
       id="path1" /><path
       style="display:inline;fill:none;stroke:#000000;stroke-width:0.1;stroke-linecap:round;stroke-dasharray:none"
       d="m 26.5,64.5 30,-5 h 30 l 28,5"
       id="path2" /><path
       id="path4"
       style="display:inline;fill:none;stroke:#000000;stroke-width:0.1;stroke-linecap:round;stroke-dasharray:none"
       d="m 40.5,40.5 31,-5 31,5 m -46,8 -16,-8 h 62 l -16,8 m -30,0 h 30 v 11 h -30 z" /><path
       style="display:inline;fill:none;stroke:#000000;stroke-width:0.1;stroke-linecap:round;stroke-dasharray:none"
       d="m 71.5,35.5 11,5 -5,8 v 11 l 11,5 -6,10 v 35"
       id="path5" /><path
       id="path9"
       style="fill:none;stroke:#000000;stroke-width:0.0961651;stroke-linecap:round"
       d="M 32.498208,114.97685 A 6.9982085,6.475063 0 0 1 25.5,121.45192 6.9982085,6.475063 0 0 1 18.501792,114.97685 6.9982085,6.475063 0 0 1 25.5,108.50179 a 6.9982085,6.475063 0 0 1 6.998208,6.47506 z m 8.988179,0.49815 a 6.4613853,3.9613855 0 0 1 -6.461385,3.96138 6.4613853,3.9613855 0 0 1 -6.461386,-3.96138 6.4613853,3.9613855 0 0 1 6.461386,-3.96139 6.4613853,3.9613855 0 0 1 6.461385,3.96139 z M 112.45105,113 a 4.4741993,5.4973448 0 0 1 -4.4742,5.49734 4.4741993,5.4973448 0 0 1 -4.47419,-5.49734 4.4741993,5.4973448 0 0 1 4.47419,-5.49734 4.4741993,5.4973448 0 0 1 4.4742,5.49734 z m -4.95354,0.5 A 8.9975149,4.9975149 0 0 1 98.5,118.49751 8.9975149,4.9975149 0 0 1 89.502485,113.5 8.9975149,4.9975149 0 0 1 98.5,108.50249 8.9975149,4.9975149 0 0 1 107.49751,113.5 Z" /></g></svg>
