<?xml version="1.0" encoding="UTF-8" standalone="no"?>
<!-- Created with Inkscape (http://www.inkscape.org/) -->

<svg
   width="140"
   height="140"
   viewBox="0 0 140 140"
   version="1.1"
   id="svg1"
   xml:space="preserve"
   xmlns="http://www.w3.org/2000/svg"
   xmlns:svg="http://www.w3.org/2000/svg"><defs
     id="defs1" /><g
     id="layer2"><path
       style="display:inline;fill:#000000;stroke:#000000;stroke-width:0.1;stroke-linecap:round"
       d="m 8.5,122.5 h 123"
       id="path1" /><path
       id="path6"
       style="display:inline;fill:none;stroke:#000000;stroke-width:0.1;stroke-linecap:round"
       d="m 73.5,64.5 h 16 m -16,-12 h 16 m -8,-31 8,24 m -8,77 v -101 l -8,24 m 0,77 v -77 h 16 v 77" /><path
       id="path16"
       style="display:inline;fill:none;stroke:#000000;stroke-width:0.1;stroke-linecap:round"
       d="m 107.5,96.75 v -10 m -14,-5.5 11,5.5 m -15,-3.5 4,-2 h 4 l 11,5.5 h -5 v 5 m -69,0.5 v 30.25 m -6,-30.25 v 30.25 m -8,-30.25 v 30.25 m 8.75,-30.25 2.25,-5.75 2.25,5.75 M 19.5,92.25 31,86.5 h 62 l 11.5,5.75 z" /><path
       id="path24"
       style="display:inline;fill:none;stroke:#000000;stroke-width:0.1;stroke-linecap:round"
       d="m 116.5,101.75 v 20.75 m -104,-20.75 v 20.75 m 30,-20.75 v 20.75 m 65,-25.75 10,5 h -75 m -8,-5 h 73 m -64,5 -9,-4.5 m -14,0 -9,4.5 h 1" /><path
       id="path31"
       style="display:inline;fill:none;stroke:#000000;stroke-width:0.1;stroke-linecap:round"
       d="m 34.184489,116.29964 c 1.204768,1.36428 2.187755,1.56593 2.489839,3.26674 M 39.5,113.5 c 0,1.5 -0.427751,2.58463 -1,3 -0.631417,0.45832 -2.273841,1.91314 -2,6 m 8,-14 c 0,2.76142 -2.462434,5 -5.5,5 -3.037566,0 -5.5,-2.23858 -5.5,-5 0,-2.76142 2.462434,-5 5.5,-5 3.037566,0 5.5,2.23858 5.5,5 z m -6,-3.5 c 0,1.933 -1.567003,3.5 -3.5,3.5 -1.932997,0 -3.5,-1.567 -3.5,-3.5 0,-1.933 1.567003,-3.5 3.5,-3.5 1.932997,0 3.5,1.567 3.5,3.5 z m -2,6 c 0,3.58985 -2.462434,6.5 -5.5,6.5 -3.037566,0 -5.5,-2.91015 -5.5,-6.5 0,-3.58985 2.462434,-6.5 5.5,-6.5 3.037566,0 5.5,2.91015 5.5,6.5 z" /><path
       id="path33"
       style="display:inline;fill:none;stroke:#000000;stroke-width:0.1;stroke-linecap:round"
       d="m 49.5,120.5 v 2 m 0,-19 -3,17 h 6 z" /><path
       style="display:inline;fill:none;stroke:#000000;stroke-width:0.1;stroke-linecap:round"
       d="m 79.5,122.5 2,-20 3,20"
       id="path34" /><path
       id="path5"
       style="display:inline;fill:none;stroke:#000000;stroke-width:0.1;stroke-linecap:round"
       d="m 94.5,103.5 c 0,2.76142 -2.238576,5 -5,5 -2.761424,0 -5,-2.23858 -5,-5 0,-2.76142 2.238576,-5 5,-5 2.761424,0 5,2.23858 5,5 z m 5.012936,0.5 c 10e-7,1.933 -1.841423,3.5 -4.112934,3.5 -2.271512,0 -4.112936,-1.567 -4.112935,-3.5 -10e-7,-1.933 1.841423,-3.5 4.112935,-3.5 2.271511,0 4.112935,1.567 4.112934,3.5 z M 101.5,112 c 0,3.58985 -4.253295,6.5 -9.5,6.5 -5.246705,0 -9.5,-2.91015 -9.5,-6.5 0,-3.58985 4.253295,-6.5 9.5,-6.5 5.246705,0 9.5,2.91015 9.5,6.5 z m -10.25,6.5 c 0.244395,1.18189 0.995377,1.5 1.372688,2.5 M 94.5,118.25 c -0.07452,0.76371 -2,1.09136 -2,4.25" /><path
       id="path12"
       style="display:inline;fill:none;stroke:#000000;stroke-width:0.1;stroke-linecap:round"
       d="M 123.27885,115.37887 C 123.8582,118.31374 125.75,116 125.5,122.5 m -2,-20 c 0,2.20914 -2.91015,4 -6.5,4 -3.58985,0 -6.5,-1.79086 -6.5,-4 0,-2.20914 2.91015,-4 6.5,-4 3.58985,0 6.5,1.79086 6.5,4 z m -0.0427,2.62894 c -0.16561,1.07359 -0.2149,1.43025 -0.23862,2.50464 m -0.59946,-2.28996 c -1.17561,1.1282 -1.82034,1.55588 -2.20972,2.94255 M 119.5,106.25 c 0.7147,0.83029 1,1.5 0.9091,2.94957 M 116.5,106.5 c 0.5,1 3,2.62606 3.4322,3.37318 m 6.59033,5.28496 c -0.0225,3.56662 -0.57909,2.16148 -1.1319,4.09186 M 129.5,111.5 c 0,2.20914 -2.23858,4 -5,4 -2.76142,0 -5,-1.79086 -5,-4 0,-2.20914 2.23858,-4 5,-4 2.76142,0 5,1.79086 5,4 z m -2,-11 c 0,2.76142 -2.91015,5 -6.5,5 -3.58985,0 -6.5,-2.23858 -6.5,-5 0,-2.76142 2.91015,-5 6.5,-5 3.58985,0 6.5,2.23858 6.5,5 z" /></g></svg>
