<?xml version="1.0" encoding="UTF-8" standalone="no"?>
<!-- Created with Inkscape (http://www.inkscape.org/) -->

<svg
   width="80"
   height="80"
   viewBox="0 0 80 80"
   version="1.1"
   id="svg1"
   xml:space="preserve"
   xmlns="http://www.w3.org/2000/svg"
   xmlns:svg="http://www.w3.org/2000/svg"><defs
     id="defs1" /><g
     id="layer2"><path
       style="display:inline;fill:none;stroke:#0099ff;stroke-width:0.1;stroke-linecap:round;stroke-opacity:1"
       d="m 7.5,72.5 h 65"
       id="path1" /><path
       id="path12"
       style="fill:none;stroke:#0099ff;stroke-width:0.1;stroke-linecap:round;stroke-opacity:1"
       d="m 22.5,72.5 c 1,-10 4,-8.5 5,-17 0.760948,-12.345428 -0.945159,-24.706453 -2,-37 m 12,0 c 0,6.627417 -5.372583,12 -12,12 -6.627417,0 -12,-5.372583 -12,-12 0,-6.627417 5.372583,-12 12,-12 6.627417,0 12,5.372583 12,12 z" /><path
       id="path14"
       style="fill:none;stroke:#0099ff;stroke-width:0.1;stroke-linecap:round;stroke-opacity:1"
       d="m 56.5,71.5 a 4,4 0 0 1 -4,4 4,4 0 0 1 -4,-4 4,4 0 0 1 4,-4 4,4 0 0 1 4,4 z m 11,-8 a 15,15 0 0 1 -15,15 15,15 0 0 1 -15,-15 15,15 0 0 1 15,-15 15,15 0 0 1 15,15 z" /></g></svg>
