<?xml version="1.0" encoding="UTF-8" standalone="no"?>
<!-- Created with Inkscape (http://www.inkscape.org/) -->

<svg
   width="80"
   height="80"
   viewBox="0 0 80 80"
   version="1.1"
   id="svg1"
   xml:space="preserve"
   xmlns="http://www.w3.org/2000/svg"
   xmlns:svg="http://www.w3.org/2000/svg"><defs
     id="defs1" /><g
     id="layer2"><path
       style="display:inline;fill:none;stroke:#00ccff;stroke-width:0.1;stroke-linecap:round"
       d="m 5.5,72.5 h 69"
       id="path1" /><path
       id="path5"
       style="display:inline;fill:none;stroke:#00ccff;stroke-width:0.1;stroke-linecap:round"
       d="m 40.5,41.5 a 17,17 0 0 1 -17,17 17,17 0 0 1 -17,-17 17,17 0 0 1 17,-17 17,17 0 0 1 17,17 z m 32.999201,4.000172 A 13.976325,13.953278 0 0 1 59.522875,59.453451 13.976325,13.953278 0 0 1 45.546549,45.500172 13.976325,13.953278 0 0 1 59.522875,31.546893 13.976325,13.953278 0 0 1 73.499201,45.500172 Z M 61.448627,28.975 A 17.473629,17.473629 0 0 1 43.974998,46.448629 17.473629,17.473629 0 0 1 26.501369,28.975 17.473629,17.473629 0 0 1 43.974998,11.501371 17.473629,17.473629 0 0 1 61.448627,28.975 Z" /><path
       id="path7"
       style="display:inline;fill:none;stroke:#00ccff;stroke-width:0.1;stroke-linecap:round"
       d="M 52.5,42 A 13.5,13.5 0 0 1 39,55.5 13.5,13.5 0 0 1 25.5,42 13.5,13.5 0 0 1 39,28.5 13.5,13.5 0 0 1 52.5,42 Z" /><path
       id="path6"
       style="display:inline;fill:none;stroke:#00ccff;stroke-width:0.1;stroke-linecap:round"
       d="M 30.5,49 A 7.5,7.5 0 0 1 23,56.5 7.5,7.5 0 0 1 15.5,49 7.5,7.5 0 0 1 23,41.5 7.5,7.5 0 0 1 30.5,49 Z m 24,4.5 a 9,9 0 0 1 -9,9 9,9 0 0 1 -9,-9 9,9 0 0 1 9,-9 9,9 0 0 1 9,9 z" /><path
       id="path9"
       style="display:inline;fill:none;stroke:#00ccff;stroke-width:0.1;stroke-linecap:round"
       d="m 33.367277,55.343296 c 1.701813,2.055979 2.090339,3.051086 5,5 M 35.5,72.5 c 2.173111,-7.329785 3.15078,-13.082314 3.143812,-13.169675" /></g></svg>
