<?xml version="1.0" encoding="UTF-8" standalone="no"?>
<!-- Created with Inkscape (http://www.inkscape.org/) -->

<svg
   width="90"
   height="90"
   viewBox="0 0 90 90"
   version="1.1"
   id="svg1"
   xml:space="preserve"
   xmlns="http://www.w3.org/2000/svg"
   xmlns:svg="http://www.w3.org/2000/svg"><defs
     id="defs1" /><g
     id="layer2"><path
       id="path1"
       style="display:inline;fill:none;stroke:#00ccff;stroke-width:0.100831;stroke-linecap:round"
       d="M 39.501214,36.58498 A 15.972139,14.111601 0 0 1 23.529077,50.696581 15.972139,14.111601 0 0 1 7.5569387,36.58498 15.972139,14.111601 0 0 1 23.529077,22.473379 15.972139,14.111601 0 0 1 39.501214,36.58498 Z" /><path
       id="path2"
       style="display:inline;fill:none;stroke:#00ccff;stroke-width:0.0980835;stroke-linecap:round"
       d="M 54.516151,35.5463 A 19.54,17.015143 0 0 1 34.97615,52.561443 19.54,17.015143 0 0 1 15.436151,35.5463 19.54,17.015143 0 0 1 34.97615,18.531158 19.54,17.015143 0 0 1 54.516151,35.5463 Z" /><path
       id="path4"
       style="display:inline;fill:none;stroke:#00ccff;stroke-width:0.0655609;stroke-linecap:round"
       d="M 69.5,29.082534 A 16.999997,21.582534 0 0 1 52.499998,50.665067 16.999997,21.582534 0 0 1 35.5,29.082534 16.999997,21.582534 0 0 1 52.499998,7.5 16.999997,21.582534 0 0 1 69.5,29.082534 Z" /><path
       id="path3"
       style="display:inline;fill:none;stroke:#00ccff;stroke-width:0.09603;stroke-linecap:round"
       d="M 81.581847,35.069178 A 15.04223,15.521163 0 0 1 66.539617,50.590341 15.04223,15.521163 0 0 1 51.497387,35.069178 15.04223,15.521163 0 0 1 66.539617,19.548015 15.04223,15.521163 0 0 1 81.581847,35.069178 Z" /><path
       style="display:inline;fill:none;stroke:#00ccff;stroke-width:0.103504;stroke-linecap:round;stroke-dasharray:none"
       d="m 8.5,31.812587 0.014067,-12.328809 5.672197,5.655658"
       id="path5" /><path
       style="display:inline;fill:none;stroke:#00ccff;stroke-width:0.103504;stroke-linecap:round;stroke-dasharray:none"
       d="M 36.609292,32.351787 32.5,19.5 l -5,5 z"
       id="path6" /><path
       style="display:inline;fill:none;stroke:#000000;stroke-width:0.103504;stroke-linecap:round;stroke-dasharray:none"
       d="M 33.5,29.748458 C 31.314828,24.286911 31.200351,21.600717 32.5,19.5 c 3.676542,2.568873 3.211134,7.666897 4.109292,12.851787"
       id="path18" /><path
       style="display:inline;fill:none;stroke:#000000;stroke-width:0.103504;stroke-linecap:round;stroke-dasharray:none"
       d="m 8.514067,19.483778 5.672197,5.655658 c 4.901772,-3.129345 11.174858,-3.115759 14.549535,-1.875235 M 27.5,24.5 l 5,-5"
       id="path17" /><path
       style="display:inline;fill:none;stroke:#000000;stroke-width:0.103504;stroke-linecap:round;stroke-dasharray:none"
       d="M 8.5,31.812587 C 6.1170237,26.620671 6.3053706,23.990555 8.5,19.5 c 3.544018,2.957127 4,10 4,10"
       id="path16" /><path
       style="display:inline;fill:none;stroke:#000000;stroke-width:0.103504;stroke-linecap:round;stroke-dasharray:none"
       d="M 22.384676,22.534941 C 26.686749,19.326416 31.812943,18.677609 33.46109,18.582382 35.690772,18.453554 38.165155,16.447733 40.5,13.713794 43,10.78647 47.126921,7.3830357 52.499998,7.5"
       id="path19" /><path
       style="display:inline;fill:none;stroke:#000000;stroke-width:0.103504;stroke-linecap:round;stroke-dasharray:none"
       d="M 52.5,7.5 C 61.645755,7.5 80,16 81.581043,34.543617 81.83229,37.490419 81.5,41.5 81.202023,44.627194"
       id="path7" /><path
       style="display:inline;fill:none;stroke:#000000;stroke-width:0.103504;stroke-linecap:round;stroke-dasharray:none"
       d="m 55.441959,45.546827 c 3.324253,3.637044 7.270001,4.982294 11.039617,5.089537 C 72.346191,50.803208 79.135626,45.514855 81.5,44.5 c 2.364374,-1.014855 4,-1 4,-1"
       id="path24" /><path
       style="display:inline;opacity:1;fill:none;stroke:#000000;stroke-width:0.1;stroke-linecap:round"
       d="m 58.5,54.5 c 2.816153,-1.887052 3,-1 9,-1 6,0 12.295333,-6 18,-6"
       id="path28" /><path
       style="display:inline;fill:none;stroke:#000000;stroke-width:0.1;stroke-linecap:round"
       d="m 58.5,54.5 c -0.5,0.847266 0.105572,2.329179 1,3 0.672425,0.504319 1.566603,0.833217 2.778208,1.664844 C 64.670291,60.806733 67.643924,63.109727 68,63.5 c 1.38949,1.522931 5.5,2.5 14.5,2"
       id="path29" /><path
       style="display:inline;opacity:1;fill:none;stroke:#000000;stroke-width:0.1;stroke-linecap:round"
       d="m 52.5,55.5 c 1.706054,3.576847 4.805042,4.62042 7,5 1.575261,0.272414 5.133697,2.271276 6,4 0.807673,1.611727 3.5,3 11,3"
       id="path30" /><path
       style="display:inline;fill:none;stroke:#000000;stroke-width:0.103504;stroke-linecap:round;stroke-dasharray:none"
       d="M 80.540801,48.715665 C 77.51537,57.637744 72.831522,60.309396 67.689625,63.199775"
       id="path27" /><path
       style="display:inline;fill:none;stroke:#000000;stroke-width:0.103504;stroke-linecap:round;stroke-dasharray:none"
       d="m 65.5,64.5 c -7,3.5 -18.310422,6.159684 -18,11 0.244436,3.811409 3,5 3,5 -3.689192,3.842192 -6.537913,-2.872304 -6,-7 1.458095,-7.355296 8.97752,-10.031552 15,-13"
       id="path31" /><path
       style="display:inline;fill:none;stroke:#000000;stroke-width:0.103504;stroke-linecap:round;stroke-dasharray:none"
       d="M 62.278208,59.164844 C 66.5,57 69.040357,55.438177 71.584043,52.725684"
       id="path32" /><path
       style="display:inline;fill:none;stroke:#000000;stroke-width:0.103504;stroke-linecap:round;stroke-dasharray:none"
       d="m 26.142523,50.709433 c 1.907337,0.909889 6.757393,2.256988 10.956287,1.751316 4.019911,-0.484117 6.923165,-1.630575 9.441304,-3.198922 6.404664,2.90096 10.713856,0.690801 12.917149,-0.486916"
       id="path13" /><path
       style="display:inline;fill:none;stroke:#000000;stroke-width:0.103504;stroke-linecap:round;stroke-dasharray:none"
       d="m 14.5,49.5 c 3.225079,3.354201 6.790307,4.09259 11.642523,1.209433"
       id="path12" /><path
       style="display:inline;fill:none;stroke:#000000;stroke-width:0.103504;stroke-linecap:round;stroke-dasharray:none"
       d="M 8.4238084,31.594786 C 5.5024221,39.91974 4.5463442,44.964304 14.5,49.5"
       id="path11" /><path
       style="fill:none;stroke:#000000;stroke-width:0.1;stroke-linecap:round"
       d="m 4.5,49.5 c 5,0 6.5,1 11,1"
       id="path33" /><path
       style="fill:none;stroke:#000000;stroke-width:0.1;stroke-linecap:round"
       d="m 5.5,55.5 c 9.5,-0.5 9.5,1 12,1 3,0 3.5,-1 7,-1 3,0 4,0.5 5,1 1,0.5 5,1.5 7,3 2,1.5 3,3 5,4"
       id="path34" /><path
       style="fill:none;stroke:#000000;stroke-width:0.1;stroke-linecap:round"
       d="m 52.5,55.5 c -4.5,-0.5 -12,2 -12,2 0,0 2,2.5 3,3"
       id="path35" /><path
       id="path9"
       style="display:inline;fill:none;stroke:#000000;stroke-width:0.107841;stroke-linecap:round;stroke-dasharray:none"
       d="m 30.611044,35.960799 a 2.6530266,2.5812599 0 0 1 -2.653025,2.581261 2.6530266,2.5812599 0 0 1 -2.653027,-2.581261 2.6530266,2.5812599 0 0 1 2.653027,-2.581258 2.6530266,2.5812599 0 0 1 2.653025,2.581258 z" /><path
       id="path8"
       style="display:inline;fill:none;stroke:#000000;stroke-width:0.11006;stroke-linecap:round;stroke-dasharray:none"
       d="m 17.693234,35.987475 a 2.5955194,2.5955195 0 0 1 -2.595518,2.595521 2.5955194,2.5955195 0 0 1 -2.59552,-2.595521 2.5955194,2.5955195 0 0 1 2.59552,-2.595519 2.5955194,2.5955195 0 0 1 2.595518,2.595519 z" /><path
       id="path21"
       style="display:inline;fill:none;stroke:#000000;stroke-width:0.103504;stroke-linecap:round;stroke-dasharray:none"
       d="m 25.330997,36.321327 c 3.015358,0.12837 3.365013,2.118855 3.365013,2.118855 M 12.578788,36.613355 c 1.421569,-0.219498 2.922738,0.786133 3.12598,1.897652" /><path
       style="display:inline;fill:none;stroke:#000000;stroke-width:0.091054;stroke-linecap:round;stroke-dasharray:none"
       d="m 19.548798,44.589392 -2.007099,-2.101499 3.982341,0.02802 z"
       id="path10" /><path
       style="display:inline;fill:none;stroke:#000000;stroke-width:0.103504;stroke-linecap:round;stroke-dasharray:none"
       d="m 9.5779194,43.33292 c 6.8536596,3.058658 7.3638496,2.144127 9.9127306,2.200769 2.548882,0.05664 7.570932,0.376097 11.932351,-0.983305"
       id="path14" /><path
       style="display:inline;fill:none;stroke:#000000;stroke-width:0.103504;stroke-linecap:round;stroke-dasharray:none"
       d="M 11.588819,44.206939 C 14.768723,49.096165 17.775187,48.5 19.75873,48.5 21.5,48.5 27.6328,47.998333 29.509322,45.038557"
       id="path15" /><path
       id="path26"
       style="display:inline;fill:none;stroke:#000000;stroke-width:0.1;stroke-linecap:round"
       d="m 25.5,45.585507 v 2.019962 M 15.493116,45.453592 15.5,47.916475 m 1.987402,-2.30379 0.0126,2.826064 M 23.502561,45.603893 23.5,48.106322 M 21.459614,45.587672 21.5,48.363286 M 19.49065,45.533689 19.5,48.5" /></g></svg>
