<?xml version="1.0" encoding="UTF-8" standalone="no"?>
<!-- Created with Inkscape (http://www.inkscape.org/) -->

<svg
   width="90"
   height="90"
   viewBox="0 0 90 90"
   version="1.1"
   id="svg1"
   xml:space="preserve"
   xmlns="http://www.w3.org/2000/svg"
   xmlns:svg="http://www.w3.org/2000/svg"><defs
     id="defs1" /><g
     id="layer2"
     style="display:inline"><path
       id="path1"
       style="display:inline;fill:none;stroke:#0099ff;stroke-width:0.1;stroke-linecap:round;stroke-dasharray:none;stroke-opacity:1"
       d="m 73.447677,52.525915 c 0,11.597978 -9.849734,20.999998 -21.999998,21 -12.150266,0 -22.000002,-9.40202 -22.000002,-21 0,-11.59798 9.849736,-21 22.000002,-21 12.150264,2e-6 21.999998,9.402022 21.999998,21 z" /><path
       id="path36"
       style="fill:none;stroke:#0099ff;stroke-width:0.1;stroke-linecap:round;stroke-dasharray:none;stroke-opacity:1"
       d="m 33.447677,42 c 0,7.993545 -6.256301,14.473593 -13.973839,14.473592 C 11.7563,56.473592 5.5,49.993544 5.5,42 5.5,34.006456 11.7563,27.526408 19.473838,27.526408 27.191376,27.526407 33.447677,34.006455 33.447677,42 Z" /><path
       id="path35"
       style="fill:none;stroke:#0099ff;stroke-width:0.100405;stroke-linecap:round;stroke-dasharray:none;stroke-opacity:1"
       d="m 66.395994,22.512641 c 0,6.606204 -6.916303,11.961591 -15.447997,11.961591 C 42.416303,34.474232 35.5,29.118845 35.5,22.512641 c 0,-6.606205 6.916303,-11.961592 15.447997,-11.961592 8.531694,0 15.447997,5.355387 15.447997,11.961592 z" /><path
       id="path37"
       style="fill:none;stroke:#0099ff;stroke-width:0.1;stroke-linecap:round;stroke-dasharray:none;stroke-opacity:1"
       d="m 66.621332,47.4648 c 0,8.284916 -4.342875,15.001167 -9.700083,15.001167 -5.357208,0 -9.700083,-6.716251 -9.700083,-15.001167 0,-8.284916 4.342875,-15.001168 9.700083,-15.001168 5.357208,0 9.700083,6.716252 9.700083,15.001168 z" /><path
       id="path38"
       style="fill:none;stroke:#0099ff;stroke-width:0.1;stroke-linecap:round;stroke-dasharray:none;stroke-opacity:1"
       d="m 84.447677,62.025915 c 0,1.932997 -1.567003,3.5 -3.5,3.5 -1.932997,0 -3.5,-1.567003 -3.5,-3.5 0,-1.932997 1.567003,-3.5 3.5,-3.5 1.932997,0 3.5,1.567003 3.5,3.5 z" /><path
       id="path39"
       style="display:inline;fill:none;stroke:#000000;stroke-width:0.1;stroke-linecap:round;stroke-dasharray:none"
       d="m 33.360069,40.568336 c 3.972164,-5.464362 10.592139,-9.042421 18.08761,-9.042421 12.150264,0 21.999998,9.402022 21.999998,21 0,2.099942 -0.322905,4.127894 -0.923904,6.041081" /><path
       id="path40"
       style="display:inline;fill:none;stroke:#000000;stroke-width:0.1;stroke-linecap:round;stroke-dasharray:none"
       d="M 43.407373,32.95483 C 39.123765,31.122348 35.763975,27.410963 35.5,23 35.115268,16.571226 41.708385,10.736834 50.412864,10.558091 c 8.840458,-0.181534 16.123839,5.494474 15.98313,11.95455 -0.09544,4.38155 -2.9405,8.247576 -7.523604,10.239262" /><path
       id="path41"
       style="display:inline;fill:none;stroke:#000000;stroke-width:0.1;stroke-linecap:round;stroke-dasharray:none"
       d="M 33.377165,40.536915 C 32.669037,33.230481 26.714566,27.526407 19.473838,27.526408 11.7563,27.526409 5.5,34.006456 5.5,42 c 0,7.993544 6.2563,14.473591 13.973838,14.473592 3.9045,0 7.43498,-1.658637 9.970495,-4.332758 0.0033,16.885081 16.109914,22.631512 25.224582,21.158754" /><path
       style="display:inline;fill:none;stroke:#000000;stroke-width:0.1;stroke-linecap:round;stroke-dasharray:none"
       d="M 52.5,71.5 C 55,74 57.947677,75.525915 63.447677,75.525915 70.947677,75.525915 76,72 76.5,67.5"
       id="path42" /><path
       id="path52"
       style="display:inline;fill:#000000;stroke:#000000;stroke-width:0.1;stroke-linecap:round;stroke-dasharray:none"
       d="m 73.5,63.5 c 3.197149,-2.572553 5.498131,-5.39903 7.447677,-4.974085 2.899228,0.631949 3.476057,2.532171 3.5,3.5 0.07105,2.871966 -5.052323,5.30642 -9,5.5 C 71.5,67.719495 72.405971,64.380299 73.5,63.5 Z" /><path
       style="display:inline;fill:none;stroke:#000000;stroke-width:0.1;stroke-linecap:round;stroke-dasharray:none"
       d="m 68.447677,59.525915 c 2,-1.249429 6.248762,-1.462 8.751592,0.769"
       id="path44" /><path
       style="display:inline;fill:none;stroke:#000000;stroke-width:0.1;stroke-linecap:round;stroke-dasharray:none"
       d="M 69.663222,40.726592 C 68.5,39.5 67,38 66.283203,43.524241"
       id="path45" /><path
       id="path46"
       style="display:inline;fill:none;stroke:#000000;stroke-width:0.1;stroke-linecap:round;stroke-dasharray:none"
       d="m 53.478614,61.493749 c -3.657771,-2.14793 -6.257448,-7.618932 -6.257448,-14.028949 0,-8.284916 4.342875,-15.001168 9.700083,-15.001168 4.47543,0 8.242958,4.687264 9.361954,11.060609" /><path
       style="display:inline;fill:none;stroke:#000000;stroke-width:0.1;stroke-linecap:round;stroke-dasharray:none"
       d="m 29.444333,52.140834 c 4.503344,-9.614919 12.003344,-9.114919 16.003344,-7.614919 -0.320221,-9.022697 6,-12.5 8.161441,-12.899934"
       id="path47" /><path
       style="display:inline;fill:none;stroke:#000000;stroke-width:0.1;stroke-linecap:round;stroke-dasharray:none"
       d="m 41.447677,47.525915 c -3.668883,1.858953 -6.023293,5.023785 -6,6"
       id="path48" /><path
       style="display:inline;fill:none;stroke:#000000;stroke-width:0.1;stroke-linecap:round;stroke-dasharray:none"
       d="m 38.447677,49.525915 c -0.5,5.5 -0.5,12 5,17"
       id="path49" /><path
       style="display:inline;fill:#000000;stroke:#000000;stroke-width:0.1;stroke-linecap:round;stroke-dasharray:none"
       d="m 64.447677,48.525915 c 1.5,0 2.010837,3.130036 1,6 -1.143658,3.247069 -2.337557,5.002087 -3,5 -0.662129,-0.0021 -1.5,-1 -1,-4 0.5,-3 1.5,-7 3,-7 z"
       id="path50" /><path
       id="path53"
       style="display:inline;fill:#000000;stroke:#000000;stroke-width:0.1;stroke-linecap:round;stroke-dasharray:none"
       d="m 72.523773,58.566996 c 1.360055,-4.153083 0.879291,-7.774407 0.795615,-8.041081 -0.08368,-0.266674 -0.371711,-2 -0.871711,-2 -1,0 -3,3 -2.885753,10.486373 0.932326,-0.239849 1.72426,-0.465413 2.961849,-0.445292 z" /><path
       id="path7"
       style="display:inline;fill:#000000;stroke:#000000;stroke-width:0.1;stroke-linecap:round;stroke-dasharray:none"
       d="m 66.283203,43.524241 c -0.950699,-5.414797 -3.813166,-9.612547 -7.378722,-10.75384 4.43106,1.524003 8.19872,4.362164 10.773501,7.988336 C 68.5,39.5 67,38 66.283203,43.524241 Z M 58.886719,32.759732 c 4.492985,-2.092322 7.509765,-5.893132 7.509765,-10.248047 0,-6.606187 -6.917551,-11.960938 -15.449218,-11.960938 v 3.4e-5 c -8.53167,0 -15.447266,5.354751 -15.447266,11.960938 0,4.49665 3.208405,8.409568 7.945312,10.453125 -4.095362,1.528592 -7.595064,4.190065 -10.068359,7.58789 C 32.676097,33.238756 26.720596,27.527343 19.474609,27.527344 11.757095,27.527344 5.5,34.00648 5.5,42 c 0,7.99352 6.257095,14.472656 13.974609,14.472656 3.913967,10e-7 7.447856,-1.67016 9.984375,-4.355468 5.3e-5,-0.0026 -5.3e-5,-0.0052 0,-0.0078 1.4e-5,-6.54e-4 -1.3e-5,-0.0013 0,-0.002 4.505075,-9.579743 11.993007,-9.080259 15.988282,-7.582031 -0.320038,-9.017509 5.993245,-12.493255 8.158203,-12.896485 1.835552,0.171595 3.605763,0.556204 5.28125,1.13086 z" /></g></svg>
