<?xml version="1.0" encoding="UTF-8" standalone="no"?>
<!-- Created with Inkscape (http://www.inkscape.org/) -->

<svg
   width="88"
   height="42"
   viewBox="0 0 88 42"
   version="1.1"
   id="svg1"
   xml:space="preserve"
   xmlns="http://www.w3.org/2000/svg"
   xmlns:svg="http://www.w3.org/2000/svg"><defs
     id="defs1" /><g
     id="layer2"><path
       id="rect1"
       style="fill:none;fill-opacity:0.223529;stroke:#000000;stroke-width:0.1;stroke-linecap:round"
       d="m 6.5,12.5 h 15 v 6 h -15 z m 7.5,-9 10.5,5.25 h -21 z" /><path
       id="path1"
       style="fill:#000000;fill-opacity:1;stroke:#000000;stroke-width:0.1;stroke-linecap:round"
       d="m 36.5,12.5 14.999532,10e-6 v 6 L 36.5,18.5 Z m 7.5,-9 10.5,5.25 h -21 z" /><path
       style="fill:#000000;fill-opacity:1;stroke:#000000;stroke-width:0.1;stroke-linecap:round"
       d="M 63.5,11.75 74,6.5 84.5,11.75 h -3 v 6.75 h -15 v -6.75 z"
       id="path2" /><g
       id="g4"><path
         id="path3"
         style="display:inline;fill:#fff1e8;fill-opacity:1;stroke:#fff1e8;stroke-width:0.1;stroke-linecap:round;stroke-opacity:1"
         d="m 29,26.5 -10.5,5.25 h 2.75 v 7 H 29 V 32 h 5 v 6.75 h 2.75 v -7 H 39.5 Z M 24,32 h 4 v 4 h -4 z" /><path
         id="rect3"
         style="display:inline;fill:#29adff;stroke:#29adff;stroke-width:0.1;stroke-linecap:round"
         d="m 24.25,32.25 h 3.5 v 3.5 h -3.5 z" /><path
         id="rect4"
         style="fill:#ffa300;stroke:#ffa300;stroke-width:0.1;stroke-linecap:round"
         d="m 29.25,32.25 h 4.5 v 6.5 h -4.5 z" /></g><g
       id="g6"
       transform="translate(4.6800075e-4)"
       style="display:inline"><path
         id="path4"
         style="display:inline;fill:#fff1e8;fill-opacity:1;stroke:none;stroke-width:0.1;stroke-linecap:round;stroke-opacity:1"
         d="m 58.999532,26.5 -10.5,5.25 h 3 v 7 h 8 V 32.5 h 4 v 6.25 h 3 v -7 h 3 z m -4.5,6 h 3 v 3 h -3 z" /><path
         id="path12"
         style="display:inline;fill:none;fill-opacity:1;stroke:#fff1e8;stroke-width:0.1;stroke-linecap:round;stroke-opacity:1"
         d="m 63.499532,38.75 h 3 m -15,0 h 8" /><path
         id="path5"
         style="display:inline;fill:#29adff;stroke:#1d2b53;stroke-width:0.1;stroke-linecap:round;stroke-opacity:1"
         d="m 54.499532,32.5 h 3 v 3 h -3 z" /><path
         id="path6"
         style="display:inline;fill:#ffa300;stroke:none;stroke-width:0.1;stroke-linecap:round;stroke-opacity:1"
         d="m 59.499532,32.5 h 4 v 6.25 h -4 z" /><path
         style="display:inline;fill:none;fill-opacity:1;stroke:#ffa300;stroke-width:0.1;stroke-linecap:round;stroke-opacity:1"
         d="m 59.499532,38.75 h 4"
         id="path13" /><path
         id="path10"
         style="display:inline;fill:none;fill-opacity:1;stroke:#c2c3c7;stroke-width:0.1;stroke-linecap:round;stroke-opacity:1"
         d="m 66.499532,38.75 v -7 h 3 m -21,0 h 3 v 7" /><path
         style="display:inline;fill:none;fill-opacity:1;stroke:#ff004d;stroke-width:0.1;stroke-linecap:round;stroke-opacity:1"
         d="m 48.499532,31.75 10.5,-5.25 10.5,5.25"
         id="path7" /><path
         style="display:inline;fill:none;fill-opacity:1;stroke:#ab5236;stroke-width:0.1;stroke-linecap:round;stroke-opacity:1"
         d="M 59.499532,38.75 V 32.5 h 4 v 6.25"
         id="path8" /></g></g></svg>
