<?xml version="1.0" encoding="UTF-8" standalone="no"?>
<!-- Created with Inkscape (http://www.inkscape.org/) -->

<svg
   width="100"
   height="60"
   viewBox="0 0 100 60"
   version="1.1"
   id="svg1"
   xml:space="preserve"
   xmlns="http://www.w3.org/2000/svg"
   xmlns:svg="http://www.w3.org/2000/svg"><defs
     id="defs1" /><g
     id="layer3"><path
       id="path2"
       style="fill:none;stroke:#000000;stroke-width:0.1;stroke-linecap:round"
       d="m 17.5,50.5 c 0,3.865993 -3.134007,7 -7,7 -3.8659932,0 -7,-3.134007 -7,-7 0,-3.865993 3.1340068,-7 7,-7 3.865993,0 7,3.134007 7,7 z M 4.25,36.5 h 12.5 L 10.5,24.1 Z M 4.5,4.5 h 12 v 12 h -12 z" /><path
       id="path4"
       style="fill:none;stroke:#000000;stroke-width:0.1;stroke-linecap:round"
       d="m 46.5,50.5 c 0,2.761424 -5.148725,5 -11.5,5 -6.351275,0 -11.5,-2.238576 -11.5,-5 0,-2.761424 5.148725,-5 11.5,-5 6.351275,0 11.5,2.238576 11.5,5 z M 35,26.5 22.5,32.75 h 25 z M 22.5,7.5 h 25 v 6 h -25 z" /><path
       id="path15"
       style="fill:none;stroke:#000000;stroke-width:0.1;stroke-linecap:round;stroke-dasharray:none"
       d="m 70.221482,45.321865 c 1.168381,2.453032 -2.236899,6.536096 -7.605905,9.119779 -5.369006,2.583683 -10.668606,2.689597 -11.836988,0.236565 -1.168381,-2.453032 2.236899,-6.536096 7.605905,-9.119779 C 63.7535,42.974747 69.0531,42.868833 70.221482,45.321865 Z M 59.75,2.5000001 52.5,17.25 59.25,20.5 66.5,5.7500004 Z M 53.65,31.649999 60.5,38.5 70.5,23.25 Z" /><path
       id="path10"
       style="fill:none;stroke:#000000;stroke-width:0.1;stroke-linecap:round;stroke-dasharray:none"
       d="m 72.5,53.5 c 0,0 0.75,-0.620326 1.5,-1 0.65767,-0.332933 1.270286,-0.679595 2.25,-1 1,-0.32704 2.071595,-0.663313 3.25,-1 1.75,-0.5 3.5,-0.75 5,-0.75 1.5,0 3.25,0.25 5,0.75 1.317749,0.3765 2.25,0.620311 3.25,1 0.917553,0.348385 1.525404,0.630343 2.25,1 0.75,0.382617 1.5,1 1.5,1 M 95.85,24.15 74.5,34.75 H 85.25 Z M 79.5,7.5 l -7,7 h 24 l -7,-7 z" /></g></svg>
