<?xml version="1.0" encoding="UTF-8" standalone="no"?>
<!-- Created with Inkscape (http://www.inkscape.org/) -->

<svg
   width="45"
   height="25"
   viewBox="0 0 45 25"
   version="1.1"
   id="svg1"
   xml:space="preserve"
   xmlns="http://www.w3.org/2000/svg"
   xmlns:svg="http://www.w3.org/2000/svg"><defs
     id="defs1" /><g
     id="layer2"><path
       id="path4"
       style="fill:none;stroke:#000000;stroke-width:0.1;stroke-linecap:square;stroke-linejoin:bevel"
       d="m 30.5,12.5 h 6 m -1,2 v -2 m -4,2 v -2 m -25,6 h 14 v -1 h 2 v -1 h 2 v -1 h 2 v -1 h 12" /><path
       id="path7"
       style="fill:none;stroke:#000000;stroke-width:0.1;stroke-linecap:square;stroke-linejoin:bevel"
       d="m 18.5,18.5 v -2.25 c 0,-0.75 0.5,-1.25 1,-1.5 l 5.75,-2.875 c 0.5,-0.25 1.375,-0.25 1.875,0.25 0.25,0.25 0.375,0.5 0.375,1 V 14.5 m -12,4 V 8.25 c 0,-1 0.75,-1.75 1.75,-1.75 H 18.5 M 9.5,18 8.625,14.5 h 3.75 L 11.5,18" /></g></svg>
